<svg width="18" height="18" viewBox="0 0 18 18" fill="none" xmlns="http://www.w3.org/2000/svg">
<path d="M6.1875 0.291992H15.8125C16.238 0.291992 16.646 0.461002 16.9468 0.761842C17.2477 1.06268 17.4167 1.47071 17.4167 1.89616V11.5212C17.4167 11.9466 17.2477 12.3546 16.9468 12.6555C16.646 12.9563 16.238 13.1253 15.8125 13.1253H6.1875C5.76205 13.1253 5.35402 12.9563 5.05318 12.6555C4.75234 12.3546 4.58333 11.9466 4.58333 11.5212V1.89616C4.58333 1.47071 4.75234 1.06268 5.05318 0.761842C5.35402 0.461002 5.76205 0.291992 6.1875 0.291992ZM6.1875 1.66699C6.12672 1.66699 6.06843 1.69114 6.02545 1.73411C5.98248 1.77709 5.95833 1.83538 5.95833 1.89616V11.5212C5.95833 11.5513 5.96426 11.5811 5.97578 11.6089C5.98729 11.6367 6.00418 11.6619 6.02545 11.6832C6.04674 11.7045 6.072 11.7214 6.0998 11.7329C6.12761 11.7444 6.15741 11.7503 6.1875 11.7503H15.8125C15.8733 11.7503 15.9316 11.7262 15.9745 11.6832C16.0175 11.6402 16.0417 11.5819 16.0417 11.5212V1.89616C16.0417 1.83538 16.0175 1.77709 15.9745 1.73411C15.9316 1.69114 15.8733 1.66699 15.8125 1.66699H6.1875ZM11.4583 14.5003C11.4583 14.318 11.5308 14.1431 11.6597 14.0142C11.7886 13.8853 11.9635 13.8128 12.1458 13.8128C12.3282 13.8128 12.503 13.8853 12.632 14.0142C12.7609 14.1431 12.8333 14.318 12.8333 14.5003V16.1045C12.8333 16.5299 12.6643 16.938 12.3635 17.2388C12.0626 17.5396 11.6546 17.7087 11.2292 17.7087H1.60417C1.17872 17.7087 0.770689 17.5396 0.46985 17.2388C0.16901 16.938 5.69801e-09 16.5299 0 16.1045V6.47949C0 6.05404 0.16901 5.64601 0.46985 5.34518C0.770689 5.04434 1.17872 4.87533 1.60417 4.87533H3.20833C3.39067 4.87533 3.56554 4.94776 3.69447 5.07669C3.8234 5.20562 3.89583 5.38049 3.89583 5.56283C3.89583 5.74516 3.8234 5.92003 3.69447 6.04896C3.56554 6.17789 3.39067 6.25033 3.20833 6.25033H1.60417C1.54339 6.25033 1.4851 6.27447 1.44212 6.31745C1.39914 6.36042 1.375 6.41871 1.375 6.47949V16.1045C1.375 16.1653 1.39914 16.2236 1.44212 16.2665C1.4851 16.3095 1.54339 16.3337 1.60417 16.3337H11.2292C11.2899 16.3337 11.3482 16.3095 11.3912 16.2665C11.4342 16.2236 11.4583 16.1653 11.4583 16.1045V14.5003Z" fill="white"/>
</svg>
