<svg width="620" height="695" viewBox="0 0 620 695" fill="none" xmlns="http://www.w3.org/2000/svg">
<ellipse cx="346.748" cy="662.486" rx="258" ry="32.5" fill="#363737"/>
<path d="M253.768 647.161C252.519 646.666 249.242 644.473 246.132 639.665L245.566 635.705L272.012 633.445L279.86 645.961C319.104 651.976 324.689 665.152 324.547 672.412C324.547 672.412 251.598 660.266 230.997 661.018C235.759 655.456 246.98 644.897 253.768 647.161Z" fill="#E68D6F"/>
<path fill-rule="evenodd" clip-rule="evenodd" d="M243.287 633.893L273.058 631.348L281.07 644.126C300.296 647.166 311.641 651.97 318.211 657.149C324.983 662.487 326.63 668.19 326.546 672.451L326.501 674.765L324.218 674.385L324.547 672.412C324.218 674.385 324.219 674.385 324.218 674.385L324.01 674.35C323.872 674.328 323.666 674.294 323.397 674.249C322.859 674.161 322.067 674.031 321.051 673.866C319.019 673.536 316.092 673.065 312.516 672.502C305.361 671.376 295.61 669.883 285.217 668.413C264.336 665.461 241.153 662.649 231.07 663.017L226.511 663.183L229.478 659.717C231.931 656.852 236.043 652.701 240.456 649.531C242.661 647.947 245.015 646.554 247.331 645.71C247.607 645.609 247.886 645.515 248.167 645.429C246.963 644.205 245.686 642.659 244.452 640.751L244.214 640.383L243.287 633.893ZM322.354 670.025C321.839 667.248 320.168 663.785 315.735 660.291C309.84 655.644 299.024 650.922 279.557 647.939L278.652 647.8L270.966 635.542L247.845 637.518L248.049 638.94C250.917 643.234 253.758 645.006 254.505 645.302L253.135 649.058C252.039 648.693 250.567 648.788 248.701 649.468C246.855 650.141 244.833 651.312 242.79 652.779C240.18 654.654 237.655 656.926 235.568 659.026C247.431 659.374 267.687 661.895 285.777 664.453C296.197 665.926 305.97 667.422 313.137 668.55C316.721 669.114 319.655 669.586 321.693 669.918C321.925 669.955 322.145 669.991 322.354 670.025Z" fill="black"/>
<path d="M372.121 644.088C370.937 643.729 367.761 641.969 364.535 637.794L363.712 634.202L387.815 630.093L395.982 640.98C432.47 643.483 438.61 655.149 439.038 661.824C439.038 661.824 371.137 656.285 352.284 658.56C356.228 653.087 365.716 642.532 372.121 644.088Z" fill="#E68D6F"/>
<path fill-rule="evenodd" clip-rule="evenodd" d="M361.289 632.587L388.682 627.918L397.034 639.051C414.887 640.368 425.682 643.906 432.135 648.17C438.803 652.576 440.779 657.729 441.033 661.697L441.182 664.007L438.875 663.819L439.038 661.825C438.875 663.819 438.875 663.819 438.875 663.819L438.872 663.818L438.681 663.803C438.553 663.793 438.362 663.777 438.111 663.757C437.611 663.717 436.874 663.659 435.928 663.586C434.038 663.439 431.315 663.232 427.989 662.99C421.335 662.507 412.27 661.886 402.617 661.337C383.216 660.232 361.734 659.435 352.524 660.546L347.994 661.093L350.662 657.391C352.698 654.565 356.161 650.428 359.981 647.168C361.89 645.539 363.956 644.07 366.035 643.109C366.205 643.03 366.377 642.954 366.551 642.881C365.397 641.868 364.169 640.592 362.952 639.017L362.684 638.67L361.289 632.587ZM436.627 659.628C435.908 657.196 434.11 654.27 429.929 651.507C424.193 647.716 413.932 644.217 395.845 642.976L394.931 642.914L386.948 632.271L366.134 635.819L366.384 636.912C369.325 640.594 372.032 641.972 372.7 642.174L371.649 646.032C370.664 645.793 369.358 645.979 367.713 646.739C366.089 647.491 364.335 648.711 362.578 650.211C360.434 652.04 358.386 654.198 356.682 656.204C367.663 655.646 386.232 656.397 402.845 657.343C412.524 657.894 421.611 658.516 428.278 659.001C431.612 659.243 434.342 659.45 436.238 659.598C436.372 659.608 436.502 659.618 436.627 659.628Z" fill="black"/>
<path d="M584.488 322.506C583.148 321.536 553.388 299.966 577.858 292.976C584.908 290.966 590.908 292.976 595.878 296.916C608.548 306.946 614.578 329.456 614.578 329.456C614.578 329.456 625.538 380.236 603.128 403.836C603.128 403.836 597.168 455.336 560.938 478.456L560.608 478.366C575.038 422.086 568.388 370.346 566.478 358.146C566.318 357.176 566.198 356.456 566.118 356.006C564.078 351.936 557.098 330.196 556.638 325.156C556.388 322.416 560.778 325.096 565.018 328.276C568.358 331.926 572.208 334.256 572.588 334.476C572.198 334.126 568.668 331.016 565.018 328.276C562.828 325.886 560.858 322.926 560.218 319.616C558.588 311.206 583.258 321.966 584.488 322.506Z" fill="#C7D1D8"/>
<mask id="mask0_919_103" style="mask-type:luminance" maskUnits="userSpaceOnUse" x="556" y="292" width="62" height="187">
<path d="M584.488 322.506C583.148 321.536 553.388 299.966 577.858 292.976C584.908 290.966 590.908 292.976 595.878 296.916C608.548 306.946 614.578 329.456 614.578 329.456C614.578 329.456 625.538 380.236 603.128 403.836C603.128 403.836 597.168 455.336 560.938 478.456L560.608 478.366C575.038 422.086 568.388 370.346 566.478 358.146C566.318 357.176 566.198 356.456 566.118 356.006C564.078 351.936 557.098 330.196 556.638 325.156C556.388 322.416 560.778 325.096 565.018 328.276C568.358 331.926 572.208 334.256 572.588 334.476C572.198 334.126 568.668 331.016 565.018 328.276C562.828 325.886 560.858 322.926 560.218 319.616C558.588 311.206 583.258 321.966 584.488 322.506Z" fill="white"/>
</mask>
<g mask="url(#mask0_919_103)">
<path d="M566.018 358.216C566.018 358.216 576.278 409.386 643.508 373.626L624.908 471.896L556.618 536.566L524.208 468.686L566.008 358.216" fill="#8F9EAA"/>
</g>
<path d="M557.578 170.916C604.548 190.446 605.388 268.996 596.368 296.316L595.878 296.916C590.908 292.976 584.908 290.966 577.858 292.976C553.388 299.966 583.148 321.536 584.488 322.506C583.258 321.966 558.588 311.206 560.218 319.616C560.858 322.926 562.828 325.886 565.018 328.276C560.778 325.096 556.388 322.416 556.638 325.156C557.098 330.196 564.078 351.936 566.118 356.006C566.198 356.456 566.318 357.176 566.478 358.146L566.018 358.216C543.768 404.946 512.618 436.096 512.618 436.096C466.208 428.786 423.128 398.356 423.128 398.356L422.408 397.796C440.538 374.566 451.078 349.646 448.878 347.806C444.708 344.336 430.608 355.746 429.838 356.366C430.358 355.856 438.298 347.886 435.768 343.276C433.208 338.636 414.998 346.906 414.098 347.316C415.018 346.606 436.388 330.066 432.188 325.636C427.898 321.106 401.438 339.466 366.388 340.656C354.018 341.076 339.678 338.286 326.308 334.506C326.308 334.506 285.328 255.866 345.728 208.176C353.358 202.156 360.988 198.206 368.488 195.906C388.308 189.826 407.278 195.226 423.158 204.216C436.678 211.876 447.958 222.146 455.628 230.166C455.628 230.166 470.018 163.676 537.088 166.536C544.728 166.866 551.538 168.396 557.578 170.916Z" fill="#FC7F75"/>
<mask id="mask1_919_103" style="mask-type:luminance" maskUnits="userSpaceOnUse" x="312" y="166" width="289" height="271">
<path d="M557.578 170.916C604.548 190.446 605.388 268.996 596.368 296.316L595.878 296.916C590.908 292.976 584.908 290.966 577.858 292.976C553.388 299.966 583.148 321.536 584.488 322.506C583.258 321.966 558.588 311.206 560.218 319.616C560.858 322.926 562.828 325.886 565.018 328.276C560.778 325.096 556.388 322.416 556.638 325.156C557.098 330.196 564.078 351.936 566.118 356.006C566.198 356.456 566.318 357.176 566.478 358.146L566.018 358.216C543.768 404.946 512.618 436.096 512.618 436.096C466.208 428.786 423.128 398.356 423.128 398.356L422.408 397.796C440.538 374.566 451.078 349.646 448.878 347.806C444.708 344.336 430.608 355.746 429.838 356.366C430.358 355.856 438.298 347.886 435.768 343.276C433.208 338.636 414.998 346.906 414.098 347.316C415.018 346.606 436.388 330.066 432.188 325.636C427.898 321.106 401.438 339.466 366.388 340.656C354.018 341.076 339.678 338.286 326.308 334.506C326.308 334.506 285.328 255.866 345.728 208.176C353.358 202.156 360.988 198.206 368.488 195.906C388.308 189.826 407.278 195.226 423.158 204.216C436.678 211.876 447.958 222.146 455.628 230.166C455.628 230.166 470.018 163.676 537.088 166.536C544.728 166.866 551.538 168.396 557.578 170.916Z" fill="white"/>
</mask>
<g mask="url(#mask1_919_103)">
<path d="M669.768 292.833C552.812 320.084 507.721 227.738 499.794 178.159L566.332 134.65L659.044 188.727C711.35 212.074 786.724 265.582 669.768 292.833Z" fill="#FDAB93"/>
<path d="M345.728 208.176C345.728 208.176 351.938 376.376 572.588 442.706C793.238 509.036 440.778 499.536 440.778 499.536L201.638 478.606L243.338 278.266L298.798 219.936L345.718 208.176" fill="#FA7166"/>
</g>
<path d="M572.588 334.476C572.208 334.256 568.358 331.926 565.018 328.276C568.668 331.016 572.198 334.126 572.588 334.476Z" fill="#C7D1D8"/>
<path d="M561.128 360.706C563.038 372.906 569.688 424.646 555.258 480.926C544.328 523.546 521.318 568.766 474.998 601.416C474.998 601.416 429.068 650.046 282.528 642.736C282.528 642.736 206.228 634.156 180.168 618.576L158.078 608.986C158.078 608.986 113.128 628.656 93.7984 614.876L93.6284 614.516C117.208 603.106 142.298 589.366 149.088 583.136V582.166C186.738 581.946 250.418 573.276 297.358 523.966H297.368C297.368 523.966 356.038 505.576 373.678 438.346L373.088 436.876C390.038 430.086 405.178 415.586 417.058 400.356L417.778 400.916C417.778 400.916 460.858 431.346 507.268 438.656C507.268 438.656 538.418 407.506 560.668 360.776L561.128 360.706Z" fill="#FDEEDD"/>
<mask id="mask2_919_103" style="mask-type:luminance" maskUnits="userSpaceOnUse" x="93" y="360" width="472" height="284">
<path d="M561.128 360.706C563.038 372.906 569.688 424.646 555.258 480.926C544.328 523.546 521.318 568.766 474.998 601.416C474.998 601.416 429.068 650.046 282.528 642.736C282.528 642.736 206.228 634.156 180.168 618.576L158.078 608.986C158.078 608.986 113.128 628.656 93.7984 614.876L93.6284 614.516C117.208 603.106 142.298 589.366 149.088 583.136V582.166C186.738 581.946 250.418 573.276 297.358 523.966H297.368C297.368 523.966 356.038 505.576 373.678 438.346L373.088 436.876C390.038 430.086 405.178 415.586 417.058 400.356L417.778 400.916C417.778 400.916 460.858 431.346 507.268 438.656C507.268 438.656 538.418 407.506 560.668 360.776L561.128 360.706Z" fill="white"/>
</mask>
<g mask="url(#mask2_919_103)">
<path d="M234.638 539.126C234.638 539.126 287.588 642.276 549.178 593.146L509.418 812.946L57.4684 839.646L-43.6917 604.456L234.638 539.116V539.126Z" fill="#FAD8BE"/>
</g>
<path d="M122.078 576.096C109.438 581.506 96.5082 586.486 84.1182 590.586C67.0882 596.226 51.0982 600.216 38.3382 601.396C28.0282 602.346 21.1582 601.916 16.9282 600.366C1.32823 594.626 21.4982 573.516 36.7482 549.266C56.1382 518.436 78.3882 463.196 78.3882 463.196C109.858 313.006 175.658 256.976 175.658 256.976C174.228 236.476 193.068 187.116 193.068 187.116L193.158 185.406C186.248 184.666 194.618 175.316 194.618 175.316L194.228 173.486C192.928 173.776 191.508 173.956 189.968 174.006C178.878 174.366 197.598 159.706 197.598 159.706C186.628 116.316 225.248 59.5761 225.248 59.5761L219.208 62.7461C219.208 62.7461 218.258 41.6161 244.328 44.4761C244.328 44.4761 237.328 21.2661 256.558 23.8061C256.558 23.8061 251.318 35.2561 252.588 37.4761C252.588 37.4761 321.808 -5.99392 377.838 3.30608C433.858 12.6061 502.518 64.1061 511.108 127.046C511.108 127.046 523.028 128.946 527.798 134.666L522.308 137.296C522.308 137.296 551.478 144.106 557.578 170.916C551.538 168.396 544.728 166.866 537.088 166.536C470.018 163.676 455.628 230.166 455.628 230.166C447.958 222.146 436.678 211.876 423.158 204.216L426.108 203.686C426.828 203.336 430.878 194.036 432.548 186.886C434.218 179.726 440.778 171.986 440.778 171.986L438.268 172.336C427.188 171.146 420.748 155.176 405.728 153.626C392.058 152.216 376.328 173.006 373.598 176.766C371.928 177.246 364.728 176.906 362.098 182.826C359.238 189.266 368.178 194.626 368.178 194.626L368.488 195.906C360.988 198.206 353.358 202.156 345.728 208.176C285.328 255.866 326.308 334.496 326.308 334.496C339.678 338.286 354.018 341.076 366.388 340.656C401.438 339.466 427.898 321.106 432.188 325.636C436.388 330.066 415.018 346.606 414.098 347.316C414.998 346.906 433.208 338.636 435.768 343.276C438.298 347.886 430.358 355.856 429.838 356.366C430.608 355.746 444.708 344.336 448.878 347.806C451.078 349.646 440.538 374.566 422.408 397.796C410.528 413.026 395.388 427.526 378.438 434.316L379.028 435.786C361.388 503.016 302.718 521.416 302.718 521.416H302.708C255.768 570.716 192.088 579.386 154.428 579.606C135.198 579.726 122.738 577.636 122.738 577.636L122.078 576.096Z" fill="#C7D2D8"/>
<mask id="mask3_919_103" style="mask-type:luminance" maskUnits="userSpaceOnUse" x="11" y="1" width="548" height="601">
<path d="M122.529 576.08C109.889 581.49 96.9592 586.47 84.5692 590.57C67.5392 596.21 51.5491 600.2 38.7892 601.38C28.4791 602.33 21.6092 601.9 17.3792 600.35C1.77915 594.61 21.9492 573.5 37.1992 549.25C56.5892 518.42 78.8392 463.18 78.8392 463.18C110.309 312.99 176.109 256.96 176.109 256.96C174.679 236.46 193.519 187.1 193.519 187.1L193.609 185.39C186.699 184.65 195.069 175.3 195.069 175.3L194.679 173.47C193.379 173.76 191.959 173.94 190.419 173.99C179.329 174.35 198.049 159.69 198.049 159.69C187.079 116.3 225.699 59.5605 225.699 59.5605L219.659 62.7305C219.659 62.7305 218.709 41.6005 244.779 44.4605C244.779 44.4605 237.779 21.2505 257.009 23.7905C257.009 23.7905 251.769 35.2405 253.039 37.4605C253.039 37.4605 322.259 -6.00955 378.289 3.29045C434.309 12.5905 502.969 64.0905 511.559 127.03C511.559 127.03 523.479 128.93 528.249 134.65L522.759 137.28C522.759 137.28 551.929 144.09 558.029 170.9C551.989 168.38 545.179 166.85 537.539 166.52C470.469 163.66 456.079 230.15 456.079 230.15C448.409 222.13 437.129 211.86 423.609 204.2L426.559 203.67C427.279 203.32 431.329 194.02 432.999 186.87C434.669 179.71 441.229 171.97 441.229 171.97L438.719 172.32C427.639 171.13 421.199 155.16 406.179 153.61C392.509 152.2 376.779 172.99 374.049 176.75C372.379 177.23 365.179 176.89 362.549 182.81C359.689 189.25 368.629 194.61 368.629 194.61L368.939 195.89C361.439 198.19 353.809 202.14 346.179 208.16C285.779 255.85 326.759 334.48 326.759 334.48C340.129 338.27 354.469 341.06 366.839 340.64C401.889 339.45 428.349 321.09 432.639 325.62C436.839 330.05 415.469 346.59 414.549 347.3C415.449 346.89 433.659 338.62 436.219 343.26C438.749 347.87 430.809 355.84 430.289 356.35C431.059 355.73 445.159 344.32 449.329 347.79C451.529 349.63 440.989 374.55 422.859 397.78C410.979 413.01 395.839 427.51 378.889 434.3L379.479 435.77C361.839 503 303.169 521.4 303.169 521.4H303.159C256.219 570.7 192.539 579.37 154.879 579.59C135.649 579.71 123.189 577.62 123.189 577.62L122.529 576.08Z" fill="white"/>
</mask>
<g mask="url(#mask3_919_103)">
<path d="M332.748 436.486C332.748 436.486 375.748 439.986 392.748 436.486C395.915 440.986 397.048 450.286 376.248 451.486C355.448 452.686 338.582 441.986 332.748 436.486Z" fill="#8696A0"/>
<path d="M369.248 9.48584C420.248 6.48584 477.748 62.4858 502.248 101.986L555.748 118.986L564.748 97.4858L573.248 14.4856C556.915 0.652359 522.548 -27.2142 515.748 -28.0142C507.248 -29.0142 281.748 -59.0142 275.748 -59.0142C269.748 -59.0142 126.248 21.9858 120.248 26.9858C115.448 30.9858 126.915 99.3192 133.248 132.986C150.415 146.653 188.948 162.986 205.748 118.986C226.748 63.9858 244.686 51.553 270.748 36.4858C280.748 30.7046 313.835 12.7454 369.248 9.48584Z" fill="#EAEAEA"/>
<path d="M510.213 201.59C469.413 222.79 453.754 193.519 457.213 169.59C460.042 150.025 480.513 140.89 499.713 142.09C523.713 143.59 561.213 175.09 510.213 201.59Z" fill="#EDBEAA"/>
<path d="M51.7883 427.796C51.7883 427.796 78.1183 471.126 126.608 454.256C126.608 454.256 144.938 507.666 215.888 489.976C215.888 489.976 241.688 512.176 270.818 502.646C270.818 502.646 295.098 523.836 308.378 509.526L302.138 576.096L154.438 696.906L-51.4317 676.876L-61.2517 580.576L51.7883 427.796Z" fill="#8696A0"/>
</g>
<path d="M373.598 176.766C376.328 173.006 392.058 152.216 405.728 153.626C420.748 155.176 427.188 171.146 438.268 172.336L440.778 171.986C440.778 171.986 434.218 179.726 432.548 186.886C430.878 194.036 426.828 203.336 426.108 203.686L423.158 204.216C407.278 195.226 388.308 189.826 368.488 195.906L368.178 194.626C368.178 194.626 359.238 189.266 362.098 182.826C364.728 176.906 371.928 177.246 373.598 176.766Z" fill="#DEAC95"/>
<path d="M154.428 579.606V580.576C147.648 586.806 122.558 600.546 98.9784 611.956C81.9784 620.196 65.7584 627.226 57.7684 629.376C38.6984 634.496 47.1584 619.716 47.1584 619.716L46.6884 618.926C57.2784 612.686 69.6884 603.576 84.1184 590.596C96.5084 586.486 109.438 581.506 122.078 576.096L122.738 577.636C122.738 577.636 135.198 579.726 154.428 579.606Z" fill="#33313C"/>
<path d="M84.1184 590.585C69.6884 603.575 57.2784 612.685 46.6884 618.925C27.0384 630.505 13.6384 632.235 5.27844 630.485C-7.59156 627.785 16.4084 601.895 16.4084 601.895L16.9284 600.365C21.1584 601.915 28.0284 602.345 38.3384 601.395C51.0984 600.215 67.0884 596.225 84.1184 590.585Z" fill="#6B7B87"/>
<path d="M189.598 176.016C186.928 176.016 185.278 175.166 184.668 173.486C183.298 169.726 189.488 163.646 195.358 158.936C187.188 123.516 209.928 80.8056 219.568 64.8256L217.358 65.9856L217.218 62.8456C217.198 62.4757 216.888 53.8056 223.338 47.7556C227.648 43.7156 233.838 41.8756 241.758 42.2757C240.948 38.1157 240.148 30.2857 244.208 25.5157C246.918 22.3257 251.168 21.0857 256.828 21.8457L259.508 22.1957L258.378 24.6557C256.858 27.9757 255.578 31.3856 254.898 33.7656C269.608 25.1256 328.418 -6.90435 378.168 1.34565C435.938 10.9356 503.458 62.9257 512.888 125.356C516.378 126.086 525.148 128.366 529.338 133.396L530.988 135.366L527.748 136.916C536.658 140.216 554.738 149.386 559.538 170.476C559.598 170.706 559.658 170.986 559.718 171.266C559.938 172.346 559.238 173.406 558.158 173.626C557.068 173.846 556.018 173.146 555.798 172.066C555.758 171.846 555.698 171.626 555.648 171.406C549.898 146.126 522.138 139.316 521.858 139.256L516.338 137.956L524.308 134.136C519.328 130.436 510.898 129.046 510.808 129.026L509.348 128.796L509.148 127.326C505.258 98.8456 488.148 70.1656 460.968 46.5856C436.118 25.0256 405.708 9.96565 377.528 5.29565C349.058 0.57565 316.948 10.0057 295.028 18.7557C271.148 28.2857 253.838 39.0856 253.668 39.1956L251.908 40.3056L250.868 38.4956C249.818 36.6656 250.738 32.3456 253.588 25.6457C250.748 25.6857 248.628 26.5156 247.268 28.1157C243.768 32.2257 245.358 40.9256 246.268 43.9256L247.138 46.8256L244.128 46.4956C236.098 45.6156 230.038 47.0156 226.118 50.6656C223.248 53.3356 222.058 56.7757 221.568 59.2856L231.418 54.1157L226.918 60.7257C226.538 61.2857 188.938 117.236 199.558 159.236L199.878 160.496L198.858 161.296C193.698 165.346 189.108 170.096 188.538 171.936C188.788 171.986 189.218 172.046 189.928 172.016C191.308 171.976 192.608 171.816 193.818 171.546C200.928 170.026 204.088 165.466 204.218 165.276C204.838 164.366 206.078 164.126 206.988 164.736C207.898 165.346 208.158 166.576 207.548 167.496C207.378 167.746 203.428 173.586 194.668 175.456C193.238 175.776 191.678 175.966 190.058 176.016C189.908 176.016 189.768 176.016 189.628 176.016H189.598Z" fill="black"/>
<path d="M194.128 187.456C193.698 187.456 193.288 187.436 192.908 187.386C190.208 187.096 189.128 185.716 188.698 184.606C187.278 180.906 191.718 175.536 193.118 173.976C193.858 173.156 195.118 173.086 195.938 173.816C196.758 174.556 196.828 175.816 196.098 176.636C193.688 179.336 192.128 182.406 192.428 183.166C192.428 183.166 192.588 183.326 193.358 183.406C193.968 183.476 194.738 183.456 195.668 183.336C205.908 182.066 211.758 167.786 211.818 167.646C212.228 166.626 213.398 166.126 214.418 166.536C215.438 166.946 215.938 168.106 215.528 169.136C215.258 169.816 208.748 185.746 196.158 187.306C195.418 187.396 194.738 187.446 194.118 187.446L194.128 187.456Z" fill="black"/>
<path d="M28.5884 603.396C23.3884 603.396 19.3684 602.856 16.4084 601.776C13.1184 600.566 11.0384 598.616 10.1984 595.986C7.90839 588.716 15.5084 577.746 25.1484 563.856C28.5784 558.906 32.1284 553.786 35.4784 548.466C54.1384 518.796 75.7584 465.676 76.9484 462.756C93.2484 385.026 118.898 332.966 137.548 302.966C155.968 273.346 171.008 259.116 174.118 256.326C173.158 235.346 190.898 188.576 191.668 186.576C191.958 185.806 192.828 185.416 193.608 185.706C194.378 185.996 194.768 186.866 194.478 187.646C194.288 188.136 175.768 236.936 177.168 256.866L177.218 257.616L176.638 258.106C176.478 258.246 160.048 272.436 140.008 304.696C121.508 334.486 96.0484 386.216 79.8584 463.486L79.7784 463.736C79.5584 464.286 57.2584 519.456 38.0184 550.046C34.6384 555.416 31.0684 560.566 27.6184 565.546C19.1884 577.716 11.2184 589.206 13.0684 595.066C13.6084 596.786 15.0484 598.056 17.4484 598.946C21.5784 600.456 28.5684 600.776 38.1984 599.886C50.1884 598.776 65.4784 595.166 83.6484 589.146C95.6084 585.186 108.338 580.326 121.488 574.706C158.228 558.976 190.578 540.566 202.008 528.896C202.588 528.306 203.538 528.296 204.128 528.876C204.718 529.456 204.728 530.406 204.148 530.996C192.478 542.926 159.728 561.606 122.668 577.466C109.438 583.126 96.6284 588.016 84.5884 591.996C66.2084 598.086 50.6884 601.746 38.4784 602.876C34.8084 603.216 31.5184 603.386 28.5984 603.386L28.5884 603.396Z" fill="black"/>
<path d="M11.2182 632.566C8.79823 632.566 6.72823 632.326 4.96823 631.956C1.88823 631.306 0.718231 629.526 0.278231 628.146C-2.27177 620.146 13.4982 602.826 15.3082 600.876C15.8682 600.266 16.8182 600.236 17.4282 600.796C18.0382 601.356 18.0682 602.306 17.5082 602.916C11.1482 609.786 1.61823 622.456 3.13823 627.236C3.32823 627.816 3.77823 628.636 5.58823 629.016C12.6682 630.496 25.4082 629.726 45.9282 617.636C57.2582 610.966 69.7682 601.486 83.1182 589.486C83.7382 588.926 84.6882 588.986 85.2382 589.596C85.7882 590.216 85.7382 591.156 85.1282 591.716C71.6282 603.856 58.9582 613.446 47.4582 620.226C31.0482 629.896 19.2582 632.576 11.2282 632.576L11.2182 632.566Z" fill="black"/>
<path d="M50.9882 631.956C48.1382 631.956 46.1382 631.176 44.9282 629.606C42.0482 625.876 45.4582 619.666 45.8582 618.976C46.2682 618.256 47.1882 618.016 47.8982 618.416C48.6182 618.826 48.8682 619.746 48.4582 620.456C47.7082 621.776 45.8882 625.936 47.3082 627.766C47.9882 628.646 50.2082 629.846 57.3782 627.916C64.7082 625.946 80.0182 619.466 98.3182 610.596C124.688 597.836 147.348 585.036 153.418 579.456C154.028 578.896 154.978 578.936 155.538 579.546C156.098 580.156 156.058 581.106 155.448 581.666C148.138 588.376 121.388 602.756 99.6282 613.286C81.1582 622.236 65.6582 628.786 58.1582 630.806C55.3482 631.556 52.9682 631.936 50.9882 631.936V631.956Z" fill="black"/>
<path d="M152.848 581.116C134.598 581.116 122.608 579.146 122.478 579.116C121.658 578.976 121.108 578.206 121.248 577.386C121.388 576.566 122.168 576.015 122.978 576.155C123.098 576.175 135.558 578.205 154.408 578.105C189.048 577.905 254.238 570.136 301.608 520.376C302.798 519.146 303.878 517.975 304.938 516.795C305.488 516.175 306.438 516.126 307.058 516.676C307.678 517.226 307.728 518.175 307.178 518.795C306.098 520.005 304.988 521.196 303.778 522.446C255.648 573.006 189.548 580.895 154.428 581.105C153.898 581.105 153.368 581.105 152.848 581.105V581.116Z" fill="black"/>
<path d="M302.718 522.916C302.078 522.916 301.488 522.506 301.288 521.866C301.038 521.076 301.478 520.236 302.268 519.986C302.408 519.936 316.958 515.276 333.438 502.546C348.608 490.826 368.588 469.666 377.578 435.406C377.788 434.606 378.608 434.126 379.408 434.336C380.208 434.546 380.688 435.366 380.478 436.166C371.258 471.306 350.748 492.996 335.178 504.996C318.288 518.016 303.778 522.656 303.168 522.846C303.018 522.896 302.868 522.916 302.718 522.916Z" fill="black"/>
<path d="M204.258 330.476C204.028 330.476 203.798 330.426 203.588 330.316C202.848 329.946 202.548 329.046 202.918 328.306C203.268 327.596 206.508 321.376 210.988 320.806C211.808 320.706 212.558 321.286 212.668 322.106C212.768 322.926 212.188 323.676 211.368 323.786C208.908 324.096 206.318 328.226 205.598 329.646C205.338 330.166 204.808 330.476 204.258 330.476Z" fill="black"/>
<path d="M286.508 316.406C286.208 316.406 285.908 316.316 285.648 316.136C270.938 305.746 255.238 302.566 238.998 306.676C226.818 309.756 218.868 316.016 218.788 316.076C218.148 316.596 217.198 316.486 216.678 315.836C216.158 315.186 216.268 314.246 216.918 313.726C217.248 313.456 250.418 287.576 287.378 313.676C288.058 314.156 288.218 315.086 287.738 315.766C287.448 316.176 286.978 316.396 286.508 316.396V316.406Z" fill="black"/>
<path d="M358.588 439.836C357.218 439.836 355.848 439.776 354.498 439.666C353.668 439.596 353.058 438.866 353.128 438.046C353.198 437.216 353.908 436.596 354.748 436.676C362.278 437.316 370.058 436.056 377.868 432.926C396.168 425.596 411.538 409.276 421.218 396.876C438.478 374.766 447.898 352.446 447.678 348.806C445.538 347.766 438.298 351.476 430.788 357.516C430.198 358.006 429.308 357.986 428.758 357.436C428.178 356.846 428.158 355.916 428.748 355.326L428.898 355.186C433.678 351.336 445.238 342.816 449.838 346.646C451.748 348.236 449.988 354.566 444.608 365.436C441.418 371.886 434.448 384.796 423.588 398.706C413.688 411.396 397.918 428.116 378.988 435.696C372.138 438.436 365.288 439.816 358.588 439.816V439.836Z" fill="black"/>
<path d="M429.838 357.866C429.448 357.866 429.058 357.716 428.768 357.416C428.188 356.826 428.198 355.876 428.788 355.296C431.768 352.366 435.948 346.716 434.458 343.996C433.548 342.336 425.438 343.816 414.808 348.646C414.218 348.976 413.448 348.876 412.958 348.346C412.398 347.736 412.448 346.786 413.058 346.226C413.158 346.136 413.308 346.036 413.428 345.976C419.598 343.166 434.158 337.256 437.078 342.556C440.128 348.126 431.838 356.506 430.888 357.436C430.598 357.726 430.218 357.866 429.838 357.866Z" fill="black"/>
<path d="M414.098 348.816C413.648 348.816 413.208 348.616 412.908 348.236C412.398 347.576 412.528 346.636 413.178 346.136C420.268 340.666 430.928 331.116 431.228 327.216C431.258 326.836 431.148 326.726 431.098 326.676C429.998 325.506 422.918 328.126 416.678 330.446C404.888 334.836 387.068 341.456 366.438 342.156C355.418 342.526 341.788 340.446 325.898 335.946C301.558 329.046 280.118 318.746 279.908 318.646C279.158 318.286 278.848 317.386 279.208 316.646C279.568 315.896 280.468 315.586 281.208 315.946C281.418 316.046 302.628 326.246 326.718 333.066C342.308 337.476 355.628 339.526 366.338 339.156C386.478 338.476 404.028 331.946 415.638 327.626C425.418 323.996 430.808 321.986 433.278 324.606C433.978 325.346 434.308 326.326 434.218 327.446C433.728 333.756 418.138 346.096 415.008 348.506C414.738 348.716 414.418 348.816 414.088 348.816H414.098Z" fill="black"/>
<path d="M231.288 415.666C231.178 415.666 231.058 415.656 230.938 415.626C227.918 414.916 225.688 413.246 224.298 410.666C220.488 403.596 224.618 392.046 224.788 391.556C225.068 390.776 225.928 390.376 226.708 390.656C227.488 390.936 227.888 391.796 227.608 392.576C227.568 392.686 223.758 403.356 226.938 409.236C227.918 411.046 229.448 412.176 231.628 412.696C232.438 412.886 232.928 413.696 232.738 414.506C232.578 415.196 231.958 415.656 231.278 415.656L231.288 415.666Z" fill="black"/>
<path d="M252.188 437.286C252.058 437.286 251.928 437.266 251.798 437.236C241.138 434.386 234.478 429.566 231.998 422.896C228.478 413.396 234.858 403.876 235.138 403.476C235.608 402.786 236.538 402.616 237.218 403.086C237.898 403.556 238.078 404.486 237.608 405.166C237.528 405.286 231.828 413.846 234.818 421.876C236.938 427.566 242.908 431.766 252.568 434.346C253.368 434.556 253.848 435.386 253.628 436.186C253.448 436.856 252.838 437.296 252.178 437.296L252.188 437.286Z" fill="black"/>
<path d="M266.408 444.206C262.288 444.206 258.918 443.036 256.318 440.716C247.238 432.586 251.418 413.386 251.598 412.576C251.778 411.766 252.588 411.266 253.388 411.436C254.198 411.616 254.708 412.416 254.528 413.226C254.488 413.406 250.548 431.526 258.318 438.476C262.048 441.816 268.088 442.086 276.258 439.286C277.038 439.016 277.898 439.436 278.168 440.216C278.438 440.996 278.018 441.856 277.238 442.126C273.198 443.516 269.588 444.206 266.408 444.206Z" fill="black"/>
<path d="M313.828 457.416C305.258 457.416 297.898 450.816 295.598 448.516C290.638 450.386 286.408 450.246 282.988 448.096C275.908 443.646 275.278 432.206 275.248 431.726C275.208 430.896 275.848 430.196 276.668 430.156C277.518 430.116 278.198 430.756 278.238 431.576C278.238 431.676 278.828 441.946 284.588 445.556C287.348 447.286 290.978 447.226 295.388 445.366L296.368 444.956L297.078 445.746C297.168 445.846 305.928 455.396 315.338 454.326C320.218 453.766 324.538 450.386 328.168 444.286L315.718 434.916C315.058 434.416 314.928 433.476 315.418 432.816C315.918 432.156 316.858 432.026 317.518 432.516L332.068 443.476L331.438 444.616C327.168 452.326 321.868 456.596 315.658 457.306C315.038 457.376 314.418 457.416 313.808 457.416H313.828Z" fill="black"/>
<path d="M81.5685 568.716C74.5685 568.716 69.3384 566.846 65.9184 563.116C54.2684 550.386 68.3284 521.236 68.9384 519.996C69.3084 519.246 70.2084 518.946 70.9484 519.306C71.6884 519.666 71.9984 520.566 71.6384 521.316C71.4984 521.596 57.8584 549.866 68.1384 561.096C74.4884 568.036 88.8284 567.276 110.748 558.836C183.948 530.686 213.118 505.016 213.408 504.756C214.028 504.196 214.978 504.256 215.528 504.876C216.078 505.496 216.028 506.436 215.408 506.996C215.118 507.256 185.618 533.256 111.828 561.636C99.5584 566.356 89.4484 568.716 81.5784 568.716H81.5685Z" fill="black"/>
<path d="M183.498 493.296C171.278 493.296 160.518 490.576 151.328 485.146C134.698 475.326 128.378 459.706 126.618 454.266C117.208 458.976 97.7582 457.486 96.8782 457.416C96.0482 457.346 95.4382 456.626 95.4982 455.796C95.5682 454.966 96.3082 454.366 97.1182 454.416C97.3382 454.436 119.078 456.106 126.658 450.766L128.458 449.496L128.978 451.636C129.028 451.836 134.028 471.456 152.898 482.576C167.878 491.406 187.358 492.656 210.808 486.306C211.608 486.086 212.428 486.566 212.648 487.356C212.868 488.156 212.398 488.976 211.598 489.196C201.538 491.926 192.158 493.286 183.518 493.286L183.498 493.296Z" fill="black"/>
<path d="M256.498 505.106C252.118 505.106 247.328 504.746 242.108 504.026C227.128 501.956 218.298 497.236 215.878 489.986C212.378 479.506 223.698 468.106 224.188 467.626C224.778 467.046 225.728 467.046 226.308 467.626C226.888 468.216 226.888 469.166 226.308 469.746C226.198 469.846 215.818 480.326 218.738 489.036C220.768 495.106 228.778 499.146 242.528 501.046C264.888 504.136 275.268 499.726 280.028 495.496C285.078 491.006 285.028 485.866 285.028 485.646C285.008 484.816 285.668 484.136 286.488 484.116C286.498 484.116 286.518 484.116 286.528 484.116C287.338 484.116 287.998 484.756 288.028 485.566C288.028 485.836 288.168 492.226 282.108 497.676C276.608 502.626 268.028 505.116 256.518 505.116L256.498 505.106Z" fill="black"/>
<path d="M295.858 513.256C281.628 513.256 271.568 505.196 271.028 504.756C270.388 504.236 270.288 503.286 270.818 502.646C271.348 502.006 272.288 501.906 272.928 502.436C273.088 502.566 288.758 515.046 307.868 508.116C308.648 507.836 309.508 508.236 309.788 509.016C310.068 509.796 309.668 510.656 308.888 510.936C304.288 512.606 299.908 513.256 295.858 513.256Z" fill="black"/>
<path d="M326.308 336.496C325.588 336.496 324.888 336.106 324.528 335.416C324.098 334.596 314.078 315.126 311.368 289.426C307.768 255.186 319.218 226.546 344.478 206.606C351.948 200.706 359.828 196.466 367.888 193.996C385.638 188.546 404.568 191.406 424.128 202.476C438.148 210.416 449.768 221.166 457.058 228.786C463.988 236.046 467.948 241.416 468.118 241.646C468.768 242.536 468.578 243.786 467.688 244.446C466.798 245.096 465.548 244.906 464.888 244.016C464.848 243.966 460.898 238.606 454.168 231.556C447.068 224.136 435.748 213.666 422.158 205.966C403.588 195.456 385.718 192.716 369.058 197.826C361.468 200.156 354.038 204.166 346.948 209.756C322.478 229.076 311.838 255.746 315.338 289.016C317.958 313.966 327.958 333.386 328.058 333.576C328.568 334.556 328.188 335.766 327.208 336.276C326.908 336.426 326.598 336.506 326.288 336.506L326.308 336.496Z" fill="black"/>
<path d="M596.368 298.316C596.158 298.316 595.948 298.286 595.738 298.216C594.688 297.866 594.118 296.736 594.468 295.686C598.738 282.746 601.048 257.006 596.008 231.076C588.668 193.296 570.638 178.516 556.808 172.766C550.818 170.266 544.158 168.846 536.998 168.536C509.938 167.376 488.378 177.416 472.898 198.356C461.268 214.096 457.618 230.436 457.578 230.596C457.348 231.676 456.278 232.356 455.198 232.126C454.118 231.896 453.438 230.826 453.668 229.746C453.818 229.046 457.498 212.516 469.588 196.096C480.808 180.866 501.628 163.026 537.168 164.546C544.798 164.876 551.928 166.396 558.338 169.076C605.988 188.886 607.918 267.686 598.258 296.946C597.978 297.786 597.198 298.316 596.358 298.316H596.368Z" fill="black"/>
<path d="M560.938 480.456C560.278 480.456 559.628 480.126 559.248 479.536C558.658 478.606 558.928 477.366 559.858 476.776C594.848 454.446 601.078 404.116 601.138 403.606L601.218 402.946L601.678 402.466C612.798 390.756 615.198 371.706 615.258 357.796C615.318 342.546 612.648 330.006 612.628 329.886C612.588 329.766 606.638 307.986 594.638 298.496C589.578 294.486 584.118 293.286 578.408 294.916C573.498 296.316 570.778 298.356 570.318 300.976C569.228 307.166 579.878 316.716 585.668 320.906C586.558 321.556 586.758 322.806 586.118 323.696C585.468 324.586 584.218 324.796 583.328 324.146C582.138 323.286 577.958 320.166 574.018 316.086C568.168 310.036 565.598 304.716 566.388 300.286C567.138 296.036 570.818 292.936 577.328 291.076C584.348 289.076 591.018 290.516 597.138 295.366C610.178 305.686 616.278 328.006 616.528 328.956C617.008 331.156 627.338 380.476 605.048 404.746C604.198 411.156 596.838 457.956 562.028 480.156C561.698 480.366 561.318 480.466 560.958 480.466L560.938 480.456Z" fill="black"/>
<path d="M572.618 336.496C572.238 336.496 571.868 336.386 571.538 336.176C571.018 335.866 567.058 333.466 563.548 329.626C560.668 326.476 558.888 323.236 558.258 319.996C557.778 317.526 558.928 316.186 559.658 315.606C561.098 314.456 564.198 313.296 574.408 316.556C579.088 318.046 583.528 319.916 584.908 320.506H586.488V322.166C586.608 322.756 586.448 323.396 586.018 323.876C585.578 324.356 584.968 324.576 584.358 324.526H583.698L583.358 324.196C574.478 320.336 563.688 317.166 562.148 318.736C562.148 318.736 562.118 318.886 562.188 319.236C562.668 321.746 564.128 324.336 566.498 326.926C569.578 330.296 573.108 332.456 573.548 332.716L573.728 332.806L573.958 333.016C574.778 333.756 574.838 335.026 574.088 335.846C573.698 336.276 573.148 336.496 572.608 336.496H572.618Z" fill="black"/>
<path d="M566.318 358.406C565.668 358.406 565.048 358.096 564.668 357.506C564.588 357.376 564.498 357.226 564.408 357.046L564.358 356.946C562.218 352.666 555.138 330.696 554.658 325.346C554.488 323.466 555.568 322.656 556.038 322.386C557.618 321.496 559.878 321.916 566.228 326.686C570.168 329.646 573.898 332.966 573.938 332.996C574.758 333.736 574.828 334.996 574.088 335.816C573.348 336.636 572.088 336.706 571.268 335.966C571.238 335.936 567.638 332.736 563.828 329.876C561.418 328.066 559.868 327.106 558.898 326.596C560.268 333.466 566.198 351.686 567.918 355.106L567.958 355.186C567.988 355.246 568.018 355.296 568.038 355.346C568.598 356.286 568.318 357.516 567.388 358.096C567.058 358.306 566.678 358.406 566.318 358.406Z" fill="black"/>
<path d="M513.308 438.226L512.298 438.066C465.968 430.766 422.398 400.286 421.968 399.986C421.068 399.346 420.848 398.106 421.488 397.196C422.128 396.296 423.368 396.076 424.278 396.716C424.698 397.016 466.888 426.516 511.908 433.946C516.648 429.006 544.218 399.336 564.208 357.346C564.688 356.346 565.878 355.926 566.878 356.396C567.878 356.866 568.298 358.066 567.828 359.066C545.688 405.566 514.348 437.186 514.038 437.506L513.318 438.226H513.308Z" fill="black"/>
<path d="M316.778 642.916C307.588 642.916 297.928 642.686 287.768 642.176H287.648C284.518 641.816 210.828 633.386 184.598 617.806L163.418 608.606C157.008 611.306 116.778 627.346 97.9781 613.946C97.0781 613.306 96.8681 612.056 97.5081 611.156C98.1481 610.256 99.3981 610.046 100.298 610.686C118.478 623.646 162.178 604.786 162.618 604.596L163.418 604.246L186.538 614.306C211.618 629.306 285.508 637.896 288.038 638.186C298.148 638.686 307.778 638.926 316.948 638.926C438.258 638.926 478.468 597.936 478.888 597.486L479.188 597.226C518.768 569.326 545.508 529.166 558.658 477.876C572.788 422.766 566.698 372.546 564.488 358.466C564.328 357.516 564.208 356.806 564.138 356.366C564.088 356.046 564.058 355.886 564.048 355.856C563.828 354.776 564.518 353.726 565.598 353.496C566.678 353.266 567.738 353.956 567.968 355.036C567.968 355.036 568.018 355.256 568.088 355.706C568.168 356.126 568.288 356.856 568.448 357.836C570.688 372.126 576.858 423.026 562.538 478.876C549.158 531.056 521.938 571.936 481.648 600.396C480.148 601.916 468.208 613.406 439.768 624.146C416.058 633.096 376.408 642.926 316.778 642.926V642.916Z" fill="black"/>
<path d="M110.448 618.366C110.198 618.366 109.958 618.366 109.708 618.336C108.608 618.246 107.788 617.286 107.868 616.186C107.958 615.086 108.918 614.266 110.018 614.346C116.428 614.866 128.518 604.646 132.628 600.676C133.418 599.906 134.688 599.926 135.458 600.716C136.228 601.506 136.208 602.776 135.418 603.546C133.818 605.096 119.848 618.366 110.448 618.366Z" fill="black"/>
<path d="M368.168 196.626C367.818 196.626 367.468 196.536 367.138 196.346C366.708 196.086 356.718 189.986 360.258 182.016C362.868 176.136 369.008 175.366 371.948 175.006C372.298 174.966 372.708 174.916 372.928 174.866C373.688 174.456 374.638 174.566 375.288 175.196C376.078 175.966 376.088 177.236 375.308 178.026C374.908 178.426 374.448 178.596 374.138 178.686C373.688 178.816 373.138 178.886 372.448 178.966C369.888 179.286 365.618 179.816 363.918 183.636C361.818 188.376 369.128 192.866 369.198 192.906C370.138 193.476 370.448 194.706 369.878 195.646C369.498 196.266 368.838 196.616 368.168 196.616V196.626Z" fill="black"/>
<path d="M426.108 205.686C425.368 205.686 424.658 205.276 424.308 204.566C423.908 203.746 424.118 202.796 424.758 202.216C425.608 200.936 429.068 193.006 430.598 186.436C431.668 181.866 434.518 177.166 436.658 174.106C431.578 173.056 427.528 169.426 423.258 165.606C418.198 161.066 412.968 156.386 405.518 155.616C392.768 154.296 376.968 175.516 375.208 177.946C374.978 178.266 374.848 178.446 374.838 178.466C374.218 179.386 372.978 179.626 372.068 179.006C371.148 178.396 370.908 177.156 371.518 176.236C371.518 176.236 371.678 176.006 371.978 175.596C373.298 173.786 378.078 167.416 384.208 161.796C392.258 154.406 399.568 150.986 405.928 151.646C414.668 152.546 420.648 157.906 425.928 162.636C430.188 166.456 433.878 169.756 438.248 170.326L445.688 169.286L442.308 173.286C442.248 173.356 436.038 180.756 434.498 187.346C433.358 192.226 429.118 204.456 426.988 205.486C426.708 205.626 426.408 205.686 426.118 205.686H426.108Z" fill="black"/>
<path d="M418.628 195.876L392.548 182.896C382.818 184.496 372.118 181.436 371.658 181.306C370.598 180.996 369.988 179.886 370.298 178.826C370.608 177.766 371.718 177.156 372.778 177.466C372.888 177.496 383.548 180.526 392.478 178.856L393.138 178.736L417.368 190.796L428.418 175.476C429.068 174.586 430.318 174.376 431.208 175.026C432.108 175.676 432.308 176.926 431.658 177.816L418.628 195.896V195.876Z" fill="black"/>
<path d="M280.568 122.916C294.638 123.156 302.498 144.376 300.598 155.816C298.698 167.256 288.438 180.616 274.608 180.136C260.778 179.656 253.148 162.016 256.968 144.606C260.788 127.196 280.568 122.906 280.568 122.906V122.916Z" fill="#2D2B37"/>
<path d="M278.908 146.306C282.598 146.306 285.588 143.315 285.588 139.626C285.588 135.937 282.598 132.946 278.908 132.946C275.219 132.946 272.228 135.937 272.228 139.626C272.228 143.315 275.219 146.306 278.908 146.306Z" fill="white"/>
<path d="M466.898 98.5056C477.878 93.7356 491.438 107.396 493.988 116.936C496.538 126.476 493.308 140.426 482.428 144.916C471.548 149.406 459.428 138.436 456.258 123.616C453.088 108.796 466.898 98.5056 466.898 98.5056Z" fill="#2D2B37"/>
<path d="M471.488 117.706C474.625 117.706 477.168 115.163 477.168 112.026C477.168 108.889 474.625 106.346 471.488 106.346C468.351 106.346 465.808 108.889 465.808 112.026C465.808 115.163 468.351 117.706 471.488 117.706Z" fill="white"/>
<path d="M287.213 243.59C246.413 264.79 230.754 235.519 234.213 211.59C237.042 192.025 257.513 182.89 276.713 184.09C300.713 185.59 338.213 217.09 287.213 243.59Z" fill="#EDBEAA"/>
<path d="M250.541 102.471C235.741 112.471 245.374 97.3044 252.041 88.4711C252.874 86.9711 255.841 83.7711 261.041 82.9711C267.541 81.9711 269.041 89.9711 250.541 102.471Z" fill="#E4E4E4"/>
<path d="M268.541 95.971C262.541 96.371 269.374 87.4711 273.541 82.9711C274.883 81.4713 282.041 81.471 281.041 84.471C280.041 87.471 276.041 95.471 268.541 95.971Z" fill="#E4E4E4"/>
<path d="M294.041 88.4711C293.041 93.9711 290.041 95.971 287.041 95.971C284.041 95.971 287.041 88.4711 288.541 85.9712C290.041 83.4713 295.041 82.9711 294.041 88.4711Z" fill="#E4E4E4"/>
</svg>
