<svg width="620" height="695" viewBox="0 0 620 695" fill="none" xmlns="http://www.w3.org/2000/svg">
<ellipse cx="347.081" cy="662.486" rx="258" ry="32.5" fill="#363737"/>
<path d="M254.1 647.161C252.851 646.666 249.575 644.473 246.464 639.665L245.899 635.705L272.345 633.445L280.193 645.961C319.436 651.976 325.021 665.152 324.879 672.412C324.879 672.412 251.93 660.266 231.33 661.018C236.092 655.456 247.312 644.897 254.1 647.161Z" fill="#EDBEAA"/>
<path fill-rule="evenodd" clip-rule="evenodd" d="M243.62 633.893L273.391 631.348L281.402 644.126C300.628 647.166 311.974 651.97 318.544 657.149C325.316 662.487 326.962 668.19 326.879 672.451L326.834 674.765L324.551 674.385L324.879 672.412C324.551 674.385 324.551 674.385 324.551 674.385L324.343 674.35C324.205 674.328 323.999 674.294 323.73 674.249C323.192 674.161 322.4 674.031 321.384 673.866C319.352 673.536 316.425 673.065 312.848 672.502C305.694 671.376 295.943 669.883 285.55 668.413C264.669 665.461 241.485 662.649 231.403 663.017L226.844 663.183L229.811 659.717C232.264 656.852 236.375 652.701 240.789 649.531C242.994 647.947 245.348 646.554 247.664 645.71C247.94 645.609 248.219 645.515 248.5 645.429C247.296 644.205 246.019 642.659 244.785 640.751L244.547 640.383L243.62 633.893ZM322.686 670.025C322.172 667.248 320.501 663.785 316.068 660.291C310.172 655.644 299.357 650.922 279.89 647.939L278.985 647.8L271.299 635.542L248.178 637.518L248.381 638.94C251.25 643.234 254.091 645.006 254.837 645.302L253.468 649.058C252.372 648.693 250.9 648.788 249.033 649.468C247.188 650.141 245.166 651.312 243.122 652.779C240.513 654.654 237.987 656.926 235.901 659.026C247.763 659.374 268.019 661.895 286.11 664.453C296.529 665.926 306.303 667.422 313.47 668.55C317.054 669.114 319.988 669.586 322.025 669.918C322.257 669.955 322.478 669.991 322.686 670.025Z" fill="black"/>
<path d="M372.454 644.088C371.269 643.729 368.093 641.969 364.868 637.794L364.044 634.202L388.148 630.093L396.314 640.98C432.802 643.483 438.942 655.149 439.37 661.824C439.37 661.824 371.47 656.285 352.617 658.56C356.56 653.087 366.049 642.532 372.454 644.088Z" fill="#EDBEAA"/>
<path fill-rule="evenodd" clip-rule="evenodd" d="M361.621 632.587L389.015 627.918L397.366 639.051C415.219 640.368 426.014 643.906 432.467 648.17C439.135 652.576 441.111 657.729 441.366 661.697L441.514 664.007L439.207 663.819L439.37 661.825C439.207 663.819 439.208 663.819 439.207 663.819L439.204 663.818L439.014 663.803C438.885 663.793 438.694 663.777 438.444 663.757C437.943 663.717 437.206 663.659 436.261 663.586C434.37 663.439 431.647 663.232 428.321 662.99C421.668 662.507 412.602 661.886 402.949 661.337C383.549 660.232 362.066 659.435 352.856 660.546L348.327 661.093L350.994 657.391C353.031 654.565 356.494 650.428 360.313 647.168C362.222 645.539 364.288 644.07 366.367 643.109C366.537 643.03 366.709 642.954 366.883 642.881C365.73 641.868 364.501 640.592 363.285 639.017L363.016 638.67L361.621 632.587ZM436.96 659.628C436.24 657.196 434.443 654.27 430.262 651.507C424.525 647.716 414.264 644.217 396.177 642.976L395.263 642.914L387.28 632.271L366.466 635.819L366.717 636.912C369.657 640.594 372.365 641.972 373.033 642.174L371.982 646.032C370.996 645.793 369.69 645.979 368.046 646.739C366.421 647.491 364.667 648.711 362.91 650.211C360.766 652.04 358.718 654.198 357.015 656.204C367.996 655.646 386.565 656.397 403.177 657.343C412.856 657.894 421.944 658.516 428.611 659.001C431.945 659.243 434.674 659.45 436.57 659.598C436.704 659.608 436.834 659.618 436.96 659.628Z" fill="black"/>
<path d="M584.821 322.506C583.481 321.536 553.721 299.966 578.191 292.976C585.241 290.966 591.241 292.976 596.211 296.916C608.881 306.946 614.911 329.456 614.911 329.456C614.911 329.456 625.871 380.236 603.461 403.836C603.461 403.836 597.501 455.336 561.271 478.456L560.941 478.366C575.371 422.086 568.721 370.346 566.811 358.146C566.651 357.176 566.531 356.456 566.451 356.006C564.411 351.936 557.431 330.196 556.971 325.156C556.721 322.416 561.111 325.096 565.351 328.276C568.691 331.926 572.541 334.256 572.921 334.476C572.531 334.126 569.001 331.016 565.351 328.276C563.161 325.886 561.191 322.926 560.551 319.616C558.921 311.206 583.591 321.966 584.821 322.506Z" fill="#FFE297"/>
<mask id="mask0_919_104" style="mask-type:luminance" maskUnits="userSpaceOnUse" x="556" y="292" width="62" height="187">
<path d="M584.821 322.506C583.481 321.536 553.721 299.966 578.191 292.976C585.241 290.966 591.241 292.976 596.211 296.916C608.881 306.946 614.911 329.456 614.911 329.456C614.911 329.456 625.871 380.236 603.461 403.836C603.461 403.836 597.501 455.336 561.271 478.456L560.941 478.366C575.371 422.086 568.721 370.346 566.811 358.146C566.651 357.176 566.531 356.456 566.451 356.006C564.411 351.936 557.431 330.196 556.971 325.156C556.721 322.416 561.111 325.096 565.351 328.276C568.691 331.926 572.541 334.256 572.921 334.476C572.531 334.126 569.001 331.016 565.351 328.276C563.161 325.886 561.191 322.926 560.551 319.616C558.921 311.206 583.591 321.966 584.821 322.506Z" fill="white"/>
</mask>
<g mask="url(#mask0_919_104)">
<path d="M566.351 358.216C566.351 358.216 576.611 409.386 643.841 373.626L625.241 471.896L556.951 536.566L524.541 468.686L566.341 358.216" fill="#F7CE64"/>
</g>
<path d="M557.911 170.916C604.881 190.446 605.721 268.996 596.701 296.316L596.211 296.916C591.241 292.976 585.241 290.966 578.191 292.976C553.721 299.966 583.481 321.536 584.821 322.506C583.591 321.966 558.921 311.206 560.551 319.616C561.191 322.926 563.161 325.886 565.351 328.276C561.111 325.096 556.721 322.416 556.971 325.156C557.431 330.196 564.411 351.936 566.451 356.006C566.531 356.456 566.651 357.176 566.811 358.146L566.351 358.216C544.101 404.946 512.951 436.096 512.951 436.096C466.541 428.786 423.461 398.356 423.461 398.356L422.741 397.796C440.871 374.566 451.411 349.646 449.211 347.806C445.041 344.336 430.941 355.746 430.171 356.366C430.691 355.856 438.631 347.886 436.101 343.276C433.541 338.636 415.331 346.906 414.431 347.316C415.351 346.606 436.721 330.066 432.521 325.636C428.231 321.106 401.771 339.466 366.721 340.656C354.351 341.076 340.011 338.286 326.641 334.506C326.641 334.506 285.661 255.866 346.061 208.176C353.691 202.156 361.321 198.206 368.821 195.906C388.641 189.826 407.611 195.226 423.491 204.216C437.011 211.876 448.291 222.146 455.961 230.166C455.961 230.166 470.351 163.676 537.421 166.536C545.061 166.866 551.871 168.396 557.911 170.916Z" fill="#FC7F75"/>
<mask id="mask1_919_104" style="mask-type:luminance" maskUnits="userSpaceOnUse" x="313" y="166" width="289" height="271">
<path d="M557.911 170.916C604.881 190.446 605.721 268.996 596.701 296.316L596.211 296.916C591.241 292.976 585.241 290.966 578.191 292.976C553.721 299.966 583.481 321.536 584.821 322.506C583.591 321.966 558.921 311.206 560.551 319.616C561.191 322.926 563.161 325.886 565.351 328.276C561.111 325.096 556.721 322.416 556.971 325.156C557.431 330.196 564.411 351.936 566.451 356.006C566.531 356.456 566.651 357.176 566.811 358.146L566.351 358.216C544.101 404.946 512.951 436.096 512.951 436.096C466.541 428.786 423.461 398.356 423.461 398.356L422.741 397.796C440.871 374.566 451.411 349.646 449.211 347.806C445.041 344.336 430.941 355.746 430.171 356.366C430.691 355.856 438.631 347.886 436.101 343.276C433.541 338.636 415.331 346.906 414.431 347.316C415.351 346.606 436.721 330.066 432.521 325.636C428.231 321.106 401.771 339.466 366.721 340.656C354.351 341.076 340.011 338.286 326.641 334.506C326.641 334.506 285.661 255.866 346.061 208.176C353.691 202.156 361.321 198.206 368.821 195.906C388.641 189.826 407.611 195.226 423.491 204.216C437.011 211.876 448.291 222.146 455.961 230.166C455.961 230.166 470.351 163.676 537.421 166.536C545.061 166.866 551.871 168.396 557.911 170.916Z" fill="white"/>
</mask>
<g mask="url(#mask1_919_104)">
<path d="M670.1 292.833C553.144 320.084 508.053 227.738 500.126 178.159L566.664 134.65L659.376 188.727C711.683 212.074 787.056 265.582 670.1 292.833Z" fill="#FDAB93"/>
<path d="M346.061 208.176C346.061 208.176 352.271 376.376 572.921 442.706C793.571 509.036 441.111 499.536 441.111 499.536L201.971 478.606L243.671 278.266L299.131 219.936L346.051 208.176" fill="#FA7166"/>
</g>
<path d="M572.921 334.476C572.541 334.256 568.691 331.926 565.351 328.276C569.001 331.016 572.531 334.126 572.921 334.476Z" fill="#C7D1D8"/>
<path d="M561.461 360.706C563.371 372.906 570.021 424.646 555.591 480.926C544.661 523.546 521.651 568.766 475.331 601.416C475.331 601.416 429.401 650.046 282.861 642.736C282.861 642.736 206.561 634.156 180.501 618.576L158.411 608.986C158.411 608.986 113.461 628.656 94.1309 614.876L93.9609 614.516C117.541 603.106 142.631 589.366 149.421 583.136V582.166C187.071 581.946 250.751 573.276 297.691 523.966H297.701C297.701 523.966 356.371 505.576 374.011 438.346L373.421 436.876C390.371 430.086 405.511 415.586 417.391 400.356L418.111 400.916C418.111 400.916 461.191 431.346 507.601 438.656C507.601 438.656 538.751 407.506 561.001 360.776L561.461 360.706Z" fill="#FDEEDD"/>
<mask id="mask2_919_104" style="mask-type:luminance" maskUnits="userSpaceOnUse" x="93" y="360" width="472" height="284">
<path d="M561.461 360.706C563.371 372.906 570.021 424.646 555.591 480.926C544.661 523.546 521.651 568.766 475.331 601.416C475.331 601.416 429.401 650.046 282.861 642.736C282.861 642.736 206.561 634.156 180.501 618.576L158.411 608.986C158.411 608.986 113.461 628.656 94.1309 614.876L93.9609 614.516C117.541 603.106 142.631 589.366 149.421 583.136V582.166C187.071 581.946 250.751 573.276 297.691 523.966H297.701C297.701 523.966 356.371 505.576 374.011 438.346L373.421 436.876C390.371 430.086 405.511 415.586 417.391 400.356L418.111 400.916C418.111 400.916 461.191 431.346 507.601 438.656C507.601 438.656 538.751 407.506 561.001 360.776L561.461 360.706Z" fill="white"/>
</mask>
<g mask="url(#mask2_919_104)">
<path d="M234.971 539.126C234.971 539.126 287.921 642.276 549.511 593.146L509.751 812.946L57.8011 839.646L-43.3589 604.456L234.971 539.116V539.126Z" fill="#FBE9B9"/>
</g>
<path d="M122.411 576.096C109.771 581.506 96.8407 586.486 84.4507 590.586C67.4207 596.226 51.4307 600.216 38.6707 601.396C28.3607 602.346 21.4907 601.916 17.2607 600.366C1.66075 594.626 21.8307 573.516 37.0807 549.266C56.4707 518.436 78.7207 463.196 78.7207 463.196C110.191 313.006 175.991 256.976 175.991 256.976C174.561 236.476 193.401 187.116 193.401 187.116L193.491 185.406C186.581 184.666 194.951 175.316 194.951 175.316L194.561 173.486C193.261 173.776 191.841 173.956 190.301 174.006C179.211 174.366 197.931 159.706 197.931 159.706C186.961 116.316 225.581 59.5761 225.581 59.5761L219.541 62.7461C219.541 62.7461 218.591 41.6161 244.661 44.4761C244.661 44.4761 237.661 21.2661 256.891 23.8061C256.891 23.8061 251.651 35.2561 252.921 37.4761C252.921 37.4761 322.141 -5.99392 378.171 3.30608C434.191 12.6061 502.851 64.1061 511.441 127.046C511.441 127.046 523.361 128.946 528.131 134.666L522.641 137.296C522.641 137.296 551.811 144.106 557.911 170.916C551.871 168.396 545.061 166.866 537.421 166.536C470.351 163.676 455.961 230.166 455.961 230.166C448.291 222.146 437.011 211.876 423.491 204.216L426.441 203.686C427.161 203.336 431.211 194.036 432.881 186.886C434.551 179.726 441.111 171.986 441.111 171.986L438.601 172.336C427.521 171.146 421.081 155.176 406.061 153.626C392.391 152.216 376.661 173.006 373.931 176.766C372.261 177.246 365.061 176.906 362.431 182.826C359.571 189.266 368.511 194.626 368.511 194.626L368.821 195.906C361.321 198.206 353.691 202.156 346.061 208.176C285.661 255.866 326.641 334.496 326.641 334.496C340.011 338.286 354.351 341.076 366.721 340.656C401.771 339.466 428.231 321.106 432.521 325.636C436.721 330.066 415.351 346.606 414.431 347.316C415.331 346.906 433.541 338.636 436.101 343.276C438.631 347.886 430.691 355.856 430.171 356.366C430.941 355.746 445.041 344.336 449.211 347.806C451.411 349.646 440.871 374.566 422.741 397.796C410.861 413.026 395.721 427.526 378.771 434.316L379.361 435.786C361.721 503.016 303.051 521.416 303.051 521.416H303.041C256.101 570.716 192.421 579.386 154.761 579.606C135.531 579.726 123.071 577.636 123.071 577.636L122.411 576.096Z" fill="#FFE297"/>
<mask id="mask3_919_104" style="mask-type:luminance" maskUnits="userSpaceOnUse" x="12" y="1" width="547" height="601">
<path d="M122.862 576.08C110.222 581.49 97.2919 586.47 84.9019 590.57C67.8719 596.21 51.8819 600.2 39.1219 601.38C28.8119 602.33 21.9419 601.9 17.7119 600.35C2.11192 594.61 22.2819 573.5 37.5319 549.25C56.9219 518.42 79.1719 463.18 79.1719 463.18C110.642 312.99 176.442 256.96 176.442 256.96C175.012 236.46 193.852 187.1 193.852 187.1L193.942 185.39C187.032 184.65 195.402 175.3 195.402 175.3L195.012 173.47C193.712 173.76 192.292 173.94 190.752 173.99C179.662 174.35 198.382 159.69 198.382 159.69C187.412 116.3 226.032 59.5605 226.032 59.5605L219.992 62.7305C219.992 62.7305 219.042 41.6005 245.112 44.4605C245.112 44.4605 238.112 21.2505 257.342 23.7905C257.342 23.7905 252.102 35.2405 253.372 37.4605C253.372 37.4605 322.592 -6.00955 378.622 3.29045C434.642 12.5905 503.302 64.0905 511.892 127.03C511.892 127.03 523.812 128.93 528.582 134.65L523.092 137.28C523.092 137.28 552.262 144.09 558.362 170.9C552.322 168.38 545.512 166.85 537.872 166.52C470.802 163.66 456.412 230.15 456.412 230.15C448.742 222.13 437.462 211.86 423.942 204.2L426.892 203.67C427.612 203.32 431.662 194.02 433.332 186.87C435.002 179.71 441.562 171.97 441.562 171.97L439.052 172.32C427.972 171.13 421.532 155.16 406.512 153.61C392.842 152.2 377.112 172.99 374.382 176.75C372.712 177.23 365.512 176.89 362.882 182.81C360.022 189.25 368.962 194.61 368.962 194.61L369.272 195.89C361.772 198.19 354.142 202.14 346.512 208.16C286.112 255.85 327.092 334.48 327.092 334.48C340.462 338.27 354.802 341.06 367.172 340.64C402.222 339.45 428.682 321.09 432.972 325.62C437.172 330.05 415.802 346.59 414.882 347.3C415.782 346.89 433.992 338.62 436.552 343.26C439.082 347.87 431.142 355.84 430.622 356.35C431.392 355.73 445.492 344.32 449.662 347.79C451.862 349.63 441.322 374.55 423.192 397.78C411.312 413.01 396.172 427.51 379.222 434.3L379.812 435.77C362.172 503 303.502 521.4 303.502 521.4H303.492C256.552 570.7 192.872 579.37 155.212 579.59C135.982 579.71 123.522 577.62 123.522 577.62L122.862 576.08Z" fill="white"/>
</mask>
<g mask="url(#mask3_919_104)">
<path d="M333.081 436.486C333.081 436.486 376.081 439.986 393.081 436.486C396.248 440.986 397.381 450.286 376.581 451.486C355.781 452.686 338.914 441.986 333.081 436.486Z" fill="#F7CE64"/>
<path d="M369.581 9.48584C420.581 6.48584 478.081 62.4858 502.581 101.986L556.081 118.986L565.081 97.4858L573.581 14.4856C557.248 0.652359 522.881 -27.2142 516.081 -28.0142C507.581 -29.0142 282.081 -59.0142 276.081 -59.0142C270.081 -59.0142 126.581 21.9858 120.581 26.9858C115.781 30.9858 127.248 99.3192 133.581 132.986C150.748 146.653 189.281 162.986 206.081 118.986C227.081 63.9858 245.019 51.553 271.081 36.4858C281.081 30.7046 314.168 12.7454 369.581 9.48584Z" fill="white"/>
<path d="M510.546 201.59C469.746 222.79 454.087 193.519 457.546 169.59C460.374 150.025 480.846 140.89 500.046 142.09C524.046 143.59 561.546 175.09 510.546 201.59Z" fill="#FCA986"/>
<path d="M52.1211 427.796C52.1211 427.796 78.451 471.126 126.941 454.256C126.941 454.256 145.271 507.666 216.221 489.976C216.221 489.976 242.021 512.176 271.151 502.646C271.151 502.646 295.431 523.836 308.711 509.526L302.471 576.096L154.771 696.906L-51.0989 676.876L-60.9189 580.576L52.1211 427.796Z" fill="#F7CE64"/>
</g>
<path d="M373.931 176.766C376.661 173.006 392.391 152.216 406.061 153.626C421.081 155.176 427.521 171.146 438.601 172.336L441.111 171.986C441.111 171.986 434.551 179.726 432.881 186.886C431.211 194.036 427.161 203.336 426.441 203.686L423.491 204.216C407.611 195.226 388.641 189.826 368.821 195.906L368.511 194.626C368.511 194.626 359.571 189.266 362.431 182.826C365.061 176.906 372.261 177.246 373.931 176.766Z" fill="#FCA986"/>
<path d="M154.761 579.606V580.576C147.981 586.806 122.891 600.546 99.3109 611.956C82.3109 620.196 66.0909 627.226 58.1009 629.376C39.0309 634.496 47.4909 619.716 47.4909 619.716L47.0209 618.926C57.6109 612.686 70.0209 603.576 84.4509 590.596C96.8409 586.486 109.771 581.506 122.411 576.096L123.071 577.636C123.071 577.636 135.531 579.726 154.761 579.606Z" fill="#33313C"/>
<path d="M84.451 590.585C70.021 603.575 57.611 612.685 47.021 618.925C27.371 630.505 13.971 632.235 5.61096 630.485C-7.25904 627.785 16.741 601.895 16.741 601.895L17.261 600.365C21.491 601.915 28.361 602.345 38.671 601.395C51.431 600.215 67.421 596.225 84.451 590.585Z" fill="#F7CE64"/>
<path d="M189.931 176.016C187.261 176.016 185.611 175.166 185.001 173.486C183.631 169.726 189.821 163.646 195.691 158.936C187.521 123.516 210.261 80.8056 219.901 64.8256L217.691 65.9856L217.551 62.8456C217.531 62.4757 217.221 53.8056 223.671 47.7556C227.981 43.7156 234.171 41.8756 242.091 42.2757C241.281 38.1157 240.481 30.2857 244.541 25.5157C247.251 22.3257 251.501 21.0857 257.161 21.8457L259.841 22.1957L258.711 24.6557C257.191 27.9757 255.911 31.3856 255.231 33.7656C269.941 25.1256 328.751 -6.90435 378.501 1.34565C436.271 10.9356 503.791 62.9257 513.221 125.356C516.711 126.086 525.481 128.366 529.671 133.396L531.321 135.366L528.081 136.916C536.991 140.216 555.071 149.386 559.871 170.476C559.931 170.706 559.991 170.986 560.051 171.266C560.271 172.346 559.571 173.406 558.491 173.626C557.401 173.846 556.351 173.146 556.131 172.066C556.091 171.846 556.031 171.626 555.981 171.406C550.231 146.126 522.471 139.316 522.191 139.256L516.671 137.956L524.641 134.136C519.661 130.436 511.231 129.046 511.141 129.026L509.681 128.796L509.481 127.326C505.591 98.8456 488.481 70.1656 461.301 46.5856C436.451 25.0256 406.041 9.96565 377.861 5.29565C349.391 0.57565 317.281 10.0057 295.361 18.7557C271.481 28.2857 254.171 39.0856 254.001 39.1956L252.241 40.3056L251.201 38.4956C250.151 36.6656 251.071 32.3456 253.921 25.6457C251.081 25.6857 248.961 26.5156 247.601 28.1157C244.101 32.2257 245.691 40.9256 246.601 43.9256L247.471 46.8256L244.461 46.4956C236.431 45.6156 230.371 47.0156 226.451 50.6656C223.581 53.3356 222.391 56.7757 221.901 59.2856L231.751 54.1157L227.251 60.7257C226.871 61.2857 189.271 117.236 199.891 159.236L200.211 160.496L199.191 161.296C194.031 165.346 189.441 170.096 188.871 171.936C189.121 171.986 189.551 172.046 190.261 172.016C191.641 171.976 192.941 171.816 194.151 171.546C201.261 170.026 204.421 165.466 204.551 165.276C205.171 164.366 206.411 164.126 207.321 164.736C208.231 165.346 208.491 166.576 207.881 167.496C207.711 167.746 203.761 173.586 195.001 175.456C193.571 175.776 192.011 175.966 190.391 176.016C190.241 176.016 190.101 176.016 189.961 176.016H189.931Z" fill="black"/>
<path d="M194.461 187.456C194.031 187.456 193.621 187.436 193.241 187.386C190.541 187.096 189.461 185.716 189.031 184.606C187.611 180.906 192.051 175.536 193.451 173.976C194.191 173.156 195.451 173.086 196.271 173.816C197.091 174.556 197.161 175.816 196.431 176.636C194.021 179.336 192.461 182.406 192.761 183.166C192.761 183.166 192.921 183.326 193.691 183.406C194.301 183.476 195.071 183.456 196.001 183.336C206.241 182.066 212.091 167.786 212.151 167.646C212.561 166.626 213.731 166.126 214.751 166.536C215.771 166.946 216.271 168.106 215.861 169.136C215.591 169.816 209.081 185.746 196.491 187.306C195.751 187.396 195.071 187.446 194.451 187.446L194.461 187.456Z" fill="black"/>
<path d="M28.9209 603.396C23.7209 603.396 19.7009 602.856 16.7409 601.776C13.4509 600.566 11.3709 598.616 10.5309 595.986C8.24091 588.716 15.8409 577.746 25.4809 563.856C28.9109 558.906 32.4609 553.786 35.8109 548.466C54.4709 518.796 76.0909 465.676 77.2809 462.756C93.5809 385.026 119.231 332.966 137.881 302.966C156.301 273.346 171.341 259.116 174.451 256.326C173.491 235.346 191.231 188.576 192.001 186.576C192.291 185.806 193.161 185.416 193.941 185.706C194.711 185.996 195.101 186.866 194.811 187.646C194.621 188.136 176.101 236.936 177.501 256.866L177.551 257.616L176.971 258.106C176.811 258.246 160.381 272.436 140.341 304.696C121.841 334.486 96.3809 386.216 80.1909 463.486L80.1109 463.736C79.8909 464.286 57.5909 519.456 38.3509 550.046C34.9709 555.416 31.4009 560.566 27.9509 565.546C19.5209 577.716 11.5509 589.206 13.4009 595.066C13.9409 596.786 15.3809 598.056 17.7809 598.946C21.9109 600.456 28.9009 600.776 38.5309 599.886C50.5209 598.776 65.8109 595.166 83.9809 589.146C95.9409 585.186 108.671 580.326 121.821 574.706C158.561 558.976 190.911 540.566 202.341 528.896C202.921 528.306 203.871 528.296 204.461 528.876C205.051 529.456 205.061 530.406 204.481 530.996C192.811 542.926 160.061 561.606 123.001 577.466C109.771 583.126 96.9609 588.016 84.9209 591.996C66.5409 598.086 51.0209 601.746 38.8109 602.876C35.1409 603.216 31.8509 603.386 28.9309 603.386L28.9209 603.396Z" fill="black"/>
<path d="M11.5508 632.566C9.13075 632.566 7.06075 632.326 5.30075 631.956C2.22075 631.306 1.05075 629.526 0.61075 628.146C-1.93925 620.146 13.8307 602.826 15.6407 600.876C16.2007 600.266 17.1508 600.236 17.7608 600.796C18.3708 601.356 18.4008 602.306 17.8408 602.916C11.4808 609.786 1.95075 622.456 3.47075 627.236C3.66075 627.816 4.11075 628.636 5.92075 629.016C13.0007 630.496 25.7408 629.726 46.2608 617.636C57.5908 610.966 70.1007 601.486 83.4507 589.486C84.0707 588.926 85.0208 588.986 85.5708 589.596C86.1208 590.216 86.0708 591.156 85.4608 591.716C71.9608 603.856 59.2908 613.446 47.7908 620.226C31.3808 629.896 19.5908 632.576 11.5608 632.576L11.5508 632.566Z" fill="black"/>
<path d="M51.3207 631.956C48.4707 631.956 46.4707 631.176 45.2607 629.606C42.3807 625.876 45.7907 619.666 46.1907 618.976C46.6007 618.256 47.5207 618.016 48.2307 618.416C48.9507 618.826 49.2007 619.746 48.7907 620.456C48.0407 621.776 46.2207 625.936 47.6407 627.766C48.3207 628.646 50.5407 629.846 57.7107 627.916C65.0407 625.946 80.3507 619.466 98.6507 610.596C125.021 597.836 147.681 585.036 153.751 579.456C154.361 578.896 155.311 578.936 155.871 579.546C156.431 580.156 156.391 581.106 155.781 581.666C148.471 588.376 121.721 602.756 99.9607 613.286C81.4907 622.236 65.9907 628.786 58.4907 630.806C55.6807 631.556 53.3007 631.936 51.3207 631.936V631.956Z" fill="black"/>
<path d="M153.181 581.116C134.931 581.116 122.941 579.146 122.811 579.116C121.991 578.976 121.441 578.206 121.581 577.386C121.721 576.566 122.501 576.015 123.311 576.155C123.431 576.175 135.891 578.205 154.741 578.105C189.381 577.905 254.571 570.136 301.941 520.376C303.131 519.146 304.211 517.975 305.271 516.795C305.821 516.175 306.771 516.126 307.391 516.676C308.011 517.226 308.061 518.175 307.511 518.795C306.431 520.005 305.321 521.196 304.111 522.446C255.981 573.006 189.881 580.895 154.761 581.105C154.231 581.105 153.701 581.105 153.181 581.105V581.116Z" fill="black"/>
<path d="M303.051 522.916C302.411 522.916 301.821 522.506 301.621 521.866C301.371 521.076 301.811 520.236 302.601 519.986C302.741 519.936 317.291 515.276 333.771 502.546C348.941 490.826 368.921 469.666 377.911 435.406C378.121 434.606 378.941 434.126 379.741 434.336C380.541 434.546 381.021 435.366 380.811 436.166C371.591 471.306 351.081 492.996 335.511 504.996C318.621 518.016 304.111 522.656 303.501 522.846C303.351 522.896 303.201 522.916 303.051 522.916Z" fill="black"/>
<path d="M204.591 330.476C204.361 330.476 204.131 330.426 203.921 330.316C203.181 329.946 202.881 329.046 203.251 328.306C203.601 327.596 206.841 321.376 211.321 320.806C212.141 320.706 212.891 321.286 213.001 322.106C213.101 322.926 212.521 323.676 211.701 323.786C209.241 324.096 206.651 328.226 205.931 329.646C205.671 330.166 205.141 330.476 204.591 330.476Z" fill="black"/>
<path d="M286.841 316.406C286.541 316.406 286.241 316.316 285.981 316.136C271.271 305.746 255.571 302.566 239.331 306.676C227.151 309.756 219.201 316.016 219.121 316.076C218.481 316.596 217.531 316.486 217.011 315.836C216.491 315.186 216.601 314.246 217.251 313.726C217.581 313.456 250.751 287.576 287.711 313.676C288.391 314.156 288.551 315.086 288.071 315.766C287.781 316.176 287.311 316.396 286.841 316.396V316.406Z" fill="black"/>
<path d="M358.921 439.836C357.551 439.836 356.181 439.776 354.831 439.666C354.001 439.596 353.391 438.866 353.461 438.046C353.531 437.216 354.241 436.596 355.081 436.676C362.611 437.316 370.391 436.056 378.201 432.926C396.501 425.596 411.871 409.276 421.551 396.876C438.811 374.766 448.231 352.446 448.011 348.806C445.871 347.766 438.631 351.476 431.121 357.516C430.531 358.006 429.641 357.986 429.091 357.436C428.511 356.846 428.491 355.916 429.081 355.326L429.231 355.186C434.011 351.336 445.571 342.816 450.171 346.646C452.081 348.236 450.321 354.566 444.941 365.436C441.751 371.886 434.781 384.796 423.921 398.706C414.021 411.396 398.251 428.116 379.321 435.696C372.471 438.436 365.621 439.816 358.921 439.816V439.836Z" fill="black"/>
<path d="M430.171 357.866C429.781 357.866 429.391 357.716 429.101 357.416C428.521 356.826 428.531 355.876 429.121 355.296C432.101 352.366 436.281 346.716 434.791 343.996C433.881 342.336 425.771 343.816 415.141 348.646C414.551 348.976 413.781 348.876 413.291 348.346C412.731 347.736 412.781 346.786 413.391 346.226C413.491 346.136 413.641 346.036 413.761 345.976C419.931 343.166 434.491 337.256 437.411 342.556C440.461 348.126 432.171 356.506 431.221 357.436C430.931 357.726 430.551 357.866 430.171 357.866Z" fill="black"/>
<path d="M414.431 348.816C413.981 348.816 413.541 348.616 413.241 348.236C412.731 347.576 412.861 346.636 413.51 346.136C420.6 340.666 431.261 331.116 431.561 327.216C431.591 326.836 431.481 326.726 431.431 326.676C430.331 325.506 423.251 328.126 417.01 330.446C405.22 334.836 387.401 341.456 366.771 342.156C355.751 342.526 342.12 340.446 326.23 335.946C301.89 329.046 280.451 318.746 280.241 318.646C279.491 318.286 279.18 317.386 279.54 316.646C279.9 315.896 280.8 315.586 281.54 315.946C281.75 316.046 302.961 326.246 327.051 333.066C342.641 337.476 355.961 339.526 366.671 339.156C386.811 338.476 404.361 331.946 415.971 327.626C425.751 323.996 431.141 321.986 433.611 324.606C434.311 325.346 434.641 326.326 434.551 327.446C434.061 333.756 418.471 346.096 415.341 348.506C415.071 348.716 414.751 348.816 414.421 348.816H414.431Z" fill="black"/>
<path d="M231.621 415.666C231.511 415.666 231.391 415.656 231.271 415.626C228.251 414.916 226.021 413.246 224.631 410.666C220.821 403.596 224.951 392.046 225.121 391.556C225.401 390.776 226.261 390.376 227.041 390.656C227.821 390.936 228.221 391.796 227.941 392.576C227.901 392.686 224.091 403.356 227.271 409.236C228.251 411.046 229.781 412.176 231.961 412.696C232.771 412.886 233.261 413.696 233.071 414.506C232.911 415.196 232.291 415.656 231.611 415.656L231.621 415.666Z" fill="black"/>
<path d="M252.521 437.286C252.391 437.286 252.261 437.266 252.131 437.236C241.471 434.386 234.811 429.566 232.331 422.896C228.811 413.396 235.191 403.876 235.471 403.476C235.941 402.786 236.871 402.616 237.551 403.086C238.231 403.556 238.411 404.486 237.941 405.166C237.861 405.286 232.161 413.846 235.151 421.876C237.271 427.566 243.241 431.766 252.901 434.346C253.701 434.556 254.181 435.386 253.961 436.186C253.781 436.856 253.171 437.296 252.511 437.296L252.521 437.286Z" fill="black"/>
<path d="M266.741 444.206C262.621 444.206 259.251 443.036 256.651 440.716C247.571 432.586 251.751 413.386 251.931 412.576C252.111 411.766 252.921 411.266 253.721 411.436C254.531 411.616 255.041 412.416 254.861 413.226C254.821 413.406 250.881 431.526 258.651 438.476C262.381 441.816 268.421 442.086 276.591 439.286C277.371 439.016 278.231 439.436 278.501 440.216C278.771 440.996 278.351 441.856 277.571 442.126C273.531 443.516 269.921 444.206 266.741 444.206Z" fill="black"/>
<path d="M314.161 457.416C305.591 457.416 298.231 450.816 295.931 448.516C290.971 450.386 286.741 450.246 283.321 448.096C276.241 443.646 275.611 432.206 275.581 431.726C275.541 430.896 276.181 430.196 277.001 430.156C277.851 430.116 278.531 430.756 278.571 431.576C278.571 431.676 279.161 441.946 284.921 445.556C287.681 447.286 291.311 447.226 295.721 445.366L296.701 444.956L297.411 445.746C297.501 445.846 306.261 455.396 315.671 454.326C320.551 453.766 324.871 450.386 328.501 444.286L316.051 434.916C315.391 434.416 315.261 433.476 315.751 432.816C316.251 432.156 317.191 432.026 317.851 432.516L332.401 443.476L331.771 444.616C327.501 452.326 322.201 456.596 315.991 457.306C315.371 457.376 314.751 457.416 314.141 457.416H314.161Z" fill="black"/>
<path d="M81.901 568.716C74.901 568.716 69.671 566.846 66.251 563.116C54.601 550.386 68.661 521.236 69.271 519.996C69.641 519.246 70.541 518.946 71.281 519.306C72.021 519.666 72.331 520.566 71.971 521.316C71.831 521.596 58.191 549.866 68.471 561.096C74.821 568.036 89.161 567.276 111.081 558.836C184.281 530.686 213.451 505.016 213.741 504.756C214.361 504.196 215.311 504.256 215.861 504.876C216.411 505.496 216.361 506.436 215.741 506.996C215.451 507.256 185.951 533.256 112.161 561.636C99.891 566.356 89.781 568.716 81.911 568.716H81.901Z" fill="black"/>
<path d="M183.831 493.296C171.611 493.296 160.851 490.576 151.661 485.146C135.031 475.326 128.711 459.706 126.951 454.266C117.541 458.976 98.0907 457.486 97.2107 457.416C96.3807 457.346 95.7707 456.626 95.8307 455.796C95.9007 454.966 96.6407 454.366 97.4507 454.416C97.6707 454.436 119.411 456.106 126.991 450.766L128.791 449.496L129.311 451.636C129.361 451.836 134.361 471.456 153.231 482.576C168.211 491.406 187.691 492.656 211.141 486.306C211.941 486.086 212.761 486.566 212.981 487.356C213.201 488.156 212.731 488.976 211.931 489.196C201.871 491.926 192.491 493.286 183.851 493.286L183.831 493.296Z" fill="black"/>
<path d="M256.831 505.106C252.451 505.106 247.661 504.746 242.441 504.026C227.461 501.956 218.631 497.236 216.211 489.986C212.711 479.506 224.031 468.106 224.521 467.626C225.111 467.046 226.061 467.046 226.641 467.626C227.221 468.216 227.221 469.166 226.641 469.746C226.531 469.846 216.151 480.326 219.071 489.036C221.101 495.106 229.111 499.146 242.861 501.046C265.221 504.136 275.601 499.726 280.361 495.496C285.411 491.006 285.361 485.866 285.361 485.646C285.341 484.816 286.001 484.136 286.821 484.116C286.831 484.116 286.851 484.116 286.861 484.116C287.671 484.116 288.331 484.756 288.361 485.566C288.361 485.836 288.501 492.226 282.441 497.676C276.941 502.626 268.361 505.116 256.851 505.116L256.831 505.106Z" fill="black"/>
<path d="M296.191 513.256C281.961 513.256 271.901 505.196 271.361 504.756C270.721 504.236 270.621 503.286 271.151 502.646C271.681 502.006 272.621 501.906 273.261 502.436C273.421 502.566 289.091 515.046 308.201 508.116C308.981 507.836 309.841 508.236 310.121 509.016C310.401 509.796 310.001 510.656 309.221 510.936C304.621 512.606 300.241 513.256 296.191 513.256Z" fill="black"/>
<path d="M326.641 336.496C325.921 336.496 325.221 336.106 324.861 335.416C324.431 334.596 314.411 315.126 311.701 289.426C308.101 255.186 319.551 226.546 344.811 206.606C352.281 200.706 360.161 196.466 368.221 193.996C385.971 188.546 404.901 191.406 424.461 202.476C438.481 210.416 450.101 221.166 457.391 228.786C464.321 236.046 468.281 241.416 468.451 241.646C469.101 242.536 468.911 243.786 468.021 244.446C467.131 245.096 465.881 244.906 465.221 244.016C465.181 243.966 461.231 238.606 454.501 231.556C447.401 224.136 436.081 213.666 422.491 205.966C403.921 195.456 386.051 192.716 369.391 197.826C361.801 200.156 354.371 204.166 347.281 209.756C322.811 229.076 312.171 255.746 315.671 289.016C318.291 313.966 328.291 333.386 328.391 333.576C328.901 334.556 328.521 335.766 327.541 336.276C327.241 336.426 326.931 336.506 326.621 336.506L326.641 336.496Z" fill="black"/>
<path d="M596.701 298.316C596.491 298.316 596.281 298.286 596.071 298.216C595.021 297.866 594.451 296.736 594.801 295.686C599.071 282.746 601.381 257.006 596.341 231.076C589.001 193.296 570.971 178.516 557.141 172.766C551.151 170.266 544.491 168.846 537.331 168.536C510.271 167.376 488.711 177.416 473.231 198.356C461.601 214.096 457.951 230.436 457.911 230.596C457.681 231.676 456.611 232.356 455.531 232.126C454.451 231.896 453.771 230.826 454.001 229.746C454.151 229.046 457.831 212.516 469.921 196.096C481.141 180.866 501.961 163.026 537.501 164.546C545.131 164.876 552.261 166.396 558.671 169.076C606.321 188.886 608.251 267.686 598.591 296.946C598.311 297.786 597.531 298.316 596.691 298.316H596.701Z" fill="black"/>
<path d="M561.271 480.456C560.611 480.456 559.961 480.126 559.581 479.536C558.991 478.606 559.261 477.366 560.191 476.776C595.181 454.446 601.411 404.116 601.471 403.606L601.551 402.946L602.011 402.466C613.131 390.756 615.531 371.706 615.591 357.796C615.651 342.546 612.981 330.006 612.961 329.886C612.921 329.766 606.971 307.986 594.971 298.496C589.911 294.486 584.451 293.286 578.741 294.916C573.831 296.316 571.111 298.356 570.651 300.976C569.561 307.166 580.211 316.716 586.001 320.906C586.891 321.556 587.091 322.806 586.451 323.696C585.801 324.586 584.551 324.796 583.661 324.146C582.471 323.286 578.291 320.166 574.351 316.086C568.501 310.036 565.931 304.716 566.721 300.286C567.471 296.036 571.151 292.936 577.661 291.076C584.681 289.076 591.351 290.516 597.471 295.366C610.511 305.686 616.611 328.006 616.861 328.956C617.341 331.156 627.671 380.476 605.381 404.746C604.531 411.156 597.171 457.956 562.361 480.156C562.031 480.366 561.651 480.466 561.291 480.466L561.271 480.456Z" fill="black"/>
<path d="M572.951 336.496C572.571 336.496 572.201 336.386 571.871 336.176C571.351 335.866 567.391 333.466 563.881 329.626C561.001 326.476 559.221 323.236 558.591 319.996C558.111 317.526 559.261 316.186 559.991 315.606C561.431 314.456 564.531 313.296 574.741 316.556C579.421 318.046 583.861 319.916 585.241 320.506H586.821V322.166C586.941 322.756 586.781 323.396 586.351 323.876C585.911 324.356 585.301 324.576 584.691 324.526H584.031L583.691 324.196C574.811 320.336 564.021 317.166 562.481 318.736C562.481 318.736 562.451 318.886 562.521 319.236C563.001 321.746 564.461 324.336 566.831 326.926C569.911 330.296 573.441 332.456 573.881 332.716L574.061 332.806L574.291 333.016C575.111 333.756 575.171 335.026 574.421 335.846C574.031 336.276 573.481 336.496 572.941 336.496H572.951Z" fill="black"/>
<path d="M566.651 358.406C566.001 358.406 565.381 358.096 565.001 357.506C564.921 357.376 564.831 357.226 564.741 357.046L564.691 356.946C562.551 352.666 555.471 330.696 554.991 325.346C554.821 323.466 555.901 322.656 556.371 322.386C557.951 321.496 560.211 321.916 566.561 326.686C570.501 329.646 574.231 332.966 574.271 332.996C575.091 333.736 575.161 334.996 574.421 335.816C573.681 336.636 572.421 336.706 571.601 335.966C571.571 335.936 567.971 332.736 564.161 329.876C561.751 328.066 560.201 327.106 559.231 326.596C560.601 333.466 566.531 351.686 568.251 355.106L568.291 355.186C568.321 355.246 568.351 355.296 568.371 355.346C568.931 356.286 568.651 357.516 567.721 358.096C567.391 358.306 567.011 358.406 566.651 358.406Z" fill="black"/>
<path d="M513.641 438.226L512.631 438.066C466.301 430.766 422.731 400.286 422.301 399.986C421.401 399.346 421.181 398.106 421.821 397.196C422.461 396.296 423.701 396.076 424.611 396.716C425.031 397.016 467.221 426.516 512.241 433.946C516.981 429.006 544.551 399.336 564.541 357.346C565.021 356.346 566.211 355.926 567.211 356.396C568.211 356.866 568.631 358.066 568.161 359.066C546.021 405.566 514.681 437.186 514.371 437.506L513.651 438.226H513.641Z" fill="black"/>
<path d="M317.111 642.916C307.921 642.916 298.261 642.686 288.101 642.176H287.981C284.851 641.816 211.161 633.386 184.931 617.806L163.751 608.606C157.341 611.306 117.111 627.346 98.3107 613.946C97.4107 613.306 97.2007 612.056 97.8407 611.156C98.4807 610.256 99.7307 610.046 100.631 610.686C118.811 623.646 162.511 604.786 162.951 604.596L163.751 604.246L186.871 614.306C211.951 629.306 285.841 637.896 288.371 638.186C298.481 638.686 308.111 638.926 317.281 638.926C438.591 638.926 478.801 597.936 479.221 597.486L479.521 597.226C519.101 569.326 545.841 529.166 558.991 477.876C573.121 422.766 567.031 372.546 564.821 358.466C564.661 357.516 564.541 356.806 564.471 356.366C564.421 356.046 564.391 355.886 564.381 355.856C564.161 354.776 564.851 353.726 565.931 353.496C567.011 353.266 568.071 353.956 568.301 355.036C568.301 355.036 568.351 355.256 568.421 355.706C568.501 356.126 568.621 356.856 568.781 357.836C571.021 372.126 577.191 423.026 562.871 478.876C549.491 531.056 522.271 571.936 481.981 600.396C480.481 601.916 468.541 613.406 440.101 624.146C416.391 633.096 376.741 642.926 317.111 642.926V642.916Z" fill="black"/>
<path d="M110.781 618.366C110.531 618.366 110.291 618.366 110.041 618.336C108.941 618.246 108.121 617.286 108.201 616.186C108.291 615.086 109.251 614.266 110.351 614.346C116.761 614.866 128.851 604.646 132.961 600.676C133.751 599.906 135.021 599.926 135.791 600.716C136.561 601.506 136.541 602.776 135.751 603.546C134.151 605.096 120.181 618.366 110.781 618.366Z" fill="black"/>
<path d="M368.501 196.626C368.151 196.626 367.801 196.536 367.471 196.346C367.041 196.086 357.051 189.986 360.591 182.016C363.201 176.136 369.341 175.366 372.281 175.006C372.631 174.966 373.041 174.916 373.261 174.866C374.021 174.456 374.971 174.566 375.621 175.196C376.411 175.966 376.421 177.236 375.641 178.026C375.241 178.426 374.781 178.596 374.471 178.686C374.021 178.816 373.471 178.886 372.781 178.966C370.221 179.286 365.951 179.816 364.251 183.636C362.151 188.376 369.461 192.866 369.531 192.906C370.471 193.476 370.781 194.706 370.211 195.646C369.831 196.266 369.171 196.616 368.501 196.616V196.626Z" fill="black"/>
<path d="M426.441 205.686C425.701 205.686 424.991 205.276 424.641 204.566C424.241 203.746 424.451 202.796 425.091 202.216C425.941 200.936 429.401 193.006 430.931 186.436C432.001 181.866 434.851 177.166 436.991 174.106C431.911 173.056 427.861 169.426 423.591 165.606C418.531 161.066 413.301 156.386 405.851 155.616C393.101 154.296 377.301 175.516 375.541 177.946C375.311 178.266 375.181 178.446 375.171 178.466C374.551 179.386 373.311 179.626 372.401 179.006C371.481 178.396 371.241 177.156 371.851 176.236C371.851 176.236 372.011 176.006 372.311 175.596C373.631 173.786 378.411 167.416 384.541 161.796C392.591 154.406 399.901 150.986 406.261 151.646C415.001 152.546 420.981 157.906 426.261 162.636C430.521 166.456 434.211 169.756 438.581 170.326L446.021 169.286L442.641 173.286C442.581 173.356 436.371 180.756 434.831 187.346C433.691 192.226 429.451 204.456 427.321 205.486C427.041 205.626 426.741 205.686 426.451 205.686H426.441Z" fill="black"/>
<path d="M418.961 195.876L392.881 182.896C383.151 184.496 372.451 181.436 371.991 181.306C370.931 180.996 370.321 179.886 370.631 178.826C370.941 177.766 372.051 177.156 373.111 177.466C373.221 177.496 383.881 180.526 392.811 178.856L393.471 178.736L417.701 190.796L428.751 175.476C429.401 174.586 430.651 174.376 431.541 175.026C432.441 175.676 432.641 176.926 431.991 177.816L418.961 195.896V195.876Z" fill="black"/>
<path d="M280.901 122.916C294.971 123.156 302.831 144.376 300.931 155.816C299.031 167.256 288.771 180.616 274.941 180.136C261.111 179.656 253.481 162.016 257.301 144.606C261.121 127.196 280.901 122.906 280.901 122.906V122.916Z" fill="#2D2B37"/>
<path d="M279.241 146.306C282.93 146.306 285.921 143.315 285.921 139.626C285.921 135.937 282.93 132.946 279.241 132.946C275.552 132.946 272.561 135.937 272.561 139.626C272.561 143.315 275.552 146.306 279.241 146.306Z" fill="white"/>
<path d="M467.231 98.5056C478.211 93.7356 491.771 107.396 494.321 116.936C496.871 126.476 493.641 140.426 482.761 144.916C471.881 149.406 459.761 138.436 456.591 123.616C453.421 108.796 467.231 98.5056 467.231 98.5056Z" fill="#2D2B37"/>
<path d="M471.821 117.706C474.958 117.706 477.501 115.163 477.501 112.026C477.501 108.889 474.958 106.346 471.821 106.346C468.684 106.346 466.141 108.889 466.141 112.026C466.141 115.163 468.684 117.706 471.821 117.706Z" fill="white"/>
<path d="M287.546 243.59C246.746 264.79 231.087 235.519 234.546 211.59C237.374 192.025 257.846 182.89 277.046 184.09C301.046 185.59 338.546 217.09 287.546 243.59Z" fill="#FCA986"/>
<path d="M250.874 102.471C236.074 112.471 245.707 97.3044 252.374 88.4711C253.207 86.9711 256.174 83.7711 261.374 82.9711C267.874 81.9711 269.374 89.9711 250.874 102.471Z" fill="white"/>
<path d="M268.874 95.971C262.874 96.371 269.707 87.4711 273.874 82.9711C275.216 81.4713 282.374 81.471 281.374 84.471C280.374 87.471 276.374 95.471 268.874 95.971Z" fill="white"/>
<path d="M294.374 88.4711C293.374 93.9711 290.374 95.971 287.374 95.971C284.374 95.971 287.374 88.4711 288.874 85.9712C290.374 83.4713 295.374 82.9711 294.374 88.4711Z" fill="white"/>
</svg>
