<svg width="620" height="644" viewBox="0 0 620 644" fill="none" xmlns="http://www.w3.org/2000/svg">
<path d="M585.153 322.506C583.813 321.536 554.053 299.966 578.523 292.976C585.573 290.966 591.573 292.976 596.543 296.916C609.213 306.946 615.243 329.456 615.243 329.456C615.243 329.456 626.203 380.236 603.793 403.836C603.793 403.836 597.833 455.336 561.603 478.456L561.273 478.366C575.703 422.086 569.053 370.346 567.143 358.146C566.983 357.176 566.863 356.456 566.783 356.006C564.743 351.936 557.763 330.196 557.303 325.156C557.053 322.416 561.443 325.096 565.683 328.276C569.023 331.926 572.873 334.256 573.253 334.476C572.863 334.126 569.333 331.016 565.683 328.276C563.493 325.886 561.523 322.926 560.883 319.616C559.253 311.206 583.923 321.966 585.153 322.506Z" fill="#97DAFF"/>
<mask id="mask0_920_192" style="mask-type:luminance" maskUnits="userSpaceOnUse" x="557" y="292" width="61" height="187">
<path d="M585.153 322.506C583.813 321.536 554.053 299.966 578.523 292.976C585.573 290.966 591.573 292.976 596.543 296.916C609.213 306.946 615.243 329.456 615.243 329.456C615.243 329.456 626.203 380.236 603.793 403.836C603.793 403.836 597.833 455.336 561.603 478.456L561.273 478.366C575.703 422.086 569.053 370.346 567.143 358.146C566.983 357.176 566.863 356.456 566.783 356.006C564.743 351.936 557.763 330.196 557.303 325.156C557.053 322.416 561.443 325.096 565.683 328.276C569.023 331.926 572.873 334.256 573.253 334.476C572.863 334.126 569.333 331.016 565.683 328.276C563.493 325.886 561.523 322.926 560.883 319.616C559.253 311.206 583.923 321.966 585.153 322.506Z" fill="white"/>
</mask>
<g mask="url(#mask0_920_192)">
<path d="M566.683 358.216C566.683 358.216 576.943 409.386 644.173 373.626L625.573 471.896L557.283 536.566L524.873 468.686L566.673 358.216" fill="#2D83B3"/>
</g>
<path d="M558.243 170.916C605.213 190.446 606.053 268.996 597.033 296.316L596.543 296.916C591.573 292.976 585.573 290.966 578.523 292.976C554.053 299.966 583.813 321.536 585.153 322.506C583.923 321.966 559.253 311.206 560.883 319.616C561.523 322.926 563.493 325.886 565.683 328.276C561.443 325.096 557.053 322.416 557.303 325.156C557.763 330.196 564.743 351.936 566.783 356.006C566.863 356.456 566.983 357.176 567.143 358.146L566.683 358.216C544.433 404.946 513.283 436.096 513.283 436.096C466.873 428.786 423.793 398.356 423.793 398.356L423.073 397.796C441.203 374.566 451.743 349.646 449.543 347.806C445.373 344.336 431.273 355.746 430.503 356.366C431.023 355.856 438.963 347.886 436.433 343.276C433.873 338.636 415.663 346.906 414.763 347.316C415.683 346.606 437.053 330.066 432.853 325.636C428.563 321.106 402.103 339.466 367.053 340.656C354.683 341.076 340.343 338.286 326.973 334.506C326.973 334.506 285.993 255.866 346.393 208.176C354.023 202.156 361.653 198.206 369.153 195.906C388.973 189.826 407.943 195.226 423.823 204.216C437.343 211.876 448.623 222.146 456.293 230.166C456.293 230.166 470.683 163.676 537.753 166.536C545.393 166.866 552.203 168.396 558.243 170.916Z" fill="#FC7F75"/>
<mask id="mask1_920_192" style="mask-type:luminance" maskUnits="userSpaceOnUse" x="313" y="166" width="289" height="271">
<path d="M558.243 170.916C605.213 190.446 606.053 268.996 597.033 296.316L596.543 296.916C591.573 292.976 585.573 290.966 578.523 292.976C554.053 299.966 583.813 321.536 585.153 322.506C583.923 321.966 559.253 311.206 560.883 319.616C561.523 322.926 563.493 325.886 565.683 328.276C561.443 325.096 557.053 322.416 557.303 325.156C557.763 330.196 564.743 351.936 566.783 356.006C566.863 356.456 566.983 357.176 567.143 358.146L566.683 358.216C544.433 404.946 513.283 436.096 513.283 436.096C466.873 428.786 423.793 398.356 423.793 398.356L423.073 397.796C441.203 374.566 451.743 349.646 449.543 347.806C445.373 344.336 431.273 355.746 430.503 356.366C431.023 355.856 438.963 347.886 436.433 343.276C433.873 338.636 415.663 346.906 414.763 347.316C415.683 346.606 437.053 330.066 432.853 325.636C428.563 321.106 402.103 339.466 367.053 340.656C354.683 341.076 340.343 338.286 326.973 334.506C326.973 334.506 285.993 255.866 346.393 208.176C354.023 202.156 361.653 198.206 369.153 195.906C388.973 189.826 407.943 195.226 423.823 204.216C437.343 211.876 448.623 222.146 456.293 230.166C456.293 230.166 470.683 163.676 537.753 166.536C545.393 166.866 552.203 168.396 558.243 170.916Z" fill="white"/>
</mask>
<g mask="url(#mask1_920_192)">
<path d="M670.433 292.833C553.477 320.084 508.385 227.738 500.459 178.159L566.996 134.65L659.709 188.727C712.015 212.074 787.389 265.582 670.433 292.833Z" fill="#FDAB93"/>
<path d="M346.393 208.176C346.393 208.176 352.603 376.376 573.253 442.706C793.903 509.036 441.443 499.536 441.443 499.536L202.303 478.606L244.003 278.266L299.463 219.936L346.383 208.176" fill="#FA7166"/>
</g>
<path d="M573.254 334.476C572.874 334.256 569.024 331.926 565.684 328.276C569.334 331.016 572.864 334.126 573.254 334.476Z" fill="#C7D1D8"/>
<path d="M561.793 360.706C563.703 372.906 570.353 424.646 555.923 480.926C544.993 523.546 521.983 568.766 475.663 601.416C475.663 601.416 429.733 650.046 283.193 642.736C283.193 642.736 206.893 634.156 180.833 618.576L158.743 608.986C158.743 608.986 113.793 628.656 94.4635 614.876L94.2935 614.516C117.873 603.106 142.963 589.366 149.753 583.136V582.166C187.403 581.946 251.083 573.276 298.023 523.966H298.033C298.033 523.966 356.703 505.576 374.343 438.346L373.753 436.876C390.703 430.086 405.843 415.586 417.723 400.356L418.443 400.916C418.443 400.916 461.523 431.346 507.933 438.656C507.933 438.656 539.083 407.506 561.333 360.776L561.793 360.706Z" fill="#F8F1E8"/>
<mask id="mask2_920_192" style="mask-type:luminance" maskUnits="userSpaceOnUse" x="94" y="360" width="471" height="284">
<path d="M561.793 360.706C563.703 372.906 570.353 424.646 555.923 480.926C544.993 523.546 521.983 568.766 475.663 601.416C475.663 601.416 429.733 650.046 283.193 642.736C283.193 642.736 206.893 634.156 180.833 618.576L158.743 608.986C158.743 608.986 113.793 628.656 94.4635 614.876L94.2935 614.516C117.873 603.106 142.963 589.366 149.753 583.136V582.166C187.403 581.946 251.083 573.276 298.023 523.966H298.033C298.033 523.966 356.703 505.576 374.343 438.346L373.753 436.876C390.703 430.086 405.843 415.586 417.723 400.356L418.443 400.916C418.443 400.916 461.523 431.346 507.933 438.656C507.933 438.656 539.083 407.506 561.333 360.776L561.793 360.706Z" fill="white"/>
</mask>
<g mask="url(#mask2_920_192)">
<path d="M235.304 539.126C235.304 539.126 288.254 642.276 549.844 593.146L510.084 812.946L58.1336 839.646L-43.0264 604.456L235.304 539.116V539.126Z" fill="#D1EAF8"/>
</g>
<path d="M122.743 576.096C110.103 581.506 97.1733 586.486 84.7833 590.586C67.7533 596.226 51.7633 600.216 39.0033 601.396C28.6933 602.346 21.8233 601.916 17.5933 600.366C1.99327 594.626 22.1633 573.516 37.4133 549.266C56.8033 518.436 79.0533 463.196 79.0533 463.196C110.523 313.006 176.323 256.976 176.323 256.976C174.893 236.476 193.733 187.116 193.733 187.116L193.823 185.406C186.913 184.666 195.283 175.316 195.283 175.316L194.893 173.486C193.593 173.776 192.173 173.956 190.633 174.006C179.543 174.366 198.263 159.706 198.263 159.706C187.293 116.316 225.913 59.5761 225.913 59.5761L219.873 62.7461C219.873 62.7461 218.923 41.6161 244.993 44.4761C244.993 44.4761 237.993 21.2661 257.223 23.8061C257.223 23.8061 251.983 35.2561 253.253 37.4761C253.253 37.4761 322.473 -5.99392 378.503 3.30608C434.523 12.6061 503.183 64.1061 511.773 127.046C511.773 127.046 523.693 128.946 528.463 134.666L522.973 137.296C522.973 137.296 552.143 144.106 558.243 170.916C552.203 168.396 545.393 166.866 537.753 166.536C470.683 163.676 456.293 230.166 456.293 230.166C448.623 222.146 437.343 211.876 423.823 204.216L426.773 203.686C427.493 203.336 431.543 194.036 433.213 186.886C434.883 179.726 441.443 171.986 441.443 171.986L438.933 172.336C427.853 171.146 421.413 155.176 406.393 153.626C392.723 152.216 376.993 173.006 374.263 176.766C372.593 177.246 365.393 176.906 362.763 182.826C359.903 189.266 368.843 194.626 368.843 194.626L369.153 195.906C361.653 198.206 354.023 202.156 346.393 208.176C285.993 255.866 326.973 334.496 326.973 334.496C340.343 338.286 354.683 341.076 367.053 340.656C402.103 339.466 428.563 321.106 432.853 325.636C437.053 330.066 415.683 346.606 414.763 347.316C415.663 346.906 433.873 338.636 436.433 343.276C438.963 347.886 431.023 355.856 430.503 356.366C431.273 355.746 445.373 344.336 449.543 347.806C451.743 349.646 441.203 374.566 423.073 397.796C411.193 413.026 396.053 427.526 379.103 434.316L379.693 435.786C362.053 503.016 303.383 521.416 303.383 521.416H303.373C256.433 570.716 192.753 579.386 155.093 579.606C135.863 579.726 123.403 577.636 123.403 577.636L122.743 576.096Z" fill="#97DAFF"/>
<mask id="mask3_920_192" style="mask-type:luminance" maskUnits="userSpaceOnUse" x="12" y="1" width="547" height="601">
<path d="M123.194 576.08C110.554 581.49 97.6239 586.47 85.2339 590.57C68.2039 596.21 52.2139 600.2 39.4539 601.38C29.1439 602.33 22.274 601.9 18.044 600.35C2.44395 594.61 22.6139 573.5 37.8639 549.25C57.2539 518.42 79.504 463.18 79.504 463.18C110.974 312.99 176.774 256.96 176.774 256.96C175.344 236.46 194.184 187.1 194.184 187.1L194.274 185.39C187.364 184.65 195.734 175.3 195.734 175.3L195.344 173.47C194.044 173.76 192.624 173.94 191.084 173.99C179.994 174.35 198.714 159.69 198.714 159.69C187.744 116.3 226.364 59.5605 226.364 59.5605L220.324 62.7305C220.324 62.7305 219.374 41.6005 245.444 44.4605C245.444 44.4605 238.444 21.2505 257.674 23.7905C257.674 23.7905 252.434 35.2405 253.704 37.4605C253.704 37.4605 322.924 -6.00955 378.954 3.29045C434.974 12.5905 503.634 64.0905 512.224 127.03C512.224 127.03 524.144 128.93 528.914 134.65L523.424 137.28C523.424 137.28 552.594 144.09 558.694 170.9C552.654 168.38 545.844 166.85 538.204 166.52C471.134 163.66 456.744 230.15 456.744 230.15C449.074 222.13 437.794 211.86 424.274 204.2L427.224 203.67C427.944 203.32 431.994 194.02 433.664 186.87C435.334 179.71 441.894 171.97 441.894 171.97L439.384 172.32C428.304 171.13 421.864 155.16 406.844 153.61C393.174 152.2 377.444 172.99 374.714 176.75C373.044 177.23 365.844 176.89 363.214 182.81C360.354 189.25 369.294 194.61 369.294 194.61L369.604 195.89C362.104 198.19 354.474 202.14 346.844 208.16C286.444 255.85 327.424 334.48 327.424 334.48C340.794 338.27 355.134 341.06 367.504 340.64C402.554 339.45 429.014 321.09 433.304 325.62C437.504 330.05 416.134 346.59 415.214 347.3C416.114 346.89 434.324 338.62 436.884 343.26C439.414 347.87 431.474 355.84 430.954 356.35C431.724 355.73 445.824 344.32 449.994 347.79C452.194 349.63 441.654 374.55 423.524 397.78C411.644 413.01 396.504 427.51 379.554 434.3L380.144 435.77C362.504 503 303.834 521.4 303.834 521.4H303.824C256.884 570.7 193.204 579.37 155.544 579.59C136.314 579.71 123.854 577.62 123.854 577.62L123.194 576.08Z" fill="white"/>
</mask>
<g mask="url(#mask3_920_192)">
<path d="M333.413 436.486C333.413 436.486 376.413 439.986 393.413 436.486C396.58 440.986 397.713 450.286 376.913 451.486C356.113 452.686 339.246 441.986 333.413 436.486Z" fill="#2D83B3"/>
<path d="M369.913 9.48584C420.913 6.48584 478.413 62.4858 502.913 101.986L556.413 118.986L565.413 97.4858L573.913 14.4856C557.58 0.652359 523.213 -27.2142 516.413 -28.0142C507.913 -29.0142 282.413 -59.0142 276.413 -59.0142C270.413 -59.0142 126.913 21.9858 120.913 26.9858C116.113 30.9858 127.58 99.3192 133.913 132.986C151.08 146.653 189.613 162.986 206.413 118.986C227.413 63.9858 245.351 51.553 271.413 36.4858C281.413 30.7046 314.5 12.7454 369.913 9.48584Z" fill="white"/>
<path d="M510.878 201.59C470.078 222.79 454.419 193.519 457.878 169.59C460.706 150.025 481.178 140.89 500.378 142.09C524.378 143.59 561.878 175.09 510.878 201.59Z" fill="#F89E78"/>
<path d="M52.4531 427.796C52.4531 427.796 78.7831 471.126 127.273 454.256C127.273 454.256 145.603 507.666 216.553 489.976C216.553 489.976 242.353 512.176 271.483 502.646C271.483 502.646 295.763 523.836 309.043 509.526L302.803 576.096L155.103 696.906L-50.7669 676.876L-60.5869 580.576L52.4531 427.796Z" fill="#2D83B3"/>
</g>
<path d="M374.264 176.766C376.994 173.006 392.724 152.216 406.394 153.626C421.414 155.176 427.854 171.146 438.934 172.336L441.444 171.986C441.444 171.986 434.884 179.726 433.214 186.886C431.544 194.036 427.494 203.336 426.774 203.686L423.824 204.216C407.944 195.226 388.974 189.826 369.154 195.906L368.844 194.626C368.844 194.626 359.904 189.266 362.764 182.826C365.394 176.906 372.594 177.246 374.264 176.766Z" fill="#FCA986"/>
<path d="M155.093 579.606V580.576C148.313 586.806 123.223 600.546 99.6435 611.956C82.6435 620.196 66.4235 627.226 58.4335 629.376C39.3635 634.496 47.8235 619.716 47.8235 619.716L47.3535 618.926C57.9435 612.686 70.3535 603.576 84.7835 590.596C97.1735 586.486 110.103 581.506 122.743 576.096L123.403 577.636C123.403 577.636 135.863 579.726 155.093 579.606Z" fill="#33313C"/>
<path d="M84.7835 590.585C70.3535 603.575 57.9435 612.685 47.3535 618.925C27.7035 630.505 14.3035 632.235 5.94348 630.485C-6.92652 627.785 17.0735 601.895 17.0735 601.895L17.5935 600.365C21.8235 601.915 28.6935 602.345 39.0035 601.395C51.7635 600.215 67.7535 596.225 84.7835 590.585Z" fill="#2D83B3"/>
<path d="M190.263 176.016C187.593 176.016 185.943 175.166 185.333 173.486C183.963 169.726 190.153 163.646 196.023 158.936C187.853 123.516 210.593 80.8056 220.233 64.8256L218.023 65.9856L217.883 62.8456C217.863 62.4757 217.553 53.8056 224.003 47.7556C228.313 43.7156 234.503 41.8756 242.423 42.2757C241.613 38.1157 240.813 30.2857 244.873 25.5157C247.583 22.3257 251.833 21.0857 257.493 21.8457L260.173 22.1957L259.043 24.6557C257.523 27.9757 256.243 31.3856 255.563 33.7656C270.273 25.1256 329.083 -6.90435 378.833 1.34565C436.603 10.9356 504.123 62.9257 513.553 125.356C517.043 126.086 525.813 128.366 530.003 133.396L531.653 135.366L528.413 136.916C537.323 140.216 555.403 149.386 560.203 170.476C560.263 170.706 560.323 170.986 560.383 171.266C560.603 172.346 559.903 173.406 558.823 173.626C557.733 173.846 556.683 173.146 556.463 172.066C556.423 171.846 556.363 171.626 556.313 171.406C550.563 146.126 522.803 139.316 522.523 139.256L517.003 137.956L524.973 134.136C519.993 130.436 511.563 129.046 511.473 129.026L510.013 128.796L509.813 127.326C505.923 98.8456 488.813 70.1656 461.633 46.5856C436.783 25.0256 406.373 9.96565 378.193 5.29565C349.723 0.57565 317.613 10.0057 295.693 18.7557C271.813 28.2857 254.503 39.0856 254.333 39.1956L252.573 40.3056L251.533 38.4956C250.483 36.6656 251.403 32.3456 254.253 25.6457C251.413 25.6857 249.293 26.5156 247.933 28.1157C244.433 32.2257 246.023 40.9256 246.933 43.9256L247.803 46.8256L244.793 46.4956C236.763 45.6156 230.703 47.0156 226.783 50.6656C223.913 53.3356 222.723 56.7757 222.233 59.2856L232.083 54.1157L227.583 60.7257C227.203 61.2857 189.603 117.236 200.223 159.236L200.543 160.496L199.523 161.296C194.363 165.346 189.773 170.096 189.203 171.936C189.453 171.986 189.883 172.046 190.593 172.016C191.973 171.976 193.273 171.816 194.483 171.546C201.593 170.026 204.753 165.466 204.883 165.276C205.503 164.366 206.743 164.126 207.653 164.736C208.563 165.346 208.823 166.576 208.213 167.496C208.043 167.746 204.093 173.586 195.333 175.456C193.903 175.776 192.343 175.966 190.723 176.016C190.573 176.016 190.433 176.016 190.293 176.016H190.263Z" fill="black"/>
<path d="M194.794 187.456C194.364 187.456 193.954 187.436 193.574 187.386C190.874 187.096 189.794 185.716 189.364 184.606C187.944 180.906 192.384 175.536 193.784 173.976C194.524 173.156 195.784 173.086 196.604 173.816C197.424 174.556 197.494 175.816 196.764 176.636C194.354 179.336 192.794 182.406 193.094 183.166C193.094 183.166 193.254 183.326 194.024 183.406C194.634 183.476 195.404 183.456 196.334 183.336C206.574 182.066 212.424 167.786 212.484 167.646C212.894 166.626 214.064 166.126 215.084 166.536C216.104 166.946 216.604 168.106 216.194 169.136C215.924 169.816 209.414 185.746 196.824 187.306C196.084 187.396 195.404 187.446 194.784 187.446L194.794 187.456Z" fill="black"/>
<path d="M29.2534 603.396C24.0534 603.396 20.0334 602.856 17.0734 601.776C13.7834 600.566 11.7034 598.616 10.8634 595.986C8.57343 588.716 16.1734 577.746 25.8134 563.856C29.2434 558.906 32.7934 553.786 36.1434 548.466C54.8034 518.796 76.4234 465.676 77.6134 462.756C93.9134 385.026 119.563 332.966 138.213 302.966C156.633 273.346 171.673 259.116 174.783 256.326C173.823 235.346 191.563 188.576 192.333 186.576C192.623 185.806 193.493 185.416 194.273 185.706C195.043 185.996 195.433 186.866 195.143 187.646C194.953 188.136 176.433 236.936 177.833 256.866L177.883 257.616L177.303 258.106C177.143 258.246 160.713 272.436 140.673 304.696C122.173 334.486 96.7134 386.216 80.5234 463.486L80.4434 463.736C80.2234 464.286 57.9234 519.456 38.6834 550.046C35.3034 555.416 31.7334 560.566 28.2834 565.546C19.8534 577.716 11.8834 589.206 13.7334 595.066C14.2734 596.786 15.7134 598.056 18.1134 598.946C22.2434 600.456 29.2334 600.776 38.8634 599.886C50.8534 598.776 66.1434 595.166 84.3134 589.146C96.2734 585.186 109.003 580.326 122.153 574.706C158.893 558.976 191.243 540.566 202.673 528.896C203.253 528.306 204.203 528.296 204.793 528.876C205.383 529.456 205.393 530.406 204.813 530.996C193.143 542.926 160.393 561.606 123.333 577.466C110.103 583.126 97.2934 588.016 85.2534 591.996C66.8734 598.086 51.3534 601.746 39.1434 602.876C35.4734 603.216 32.1834 603.386 29.2634 603.386L29.2534 603.396Z" fill="black"/>
<path d="M11.8833 632.566C9.46327 632.566 7.39327 632.326 5.63327 631.956C2.55327 631.306 1.38327 629.526 0.94327 628.146C-1.60673 620.146 14.1633 602.826 15.9733 600.876C16.5333 600.266 17.4833 600.236 18.0933 600.796C18.7033 601.356 18.7333 602.306 18.1733 602.916C11.8133 609.786 2.28327 622.456 3.80327 627.236C3.99327 627.816 4.44327 628.636 6.25327 629.016C13.3333 630.496 26.0733 629.726 46.5933 617.636C57.9233 610.966 70.4333 601.486 83.7833 589.486C84.4033 588.926 85.3533 588.986 85.9033 589.596C86.4533 590.216 86.4033 591.156 85.7933 591.716C72.2933 603.856 59.6233 613.446 48.1233 620.226C31.7133 629.896 19.9233 632.576 11.8933 632.576L11.8833 632.566Z" fill="black"/>
<path d="M51.6532 631.956C48.8032 631.956 46.8032 631.176 45.5932 629.606C42.7132 625.876 46.1232 619.666 46.5232 618.976C46.9332 618.256 47.8532 618.016 48.5632 618.416C49.2832 618.826 49.5332 619.746 49.1232 620.456C48.3732 621.776 46.5532 625.936 47.9732 627.766C48.6532 628.646 50.8732 629.846 58.0432 627.916C65.3732 625.946 80.6833 619.466 98.9833 610.596C125.353 597.836 148.013 585.036 154.083 579.456C154.693 578.896 155.643 578.936 156.203 579.546C156.763 580.156 156.723 581.106 156.113 581.666C148.803 588.376 122.053 602.756 100.293 613.286C81.8232 622.236 66.3232 628.786 58.8232 630.806C56.0132 631.556 53.6332 631.936 51.6532 631.936V631.956Z" fill="black"/>
<path d="M153.513 581.116C135.263 581.116 123.273 579.146 123.143 579.116C122.323 578.976 121.773 578.206 121.913 577.386C122.053 576.566 122.833 576.015 123.643 576.155C123.763 576.175 136.223 578.205 155.073 578.105C189.713 577.905 254.903 570.136 302.273 520.376C303.463 519.146 304.543 517.975 305.603 516.795C306.153 516.175 307.103 516.126 307.723 516.676C308.343 517.226 308.393 518.175 307.843 518.795C306.763 520.005 305.653 521.196 304.443 522.446C256.313 573.006 190.213 580.895 155.093 581.105C154.563 581.105 154.033 581.105 153.513 581.105V581.116Z" fill="black"/>
<path d="M303.383 522.916C302.743 522.916 302.153 522.506 301.953 521.866C301.703 521.076 302.143 520.236 302.933 519.986C303.073 519.936 317.623 515.276 334.103 502.546C349.273 490.826 369.253 469.666 378.243 435.406C378.453 434.606 379.273 434.126 380.073 434.336C380.873 434.546 381.353 435.366 381.143 436.166C371.923 471.306 351.413 492.996 335.843 504.996C318.953 518.016 304.443 522.656 303.833 522.846C303.683 522.896 303.533 522.916 303.383 522.916Z" fill="black"/>
<path d="M204.923 330.476C204.693 330.476 204.463 330.426 204.253 330.316C203.513 329.946 203.213 329.046 203.583 328.306C203.933 327.596 207.173 321.376 211.653 320.806C212.473 320.706 213.223 321.286 213.333 322.106C213.433 322.926 212.853 323.676 212.033 323.786C209.573 324.096 206.983 328.226 206.263 329.646C206.003 330.166 205.473 330.476 204.923 330.476Z" fill="black"/>
<path d="M287.173 316.406C286.873 316.406 286.573 316.316 286.313 316.136C271.603 305.746 255.903 302.566 239.663 306.676C227.483 309.756 219.533 316.016 219.453 316.076C218.813 316.596 217.863 316.486 217.343 315.836C216.823 315.186 216.933 314.246 217.583 313.726C217.913 313.456 251.083 287.576 288.043 313.676C288.723 314.156 288.883 315.086 288.403 315.766C288.113 316.176 287.643 316.396 287.173 316.396V316.406Z" fill="black"/>
<path d="M359.254 439.836C357.884 439.836 356.514 439.776 355.164 439.666C354.334 439.596 353.724 438.866 353.794 438.046C353.864 437.216 354.574 436.596 355.414 436.676C362.944 437.316 370.724 436.056 378.534 432.926C396.834 425.596 412.204 409.276 421.884 396.876C439.144 374.766 448.564 352.446 448.344 348.806C446.204 347.766 438.964 351.476 431.454 357.516C430.864 358.006 429.974 357.986 429.424 357.436C428.844 356.846 428.824 355.916 429.414 355.326L429.564 355.186C434.344 351.336 445.904 342.816 450.504 346.646C452.414 348.236 450.654 354.566 445.274 365.436C442.084 371.886 435.114 384.796 424.254 398.706C414.354 411.396 398.584 428.116 379.654 435.696C372.804 438.436 365.954 439.816 359.254 439.816V439.836Z" fill="black"/>
<path d="M430.503 357.866C430.113 357.866 429.723 357.716 429.433 357.416C428.853 356.826 428.863 355.876 429.453 355.296C432.433 352.366 436.613 346.716 435.123 343.996C434.213 342.336 426.103 343.816 415.473 348.646C414.883 348.976 414.113 348.876 413.623 348.346C413.063 347.736 413.113 346.786 413.723 346.226C413.823 346.136 413.973 346.036 414.093 345.976C420.263 343.166 434.823 337.256 437.743 342.556C440.793 348.126 432.503 356.506 431.553 357.436C431.263 357.726 430.883 357.866 430.503 357.866Z" fill="black"/>
<path d="M414.764 348.816C414.314 348.816 413.874 348.616 413.574 348.236C413.064 347.576 413.194 346.636 413.844 346.136C420.934 340.666 431.594 331.116 431.894 327.216C431.924 326.836 431.814 326.726 431.764 326.676C430.664 325.506 423.584 328.126 417.344 330.446C405.554 334.836 387.734 341.456 367.104 342.156C356.084 342.526 342.454 340.446 326.564 335.946C302.224 329.046 280.784 318.746 280.574 318.646C279.824 318.286 279.514 317.386 279.874 316.646C280.234 315.896 281.134 315.586 281.874 315.946C282.084 316.046 303.294 326.246 327.384 333.066C342.974 337.476 356.294 339.526 367.004 339.156C387.144 338.476 404.694 331.946 416.304 327.626C426.084 323.996 431.474 321.986 433.944 324.606C434.644 325.346 434.974 326.326 434.884 327.446C434.394 333.756 418.804 346.096 415.674 348.506C415.404 348.716 415.084 348.816 414.754 348.816H414.764Z" fill="black"/>
<path d="M231.953 415.666C231.843 415.666 231.723 415.656 231.603 415.626C228.583 414.916 226.353 413.246 224.963 410.666C221.153 403.596 225.283 392.046 225.453 391.556C225.733 390.776 226.593 390.376 227.373 390.656C228.153 390.936 228.553 391.796 228.273 392.576C228.233 392.686 224.423 403.356 227.603 409.236C228.583 411.046 230.113 412.176 232.293 412.696C233.103 412.886 233.593 413.696 233.403 414.506C233.243 415.196 232.623 415.656 231.943 415.656L231.953 415.666Z" fill="black"/>
<path d="M252.853 437.286C252.723 437.286 252.593 437.266 252.463 437.236C241.803 434.386 235.143 429.566 232.663 422.896C229.143 413.396 235.523 403.876 235.803 403.476C236.273 402.786 237.203 402.616 237.883 403.086C238.563 403.556 238.743 404.486 238.273 405.166C238.193 405.286 232.493 413.846 235.483 421.876C237.603 427.566 243.573 431.766 253.233 434.346C254.033 434.556 254.513 435.386 254.293 436.186C254.113 436.856 253.503 437.296 252.843 437.296L252.853 437.286Z" fill="black"/>
<path d="M267.073 444.206C262.953 444.206 259.583 443.036 256.983 440.716C247.903 432.586 252.083 413.386 252.263 412.576C252.443 411.766 253.253 411.266 254.053 411.436C254.863 411.616 255.373 412.416 255.193 413.226C255.153 413.406 251.213 431.526 258.983 438.476C262.713 441.816 268.753 442.086 276.923 439.286C277.703 439.016 278.563 439.436 278.833 440.216C279.103 440.996 278.683 441.856 277.903 442.126C273.863 443.516 270.253 444.206 267.073 444.206Z" fill="black"/>
<path d="M314.493 457.416C305.923 457.416 298.563 450.816 296.263 448.516C291.303 450.386 287.073 450.246 283.653 448.096C276.573 443.646 275.943 432.206 275.913 431.726C275.873 430.896 276.513 430.196 277.333 430.156C278.183 430.116 278.863 430.756 278.903 431.576C278.903 431.676 279.493 441.946 285.253 445.556C288.013 447.286 291.643 447.226 296.053 445.366L297.033 444.956L297.743 445.746C297.833 445.846 306.593 455.396 316.003 454.326C320.883 453.766 325.203 450.386 328.833 444.286L316.383 434.916C315.723 434.416 315.593 433.476 316.083 432.816C316.583 432.156 317.523 432.026 318.183 432.516L332.733 443.476L332.103 444.616C327.833 452.326 322.533 456.596 316.323 457.306C315.703 457.376 315.083 457.416 314.473 457.416H314.493Z" fill="black"/>
<path d="M82.2335 568.716C75.2335 568.716 70.0035 566.846 66.5835 563.116C54.9335 550.386 68.9935 521.236 69.6035 519.996C69.9735 519.246 70.8735 518.946 71.6135 519.306C72.3535 519.666 72.6635 520.566 72.3035 521.316C72.1635 521.596 58.5235 549.866 68.8035 561.096C75.1535 568.036 89.4935 567.276 111.413 558.836C184.613 530.686 213.783 505.016 214.073 504.756C214.693 504.196 215.643 504.256 216.193 504.876C216.743 505.496 216.693 506.436 216.073 506.996C215.783 507.256 186.283 533.256 112.493 561.636C100.223 566.356 90.1135 568.716 82.2435 568.716H82.2335Z" fill="black"/>
<path d="M184.163 493.296C171.943 493.296 161.183 490.576 151.993 485.146C135.363 475.326 129.043 459.706 127.283 454.266C117.873 458.976 98.4233 457.486 97.5433 457.416C96.7133 457.346 96.1033 456.626 96.1633 455.796C96.2333 454.966 96.9732 454.366 97.7832 454.416C98.0032 454.436 119.743 456.106 127.323 450.766L129.123 449.496L129.643 451.636C129.693 451.836 134.693 471.456 153.563 482.576C168.543 491.406 188.023 492.656 211.473 486.306C212.273 486.086 213.093 486.566 213.313 487.356C213.533 488.156 213.063 488.976 212.263 489.196C202.203 491.926 192.823 493.286 184.183 493.286L184.163 493.296Z" fill="black"/>
<path d="M257.163 505.106C252.783 505.106 247.993 504.746 242.773 504.026C227.793 501.956 218.963 497.236 216.543 489.986C213.043 479.506 224.363 468.106 224.853 467.626C225.443 467.046 226.393 467.046 226.973 467.626C227.553 468.216 227.553 469.166 226.973 469.746C226.863 469.846 216.483 480.326 219.403 489.036C221.433 495.106 229.443 499.146 243.193 501.046C265.553 504.136 275.933 499.726 280.693 495.496C285.743 491.006 285.693 485.866 285.693 485.646C285.673 484.816 286.333 484.136 287.153 484.116C287.163 484.116 287.183 484.116 287.193 484.116C288.003 484.116 288.663 484.756 288.693 485.566C288.693 485.836 288.833 492.226 282.773 497.676C277.273 502.626 268.693 505.116 257.183 505.116L257.163 505.106Z" fill="black"/>
<path d="M296.523 513.256C282.293 513.256 272.233 505.196 271.693 504.756C271.053 504.236 270.953 503.286 271.483 502.646C272.013 502.006 272.953 501.906 273.593 502.436C273.753 502.566 289.423 515.046 308.533 508.116C309.313 507.836 310.173 508.236 310.453 509.016C310.733 509.796 310.333 510.656 309.553 510.936C304.953 512.606 300.573 513.256 296.523 513.256Z" fill="black"/>
<path d="M326.973 336.496C326.253 336.496 325.553 336.106 325.193 335.416C324.763 334.596 314.743 315.126 312.033 289.426C308.433 255.186 319.883 226.546 345.143 206.606C352.613 200.706 360.493 196.466 368.553 193.996C386.303 188.546 405.233 191.406 424.793 202.476C438.813 210.416 450.433 221.166 457.723 228.786C464.653 236.046 468.613 241.416 468.783 241.646C469.433 242.536 469.243 243.786 468.353 244.446C467.463 245.096 466.213 244.906 465.553 244.016C465.513 243.966 461.563 238.606 454.833 231.556C447.733 224.136 436.413 213.666 422.823 205.966C404.253 195.456 386.383 192.716 369.723 197.826C362.133 200.156 354.703 204.166 347.613 209.756C323.143 229.076 312.503 255.746 316.003 289.016C318.623 313.966 328.623 333.386 328.723 333.576C329.233 334.556 328.853 335.766 327.873 336.276C327.573 336.426 327.263 336.506 326.953 336.506L326.973 336.496Z" fill="black"/>
<path d="M597.033 298.316C596.823 298.316 596.613 298.286 596.403 298.216C595.353 297.866 594.783 296.736 595.133 295.686C599.403 282.746 601.713 257.006 596.673 231.076C589.333 193.296 571.303 178.516 557.473 172.766C551.483 170.266 544.823 168.846 537.663 168.536C510.603 167.376 489.043 177.416 473.563 198.356C461.933 214.096 458.283 230.436 458.243 230.596C458.013 231.676 456.943 232.356 455.863 232.126C454.783 231.896 454.103 230.826 454.333 229.746C454.483 229.046 458.163 212.516 470.253 196.096C481.473 180.866 502.293 163.026 537.833 164.546C545.463 164.876 552.593 166.396 559.003 169.076C606.653 188.886 608.583 267.686 598.923 296.946C598.643 297.786 597.863 298.316 597.023 298.316H597.033Z" fill="black"/>
<path d="M561.603 480.456C560.943 480.456 560.293 480.126 559.913 479.536C559.323 478.606 559.593 477.366 560.523 476.776C595.513 454.446 601.743 404.116 601.803 403.606L601.883 402.946L602.343 402.466C613.463 390.756 615.863 371.706 615.923 357.796C615.983 342.546 613.313 330.006 613.293 329.886C613.253 329.766 607.303 307.986 595.303 298.496C590.243 294.486 584.783 293.286 579.073 294.916C574.163 296.316 571.443 298.356 570.983 300.976C569.893 307.166 580.543 316.716 586.333 320.906C587.223 321.556 587.423 322.806 586.783 323.696C586.133 324.586 584.883 324.796 583.993 324.146C582.803 323.286 578.623 320.166 574.683 316.086C568.833 310.036 566.263 304.716 567.053 300.286C567.803 296.036 571.483 292.936 577.993 291.076C585.013 289.076 591.683 290.516 597.803 295.366C610.843 305.686 616.943 328.006 617.193 328.956C617.673 331.156 628.003 380.476 605.713 404.746C604.863 411.156 597.503 457.956 562.693 480.156C562.363 480.366 561.983 480.466 561.623 480.466L561.603 480.456Z" fill="black"/>
<path d="M573.283 336.496C572.903 336.496 572.533 336.386 572.203 336.176C571.683 335.866 567.723 333.466 564.213 329.626C561.333 326.476 559.553 323.236 558.923 319.996C558.443 317.526 559.593 316.186 560.323 315.606C561.763 314.456 564.863 313.296 575.073 316.556C579.753 318.046 584.193 319.916 585.573 320.506H587.153V322.166C587.273 322.756 587.113 323.396 586.683 323.876C586.243 324.356 585.633 324.576 585.023 324.526H584.363L584.023 324.196C575.143 320.336 564.353 317.166 562.813 318.736C562.813 318.736 562.783 318.886 562.853 319.236C563.333 321.746 564.793 324.336 567.163 326.926C570.243 330.296 573.773 332.456 574.213 332.716L574.393 332.806L574.623 333.016C575.443 333.756 575.503 335.026 574.753 335.846C574.363 336.276 573.813 336.496 573.273 336.496H573.283Z" fill="black"/>
<path d="M566.984 358.406C566.334 358.406 565.714 358.096 565.334 357.506C565.254 357.376 565.164 357.226 565.074 357.046L565.024 356.946C562.884 352.666 555.804 330.696 555.324 325.346C555.154 323.466 556.234 322.656 556.704 322.386C558.284 321.496 560.544 321.916 566.894 326.686C570.834 329.646 574.564 332.966 574.604 332.996C575.424 333.736 575.494 334.996 574.754 335.816C574.014 336.636 572.754 336.706 571.934 335.966C571.904 335.936 568.304 332.736 564.494 329.876C562.084 328.066 560.534 327.106 559.564 326.596C560.934 333.466 566.864 351.686 568.584 355.106L568.624 355.186C568.654 355.246 568.684 355.296 568.704 355.346C569.264 356.286 568.984 357.516 568.054 358.096C567.724 358.306 567.344 358.406 566.984 358.406Z" fill="black"/>
<path d="M513.973 438.226L512.963 438.066C466.633 430.766 423.063 400.286 422.633 399.986C421.733 399.346 421.513 398.106 422.153 397.196C422.793 396.296 424.033 396.076 424.943 396.716C425.363 397.016 467.553 426.516 512.573 433.946C517.313 429.006 544.883 399.336 564.873 357.346C565.353 356.346 566.543 355.926 567.543 356.396C568.543 356.866 568.963 358.066 568.493 359.066C546.353 405.566 515.013 437.186 514.703 437.506L513.983 438.226H513.973Z" fill="black"/>
<path d="M317.443 642.916C308.253 642.916 298.593 642.686 288.433 642.176H288.313C285.183 641.816 211.493 633.386 185.263 617.806L164.083 608.606C157.673 611.306 117.443 627.346 98.6432 613.946C97.7432 613.306 97.5332 612.056 98.1732 611.156C98.8132 610.256 100.063 610.046 100.963 610.686C119.143 623.646 162.843 604.786 163.283 604.596L164.083 604.246L187.203 614.306C212.283 629.306 286.173 637.896 288.703 638.186C298.813 638.686 308.443 638.926 317.613 638.926C438.923 638.926 479.133 597.936 479.553 597.486L479.853 597.226C519.433 569.326 546.173 529.166 559.323 477.876C573.453 422.766 567.363 372.546 565.153 358.466C564.993 357.516 564.873 356.806 564.803 356.366C564.753 356.046 564.723 355.886 564.713 355.856C564.493 354.776 565.183 353.726 566.263 353.496C567.343 353.266 568.403 353.956 568.633 355.036C568.633 355.036 568.683 355.256 568.753 355.706C568.833 356.126 568.953 356.856 569.113 357.836C571.353 372.126 577.523 423.026 563.203 478.876C549.823 531.056 522.603 571.936 482.313 600.396C480.813 601.916 468.873 613.406 440.433 624.146C416.723 633.096 377.073 642.926 317.443 642.926V642.916Z" fill="black"/>
<path d="M111.113 618.366C110.863 618.366 110.623 618.366 110.373 618.336C109.273 618.246 108.453 617.286 108.533 616.186C108.623 615.086 109.583 614.266 110.683 614.346C117.093 614.866 129.183 604.646 133.293 600.676C134.083 599.906 135.353 599.926 136.123 600.716C136.893 601.506 136.873 602.776 136.083 603.546C134.483 605.096 120.513 618.366 111.113 618.366Z" fill="black"/>
<path d="M368.833 196.626C368.483 196.626 368.133 196.536 367.803 196.346C367.373 196.086 357.383 189.986 360.923 182.016C363.533 176.136 369.673 175.366 372.613 175.006C372.963 174.966 373.373 174.916 373.593 174.866C374.353 174.456 375.303 174.566 375.953 175.196C376.743 175.966 376.753 177.236 375.973 178.026C375.573 178.426 375.113 178.596 374.803 178.686C374.353 178.816 373.803 178.886 373.113 178.966C370.553 179.286 366.283 179.816 364.583 183.636C362.483 188.376 369.793 192.866 369.863 192.906C370.803 193.476 371.113 194.706 370.543 195.646C370.163 196.266 369.503 196.616 368.833 196.616V196.626Z" fill="black"/>
<path d="M426.773 205.686C426.033 205.686 425.323 205.276 424.973 204.566C424.573 203.746 424.783 202.796 425.423 202.216C426.273 200.936 429.733 193.006 431.263 186.436C432.333 181.866 435.183 177.166 437.323 174.106C432.243 173.056 428.193 169.426 423.923 165.606C418.863 161.066 413.633 156.386 406.183 155.616C393.433 154.296 377.633 175.516 375.873 177.946C375.643 178.266 375.513 178.446 375.503 178.466C374.883 179.386 373.643 179.626 372.733 179.006C371.813 178.396 371.573 177.156 372.183 176.236C372.183 176.236 372.343 176.006 372.643 175.596C373.963 173.786 378.743 167.416 384.873 161.796C392.923 154.406 400.233 150.986 406.593 151.646C415.333 152.546 421.313 157.906 426.593 162.636C430.853 166.456 434.543 169.756 438.913 170.326L446.353 169.286L442.973 173.286C442.913 173.356 436.703 180.756 435.163 187.346C434.023 192.226 429.783 204.456 427.653 205.486C427.373 205.626 427.073 205.686 426.783 205.686H426.773Z" fill="black"/>
<path d="M419.294 195.876L393.214 182.896C383.484 184.496 372.784 181.436 372.324 181.306C371.264 180.996 370.654 179.886 370.964 178.826C371.274 177.766 372.384 177.156 373.444 177.466C373.554 177.496 384.214 180.526 393.144 178.856L393.804 178.736L418.034 190.796L429.084 175.476C429.734 174.586 430.984 174.376 431.874 175.026C432.774 175.676 432.974 176.926 432.324 177.816L419.294 195.896V195.876Z" fill="black"/>
<path d="M281.233 122.916C295.303 123.156 303.163 144.376 301.263 155.816C299.363 167.256 289.103 180.616 275.273 180.136C261.443 179.656 253.813 162.016 257.633 144.606C261.453 127.196 281.233 122.906 281.233 122.906V122.916Z" fill="#2D2B37"/>
<path d="M279.573 146.306C283.262 146.306 286.253 143.315 286.253 139.626C286.253 135.937 283.262 132.946 279.573 132.946C275.884 132.946 272.893 135.937 272.893 139.626C272.893 143.315 275.884 146.306 279.573 146.306Z" fill="white"/>
<path d="M467.563 98.5056C478.543 93.7356 492.103 107.396 494.653 116.936C497.203 126.476 493.973 140.426 483.093 144.916C472.213 149.406 460.093 138.436 456.923 123.616C453.753 108.796 467.563 98.5056 467.563 98.5056Z" fill="#2D2B37"/>
<path d="M472.154 117.706C475.291 117.706 477.834 115.163 477.834 112.026C477.834 108.889 475.291 106.346 472.154 106.346C469.017 106.346 466.474 108.889 466.474 112.026C466.474 115.163 469.017 117.706 472.154 117.706Z" fill="white"/>
<path d="M287.878 243.59C247.078 264.79 231.419 235.519 234.878 211.59C237.706 192.025 258.178 182.89 277.378 184.09C301.378 185.59 338.878 217.09 287.878 243.59Z" fill="#F89E78"/>
<path d="M251.206 102.471C236.406 112.471 246.039 97.3044 252.706 88.4711C253.539 86.9711 256.506 83.7711 261.706 82.9711C268.206 81.9711 269.706 89.9711 251.206 102.471Z" fill="white"/>
<path d="M269.206 95.971C263.206 96.371 270.039 87.4711 274.206 82.9711C275.548 81.4713 282.706 81.471 281.706 84.471C280.706 87.471 276.706 95.471 269.206 95.971Z" fill="white"/>
<path d="M294.706 88.4711C293.706 93.9711 290.706 95.971 287.706 95.971C284.706 95.971 287.706 88.4711 289.206 85.9712C290.706 83.4713 295.706 82.9711 294.706 88.4711Z" fill="white"/>
</svg>
