<svg width="620" height="695" viewBox="0 0 620 695" fill="none" xmlns="http://www.w3.org/2000/svg">
<ellipse cx="346.746" cy="662.486" rx="258" ry="32.5" fill="#363737"/>
<path d="M253.765 647.161C252.516 646.666 249.24 644.473 246.129 639.665L245.564 635.705L272.01 633.445L279.858 645.961C319.101 651.976 324.686 665.152 324.544 672.412C324.544 672.412 251.595 660.266 230.995 661.018C235.757 655.456 246.977 644.897 253.765 647.161Z" fill="#FA7166"/>
<path fill-rule="evenodd" clip-rule="evenodd" d="M243.285 633.893L273.056 631.348L281.067 644.126C300.293 647.166 311.639 651.97 318.209 657.149C324.981 662.487 326.627 668.19 326.544 672.451L326.499 674.765L324.216 674.385L324.544 672.412C324.216 674.385 324.216 674.385 324.216 674.385L324.008 674.35C323.87 674.328 323.664 674.294 323.395 674.249C322.857 674.161 322.065 674.031 321.049 673.866C319.017 673.536 316.09 673.065 312.513 672.502C305.359 671.376 295.608 669.883 285.215 668.413C264.334 665.461 241.15 662.649 231.068 663.017L226.509 663.183L229.476 659.717C231.929 656.852 236.04 652.701 240.454 649.531C242.659 647.947 245.013 646.554 247.329 645.71C247.605 645.609 247.884 645.515 248.165 645.429C246.961 644.205 245.684 642.659 244.45 640.751L244.212 640.383L243.285 633.893ZM322.351 670.025C321.837 667.248 320.166 663.785 315.733 660.291C309.837 655.644 299.022 650.922 279.555 647.939L278.65 647.8L270.964 635.542L247.843 637.518L248.046 638.94C250.915 643.234 253.756 645.006 254.502 645.302L253.133 649.058C252.037 648.693 250.565 648.788 248.698 649.468C246.853 650.141 244.831 651.312 242.787 652.779C240.178 654.654 237.652 656.926 235.566 659.026C247.428 659.374 267.684 661.895 285.775 664.453C296.194 665.926 305.968 667.422 313.135 668.55C316.719 669.114 319.653 669.586 321.69 669.918C321.922 669.955 322.143 669.991 322.351 670.025Z" fill="black"/>
<path d="M372.119 644.088C370.934 643.729 367.758 641.969 364.533 637.794L363.709 634.202L387.813 630.093L395.979 640.98C432.467 643.483 438.607 655.149 439.035 661.824C439.035 661.824 371.135 656.285 352.282 658.56C356.225 653.087 365.714 642.532 372.119 644.088Z" fill="#FA7166"/>
<path fill-rule="evenodd" clip-rule="evenodd" d="M361.286 632.587L388.68 627.918L397.031 639.051C414.884 640.368 425.679 643.906 432.132 648.17C438.8 652.576 440.776 657.729 441.031 661.697L441.179 664.007L438.872 663.819L439.035 661.825C438.872 663.819 438.873 663.819 438.872 663.819L438.869 663.818L438.679 663.803C438.55 663.793 438.359 663.777 438.109 663.757C437.608 663.717 436.871 663.659 435.926 663.586C434.035 663.439 431.312 663.232 427.986 662.99C421.333 662.507 412.267 661.886 402.614 661.337C383.214 660.232 361.731 659.435 352.521 660.546L347.992 661.093L350.659 657.391C352.696 654.565 356.159 650.428 359.979 647.168C361.887 645.539 363.953 644.07 366.032 643.109C366.202 643.03 366.374 642.954 366.548 642.881C365.395 641.868 364.166 640.592 362.95 639.017L362.681 638.67L361.286 632.587ZM436.625 659.628C435.905 657.196 434.108 654.27 429.927 651.507C424.19 647.716 413.929 644.217 395.842 642.976L394.929 642.914L386.945 632.271L366.131 635.819L366.382 636.912C369.322 640.594 372.03 641.972 372.698 642.174L371.647 646.032C370.661 645.793 369.356 645.979 367.711 646.739C366.086 647.491 364.332 648.711 362.575 650.211C360.431 652.04 358.383 654.198 356.68 656.204C367.661 655.646 386.23 656.397 402.842 657.343C412.521 657.894 421.609 658.516 428.276 659.001C431.61 659.243 434.339 659.45 436.235 659.598C436.369 659.608 436.499 659.618 436.625 659.628Z" fill="black"/>
<path d="M584.486 322.506C583.146 321.536 553.386 299.966 577.856 292.976C584.906 290.966 590.906 292.976 595.876 296.916C608.546 306.946 614.576 329.456 614.576 329.456C614.576 329.456 625.536 380.236 603.126 403.836C603.126 403.836 597.166 455.336 560.936 478.456L560.606 478.366C575.036 422.086 568.386 370.346 566.476 358.146C566.316 357.176 566.196 356.456 566.116 356.006C564.076 351.936 557.096 330.196 556.636 325.156C556.386 322.416 560.776 325.096 565.016 328.276C568.356 331.926 572.206 334.256 572.586 334.476C572.196 334.126 568.666 331.016 565.016 328.276C562.826 325.886 560.856 322.926 560.216 319.616C558.586 311.206 583.256 321.966 584.486 322.506Z" fill="#FFB097"/>
<mask id="mask0_920_268" style="mask-type:luminance" maskUnits="userSpaceOnUse" x="556" y="292" width="62" height="187">
<path d="M584.486 322.506C583.146 321.536 553.386 299.966 577.856 292.976C584.906 290.966 590.906 292.976 595.876 296.916C608.546 306.946 614.576 329.456 614.576 329.456C614.576 329.456 625.536 380.236 603.126 403.836C603.126 403.836 597.166 455.336 560.936 478.456L560.606 478.366C575.036 422.086 568.386 370.346 566.476 358.146C566.316 357.176 566.196 356.456 566.116 356.006C564.076 351.936 557.096 330.196 556.636 325.156C556.386 322.416 560.776 325.096 565.016 328.276C568.356 331.926 572.206 334.256 572.586 334.476C572.196 334.126 568.666 331.016 565.016 328.276C562.826 325.886 560.856 322.926 560.216 319.616C558.586 311.206 583.256 321.966 584.486 322.506Z" fill="white"/>
</mask>
<g mask="url(#mask0_920_268)">
<path d="M566.016 358.216C566.016 358.216 576.276 409.386 643.506 373.626L624.906 471.896L556.616 536.566L524.206 468.686L566.006 358.216" fill="#FC7F75"/>
</g>
<path d="M557.576 170.916C604.546 190.446 605.386 268.996 596.366 296.316L595.876 296.916C590.906 292.976 584.906 290.966 577.856 292.976C553.386 299.966 583.146 321.536 584.486 322.506C583.256 321.966 558.586 311.206 560.216 319.616C560.856 322.926 562.826 325.886 565.016 328.276C560.776 325.096 556.386 322.416 556.636 325.156C557.096 330.196 564.076 351.936 566.116 356.006C566.196 356.456 566.316 357.176 566.476 358.146L566.016 358.216C543.766 404.946 512.616 436.096 512.616 436.096C466.206 428.786 423.126 398.356 423.126 398.356L422.406 397.796C440.536 374.566 451.076 349.646 448.876 347.806C444.706 344.336 430.606 355.746 429.836 356.366C430.356 355.856 438.296 347.886 435.766 343.276C433.206 338.636 414.996 346.906 414.096 347.316C415.016 346.606 436.386 330.066 432.186 325.636C427.896 321.106 401.436 339.466 366.386 340.656C354.016 341.076 339.676 338.286 326.306 334.506C326.306 334.506 285.326 255.866 345.726 208.176C353.356 202.156 360.986 198.206 368.486 195.906C388.306 189.826 407.276 195.226 423.156 204.216C436.676 211.876 447.956 222.146 455.626 230.166C455.626 230.166 470.016 163.676 537.086 166.536C544.726 166.866 551.536 168.396 557.576 170.916Z" fill="#FC7F75"/>
<mask id="mask1_920_268" style="mask-type:luminance" maskUnits="userSpaceOnUse" x="312" y="166" width="289" height="271">
<path d="M557.576 170.916C604.546 190.446 605.386 268.996 596.366 296.316L595.876 296.916C590.906 292.976 584.906 290.966 577.856 292.976C553.386 299.966 583.146 321.536 584.486 322.506C583.256 321.966 558.586 311.206 560.216 319.616C560.856 322.926 562.826 325.886 565.016 328.276C560.776 325.096 556.386 322.416 556.636 325.156C557.096 330.196 564.076 351.936 566.116 356.006C566.196 356.456 566.316 357.176 566.476 358.146L566.016 358.216C543.766 404.946 512.616 436.096 512.616 436.096C466.206 428.786 423.126 398.356 423.126 398.356L422.406 397.796C440.536 374.566 451.076 349.646 448.876 347.806C444.706 344.336 430.606 355.746 429.836 356.366C430.356 355.856 438.296 347.886 435.766 343.276C433.206 338.636 414.996 346.906 414.096 347.316C415.016 346.606 436.386 330.066 432.186 325.636C427.896 321.106 401.436 339.466 366.386 340.656C354.016 341.076 339.676 338.286 326.306 334.506C326.306 334.506 285.326 255.866 345.726 208.176C353.356 202.156 360.986 198.206 368.486 195.906C388.306 189.826 407.276 195.226 423.156 204.216C436.676 211.876 447.956 222.146 455.626 230.166C455.626 230.166 470.016 163.676 537.086 166.536C544.726 166.866 551.536 168.396 557.576 170.916Z" fill="white"/>
</mask>
<g mask="url(#mask1_920_268)">
<path d="M669.765 292.833C552.809 320.084 507.718 227.738 499.792 178.159L566.329 134.65L659.042 188.727C711.348 212.074 786.721 265.582 669.765 292.833Z" fill="#FDAB93"/>
<path d="M345.726 208.176C345.726 208.176 351.936 376.376 572.586 442.706C793.236 509.036 440.776 499.536 440.776 499.536L201.636 478.606L243.336 278.266L298.796 219.936L345.716 208.176" fill="#FA7166"/>
</g>
<path d="M572.586 334.476C572.206 334.256 568.356 331.926 565.016 328.276C568.666 331.016 572.196 334.126 572.586 334.476Z" fill="#C7D1D8"/>
<path d="M561.126 360.706C563.036 372.906 569.686 424.646 555.256 480.926C544.326 523.546 521.316 568.766 474.996 601.416C474.996 601.416 429.066 650.046 282.526 642.736C282.526 642.736 206.226 634.156 180.166 618.576L158.076 608.986C158.076 608.986 113.126 628.656 93.796 614.876L93.626 614.516C117.206 603.106 142.296 589.366 149.086 583.136V582.166C186.736 581.946 250.416 573.276 297.356 523.966H297.366C297.366 523.966 356.036 505.576 373.676 438.346L373.086 436.876C390.036 430.086 405.176 415.586 417.056 400.356L417.776 400.916C417.776 400.916 460.856 431.346 507.266 438.656C507.266 438.656 538.416 407.506 560.666 360.776L561.126 360.706Z" fill="#FFF3E6"/>
<mask id="mask2_920_268" style="mask-type:luminance" maskUnits="userSpaceOnUse" x="93" y="360" width="472" height="284">
<path d="M561.126 360.706C563.036 372.906 569.686 424.646 555.256 480.926C544.326 523.546 521.316 568.766 474.996 601.416C474.996 601.416 429.066 650.046 282.526 642.736C282.526 642.736 206.226 634.156 180.166 618.576L158.076 608.986C158.076 608.986 113.126 628.656 93.796 614.876L93.626 614.516C117.206 603.106 142.296 589.366 149.086 583.136V582.166C186.736 581.946 250.416 573.276 297.356 523.966H297.366C297.366 523.966 356.036 505.576 373.676 438.346L373.086 436.876C390.036 430.086 405.176 415.586 417.056 400.356L417.776 400.916C417.776 400.916 460.856 431.346 507.266 438.656C507.266 438.656 538.416 407.506 560.666 360.776L561.126 360.706Z" fill="white"/>
</mask>
<g mask="url(#mask2_920_268)">
<path d="M234.636 539.126C234.636 539.126 287.586 642.276 549.176 593.146L509.416 812.946L57.4662 839.646L-43.6938 604.456L234.636 539.116V539.126Z" fill="#FFD7CA"/>
</g>
<path d="M122.076 576.096C109.436 581.506 96.5058 586.486 84.1158 590.586C67.0858 596.226 51.0958 600.216 38.3358 601.396C28.0258 602.346 21.1558 601.916 16.9258 600.366C1.32579 594.626 21.4958 573.516 36.7458 549.266C56.1358 518.436 78.3858 463.196 78.3858 463.196C109.856 313.006 175.656 256.976 175.656 256.976C174.226 236.476 193.066 187.116 193.066 187.116L193.156 185.406C186.246 184.666 194.616 175.316 194.616 175.316L194.226 173.486C192.926 173.776 191.506 173.956 189.966 174.006C178.876 174.366 197.596 159.706 197.596 159.706C186.626 116.316 225.246 59.5761 225.246 59.5761L219.206 62.7461C219.206 62.7461 218.256 41.6161 244.326 44.4761C244.326 44.4761 237.326 21.2661 256.556 23.8061C256.556 23.8061 251.316 35.2561 252.586 37.4761C252.586 37.4761 321.806 -5.99392 377.836 3.30608C433.856 12.6061 502.516 64.1061 511.106 127.046C511.106 127.046 523.026 128.946 527.796 134.666L522.306 137.296C522.306 137.296 551.476 144.106 557.576 170.916C551.536 168.396 544.726 166.866 537.086 166.536C470.016 163.676 455.626 230.166 455.626 230.166C447.956 222.146 436.676 211.876 423.156 204.216L426.106 203.686C426.826 203.336 430.876 194.036 432.546 186.886C434.216 179.726 440.776 171.986 440.776 171.986L438.266 172.336C427.186 171.146 420.746 155.176 405.726 153.626C392.056 152.216 376.326 173.006 373.596 176.766C371.926 177.246 364.726 176.906 362.096 182.826C359.236 189.266 368.176 194.626 368.176 194.626L368.486 195.906C360.986 198.206 353.356 202.156 345.726 208.176C285.326 255.866 326.306 334.496 326.306 334.496C339.676 338.286 354.016 341.076 366.386 340.656C401.436 339.466 427.896 321.106 432.186 325.636C436.386 330.066 415.016 346.606 414.096 347.316C414.996 346.906 433.206 338.636 435.766 343.276C438.296 347.886 430.356 355.856 429.836 356.366C430.606 355.746 444.706 344.336 448.876 347.806C451.076 349.646 440.536 374.566 422.406 397.796C410.526 413.026 395.386 427.526 378.436 434.316L379.026 435.786C361.386 503.016 302.716 521.416 302.716 521.416H302.706C255.766 570.716 192.086 579.386 154.426 579.606C135.196 579.726 122.736 577.636 122.736 577.636L122.076 576.096Z" fill="#FFB097"/>
<mask id="mask3_920_268" style="mask-type:luminance" maskUnits="userSpaceOnUse" x="11" y="1" width="548" height="601">
<path d="M122.527 576.08C109.887 581.49 96.957 586.47 84.567 590.57C67.537 596.21 51.547 600.2 38.787 601.38C28.477 602.33 21.607 601.9 17.377 600.35C1.77696 594.61 21.947 573.5 37.197 549.25C56.587 518.42 78.837 463.18 78.837 463.18C110.307 312.99 176.107 256.96 176.107 256.96C174.677 236.46 193.517 187.1 193.517 187.1L193.607 185.39C186.697 184.65 195.067 175.3 195.067 175.3L194.677 173.47C193.377 173.76 191.957 173.94 190.417 173.99C179.327 174.35 198.047 159.69 198.047 159.69C187.077 116.3 225.697 59.5605 225.697 59.5605L219.657 62.7305C219.657 62.7305 218.707 41.6005 244.777 44.4605C244.777 44.4605 237.777 21.2505 257.007 23.7905C257.007 23.7905 251.767 35.2405 253.037 37.4605C253.037 37.4605 322.257 -6.00955 378.287 3.29045C434.307 12.5905 502.967 64.0905 511.557 127.03C511.557 127.03 523.477 128.93 528.247 134.65L522.757 137.28C522.757 137.28 551.927 144.09 558.027 170.9C551.987 168.38 545.177 166.85 537.537 166.52C470.467 163.66 456.077 230.15 456.077 230.15C448.407 222.13 437.127 211.86 423.607 204.2L426.557 203.67C427.277 203.32 431.327 194.02 432.997 186.87C434.667 179.71 441.227 171.97 441.227 171.97L438.717 172.32C427.637 171.13 421.197 155.16 406.177 153.61C392.507 152.2 376.777 172.99 374.047 176.75C372.377 177.23 365.177 176.89 362.547 182.81C359.687 189.25 368.627 194.61 368.627 194.61L368.937 195.89C361.437 198.19 353.807 202.14 346.177 208.16C285.777 255.85 326.757 334.48 326.757 334.48C340.127 338.27 354.467 341.06 366.837 340.64C401.887 339.45 428.347 321.09 432.637 325.62C436.837 330.05 415.467 346.59 414.547 347.3C415.447 346.89 433.657 338.62 436.217 343.26C438.747 347.87 430.807 355.84 430.287 356.35C431.057 355.73 445.157 344.32 449.327 347.79C451.527 349.63 440.987 374.55 422.857 397.78C410.977 413.01 395.837 427.51 378.887 434.3L379.477 435.77C361.837 503 303.167 521.4 303.167 521.4H303.157C256.217 570.7 192.537 579.37 154.877 579.59C135.647 579.71 123.187 577.62 123.187 577.62L122.527 576.08Z" fill="white"/>
</mask>
<g mask="url(#mask3_920_268)">
<path d="M332.746 436.486C332.746 436.486 375.746 439.986 392.746 436.486C395.913 440.986 397.046 450.286 376.246 451.486C355.446 452.686 338.579 441.986 332.746 436.486Z" fill="#FC7F75"/>
<path d="M369.246 9.48584C420.246 6.48584 477.746 62.4858 502.246 101.986L555.746 118.986L564.746 97.4858L573.246 14.4856C556.913 0.652359 522.546 -27.2142 515.746 -28.0142C507.246 -29.0142 281.746 -59.0142 275.746 -59.0142C269.746 -59.0142 126.246 21.9858 120.246 26.9858C115.446 30.9858 126.913 99.3192 133.246 132.986C150.413 146.653 188.946 162.986 205.746 118.986C226.746 63.9858 244.684 51.553 270.746 36.4858C280.746 30.7046 313.833 12.7454 369.246 9.48584Z" fill="white"/>
<path d="M510.211 201.59C469.411 222.79 453.752 193.519 457.211 169.59C460.039 150.025 480.511 140.89 499.711 142.09C523.711 143.59 561.211 175.09 510.211 201.59Z" fill="#FF8F5F"/>
<path d="M51.7861 427.796C51.7861 427.796 78.1161 471.126 126.606 454.256C126.606 454.256 144.936 507.666 215.886 489.976C215.886 489.976 241.686 512.176 270.816 502.646C270.816 502.646 295.096 523.836 308.376 509.526L302.136 576.096L154.436 696.906L-51.4339 676.876L-61.2539 580.576L51.7861 427.796Z" fill="#FC7F75"/>
</g>
<path d="M373.596 176.766C376.326 173.006 392.056 152.216 405.726 153.626C420.746 155.176 427.186 171.146 438.266 172.336L440.776 171.986C440.776 171.986 434.216 179.726 432.546 186.886C430.876 194.036 426.826 203.336 426.106 203.686L423.156 204.216C407.276 195.226 388.306 189.826 368.486 195.906L368.176 194.626C368.176 194.626 359.236 189.266 362.096 182.826C364.726 176.906 371.926 177.246 373.596 176.766Z" fill="#FCA986"/>
<path d="M154.426 579.606V580.576C147.646 586.806 122.556 600.546 98.976 611.956C81.976 620.196 65.756 627.226 57.766 629.376C38.696 634.496 47.156 619.716 47.156 619.716L46.686 618.926C57.276 612.686 69.686 603.576 84.116 590.596C96.506 586.486 109.436 581.506 122.076 576.096L122.736 577.636C122.736 577.636 135.196 579.726 154.426 579.606Z" fill="#33313C"/>
<path d="M84.116 590.585C69.686 603.575 57.276 612.685 46.686 618.925C27.036 630.505 13.636 632.235 5.276 630.485C-7.594 627.785 16.406 601.895 16.406 601.895L16.926 600.365C21.156 601.915 28.026 602.345 38.336 601.395C51.096 600.215 67.086 596.225 84.116 590.585Z" fill="#FC7F75"/>
<path d="M189.596 176.016C186.926 176.016 185.276 175.166 184.666 173.486C183.296 169.726 189.486 163.646 195.356 158.936C187.186 123.516 209.926 80.8056 219.566 64.8256L217.356 65.9856L217.216 62.8456C217.196 62.4757 216.886 53.8056 223.336 47.7556C227.646 43.7156 233.836 41.8756 241.756 42.2757C240.946 38.1157 240.146 30.2857 244.206 25.5157C246.916 22.3257 251.166 21.0857 256.826 21.8457L259.506 22.1957L258.376 24.6557C256.856 27.9757 255.576 31.3856 254.896 33.7656C269.606 25.1256 328.416 -6.90435 378.166 1.34565C435.936 10.9356 503.456 62.9257 512.886 125.356C516.376 126.086 525.146 128.366 529.336 133.396L530.986 135.366L527.746 136.916C536.656 140.216 554.736 149.386 559.536 170.476C559.596 170.706 559.656 170.986 559.716 171.266C559.936 172.346 559.236 173.406 558.156 173.626C557.066 173.846 556.016 173.146 555.796 172.066C555.756 171.846 555.696 171.626 555.646 171.406C549.896 146.126 522.136 139.316 521.856 139.256L516.336 137.956L524.306 134.136C519.326 130.436 510.896 129.046 510.806 129.026L509.346 128.796L509.146 127.326C505.256 98.8456 488.146 70.1656 460.966 46.5856C436.116 25.0256 405.706 9.96565 377.526 5.29565C349.056 0.57565 316.946 10.0057 295.026 18.7557C271.146 28.2857 253.836 39.0856 253.666 39.1956L251.906 40.3056L250.866 38.4956C249.816 36.6656 250.736 32.3456 253.586 25.6457C250.746 25.6857 248.626 26.5156 247.266 28.1157C243.766 32.2257 245.356 40.9256 246.266 43.9256L247.136 46.8256L244.126 46.4956C236.096 45.6156 230.036 47.0156 226.116 50.6656C223.246 53.3356 222.056 56.7757 221.566 59.2856L231.416 54.1157L226.916 60.7257C226.536 61.2857 188.936 117.236 199.556 159.236L199.876 160.496L198.856 161.296C193.696 165.346 189.106 170.096 188.536 171.936C188.786 171.986 189.216 172.046 189.926 172.016C191.306 171.976 192.606 171.816 193.816 171.546C200.926 170.026 204.086 165.466 204.216 165.276C204.836 164.366 206.076 164.126 206.986 164.736C207.896 165.346 208.156 166.576 207.546 167.496C207.376 167.746 203.426 173.586 194.666 175.456C193.236 175.776 191.676 175.966 190.056 176.016C189.906 176.016 189.766 176.016 189.626 176.016H189.596Z" fill="black"/>
<path d="M194.126 187.456C193.696 187.456 193.286 187.436 192.906 187.386C190.206 187.096 189.126 185.716 188.696 184.606C187.276 180.906 191.716 175.536 193.116 173.976C193.856 173.156 195.116 173.086 195.936 173.816C196.756 174.556 196.826 175.816 196.096 176.636C193.686 179.336 192.126 182.406 192.426 183.166C192.426 183.166 192.586 183.326 193.356 183.406C193.966 183.476 194.736 183.456 195.666 183.336C205.906 182.066 211.756 167.786 211.816 167.646C212.226 166.626 213.396 166.126 214.416 166.536C215.436 166.946 215.936 168.106 215.526 169.136C215.256 169.816 208.746 185.746 196.156 187.306C195.416 187.396 194.736 187.446 194.116 187.446L194.126 187.456Z" fill="black"/>
<path d="M28.5859 603.396C23.3859 603.396 19.366 602.856 16.406 601.776C13.116 600.566 11.0359 598.616 10.1959 595.986C7.90595 588.716 15.5059 577.746 25.146 563.856C28.576 558.906 32.126 553.786 35.476 548.466C54.136 518.796 75.7559 465.676 76.9459 462.756C93.2459 385.026 118.896 332.966 137.546 302.966C155.966 273.346 171.006 259.116 174.116 256.326C173.156 235.346 190.896 188.576 191.666 186.576C191.956 185.806 192.826 185.416 193.606 185.706C194.376 185.996 194.766 186.866 194.476 187.646C194.286 188.136 175.766 236.936 177.166 256.866L177.216 257.616L176.636 258.106C176.476 258.246 160.046 272.436 140.006 304.696C121.506 334.486 96.046 386.216 79.8559 463.486L79.7759 463.736C79.5559 464.286 57.2559 519.456 38.0159 550.046C34.6359 555.416 31.066 560.566 27.616 565.546C19.186 577.716 11.2159 589.206 13.0659 595.066C13.6059 596.786 15.0459 598.056 17.4459 598.946C21.5759 600.456 28.5659 600.776 38.1959 599.886C50.1859 598.776 65.4759 595.166 83.6459 589.146C95.6059 585.186 108.336 580.326 121.486 574.706C158.226 558.976 190.576 540.566 202.006 528.896C202.586 528.306 203.536 528.296 204.126 528.876C204.716 529.456 204.726 530.406 204.146 530.996C192.476 542.926 159.726 561.606 122.666 577.466C109.436 583.126 96.6259 588.016 84.5859 591.996C66.2059 598.086 50.686 601.746 38.476 602.876C34.806 603.216 31.5159 603.386 28.5959 603.386L28.5859 603.396Z" fill="black"/>
<path d="M11.2158 632.566C8.79579 632.566 6.72579 632.326 4.96579 631.956C1.88579 631.306 0.715789 629.526 0.275789 628.146C-2.27421 620.146 13.4958 602.826 15.3058 600.876C15.8658 600.266 16.8158 600.236 17.4258 600.796C18.0358 601.356 18.0658 602.306 17.5058 602.916C11.1458 609.786 1.61579 622.456 3.13579 627.236C3.32579 627.816 3.77579 628.636 5.58579 629.016C12.6658 630.496 25.4058 629.726 45.9258 617.636C57.2558 610.966 69.7658 601.486 83.1158 589.486C83.7358 588.926 84.6858 588.986 85.2358 589.596C85.7858 590.216 85.7358 591.156 85.1258 591.716C71.6258 603.856 58.9558 613.446 47.4558 620.226C31.0458 629.896 19.2558 632.576 11.2258 632.576L11.2158 632.566Z" fill="black"/>
<path d="M50.9858 631.956C48.1358 631.956 46.1358 631.176 44.9258 629.606C42.0458 625.876 45.4558 619.666 45.8558 618.976C46.2658 618.256 47.1858 618.016 47.8958 618.416C48.6158 618.826 48.8658 619.746 48.4558 620.456C47.7058 621.776 45.8858 625.936 47.3058 627.766C47.9858 628.646 50.2058 629.846 57.3758 627.916C64.7058 625.946 80.0158 619.466 98.3158 610.596C124.686 597.836 147.346 585.036 153.416 579.456C154.026 578.896 154.976 578.936 155.536 579.546C156.096 580.156 156.056 581.106 155.446 581.666C148.136 588.376 121.386 602.756 99.6258 613.286C81.1558 622.236 65.6558 628.786 58.1558 630.806C55.3458 631.556 52.9658 631.936 50.9858 631.936V631.956Z" fill="black"/>
<path d="M152.846 581.116C134.596 581.116 122.606 579.146 122.476 579.116C121.656 578.976 121.106 578.206 121.246 577.386C121.386 576.566 122.166 576.015 122.976 576.155C123.096 576.175 135.556 578.205 154.406 578.105C189.046 577.905 254.236 570.136 301.606 520.376C302.796 519.146 303.876 517.975 304.936 516.795C305.486 516.175 306.436 516.126 307.056 516.676C307.676 517.226 307.726 518.175 307.176 518.795C306.096 520.005 304.986 521.196 303.776 522.446C255.646 573.006 189.546 580.895 154.426 581.105C153.896 581.105 153.366 581.105 152.846 581.105V581.116Z" fill="black"/>
<path d="M302.716 522.916C302.076 522.916 301.486 522.506 301.286 521.866C301.036 521.076 301.476 520.236 302.266 519.986C302.406 519.936 316.956 515.276 333.436 502.546C348.606 490.826 368.586 469.666 377.576 435.406C377.786 434.606 378.606 434.126 379.406 434.336C380.206 434.546 380.686 435.366 380.476 436.166C371.256 471.306 350.746 492.996 335.176 504.996C318.286 518.016 303.776 522.656 303.166 522.846C303.016 522.896 302.866 522.916 302.716 522.916Z" fill="black"/>
<path d="M204.256 330.476C204.026 330.476 203.796 330.426 203.586 330.316C202.846 329.946 202.546 329.046 202.916 328.306C203.266 327.596 206.506 321.376 210.986 320.806C211.806 320.706 212.556 321.286 212.666 322.106C212.766 322.926 212.186 323.676 211.366 323.786C208.906 324.096 206.316 328.226 205.596 329.646C205.336 330.166 204.806 330.476 204.256 330.476Z" fill="black"/>
<path d="M286.506 316.406C286.206 316.406 285.906 316.316 285.646 316.136C270.936 305.746 255.236 302.566 238.996 306.676C226.816 309.756 218.866 316.016 218.786 316.076C218.146 316.596 217.196 316.486 216.676 315.836C216.156 315.186 216.266 314.246 216.916 313.726C217.246 313.456 250.416 287.576 287.376 313.676C288.056 314.156 288.216 315.086 287.736 315.766C287.446 316.176 286.976 316.396 286.506 316.396V316.406Z" fill="black"/>
<path d="M358.586 439.836C357.216 439.836 355.846 439.776 354.496 439.666C353.666 439.596 353.056 438.866 353.126 438.046C353.196 437.216 353.906 436.596 354.746 436.676C362.276 437.316 370.056 436.056 377.866 432.926C396.166 425.596 411.536 409.276 421.216 396.876C438.476 374.766 447.896 352.446 447.676 348.806C445.536 347.766 438.296 351.476 430.786 357.516C430.196 358.006 429.306 357.986 428.756 357.436C428.176 356.846 428.156 355.916 428.746 355.326L428.896 355.186C433.676 351.336 445.236 342.816 449.836 346.646C451.746 348.236 449.986 354.566 444.606 365.436C441.416 371.886 434.446 384.796 423.586 398.706C413.686 411.396 397.916 428.116 378.986 435.696C372.136 438.436 365.286 439.816 358.586 439.816V439.836Z" fill="black"/>
<path d="M429.836 357.866C429.446 357.866 429.056 357.716 428.766 357.416C428.186 356.826 428.196 355.876 428.786 355.296C431.766 352.366 435.946 346.716 434.456 343.996C433.546 342.336 425.436 343.816 414.806 348.646C414.216 348.976 413.446 348.876 412.956 348.346C412.396 347.736 412.446 346.786 413.056 346.226C413.156 346.136 413.306 346.036 413.426 345.976C419.596 343.166 434.156 337.256 437.076 342.556C440.126 348.126 431.836 356.506 430.886 357.436C430.596 357.726 430.216 357.866 429.836 357.866Z" fill="black"/>
<path d="M414.096 348.816C413.646 348.816 413.206 348.616 412.906 348.236C412.396 347.576 412.526 346.636 413.176 346.136C420.266 340.666 430.926 331.116 431.226 327.216C431.256 326.836 431.146 326.726 431.096 326.676C429.996 325.506 422.916 328.126 416.676 330.446C404.886 334.836 387.066 341.456 366.436 342.156C355.416 342.526 341.786 340.446 325.896 335.946C301.556 329.046 280.116 318.746 279.906 318.646C279.156 318.286 278.846 317.386 279.206 316.646C279.566 315.896 280.466 315.586 281.206 315.946C281.416 316.046 302.626 326.246 326.716 333.066C342.306 337.476 355.626 339.526 366.336 339.156C386.476 338.476 404.026 331.946 415.636 327.626C425.416 323.996 430.806 321.986 433.276 324.606C433.976 325.346 434.306 326.326 434.216 327.446C433.726 333.756 418.136 346.096 415.006 348.506C414.736 348.716 414.416 348.816 414.086 348.816H414.096Z" fill="black"/>
<path d="M231.286 415.666C231.176 415.666 231.056 415.656 230.936 415.626C227.916 414.916 225.686 413.246 224.296 410.666C220.486 403.596 224.616 392.046 224.786 391.556C225.066 390.776 225.926 390.376 226.706 390.656C227.486 390.936 227.886 391.796 227.606 392.576C227.566 392.686 223.756 403.356 226.936 409.236C227.916 411.046 229.446 412.176 231.626 412.696C232.436 412.886 232.926 413.696 232.736 414.506C232.576 415.196 231.956 415.656 231.276 415.656L231.286 415.666Z" fill="black"/>
<path d="M252.186 437.286C252.056 437.286 251.926 437.266 251.796 437.236C241.136 434.386 234.476 429.566 231.996 422.896C228.476 413.396 234.856 403.876 235.136 403.476C235.606 402.786 236.536 402.616 237.216 403.086C237.896 403.556 238.076 404.486 237.606 405.166C237.526 405.286 231.826 413.846 234.816 421.876C236.936 427.566 242.906 431.766 252.566 434.346C253.366 434.556 253.846 435.386 253.626 436.186C253.446 436.856 252.836 437.296 252.176 437.296L252.186 437.286Z" fill="black"/>
<path d="M266.406 444.206C262.286 444.206 258.916 443.036 256.316 440.716C247.236 432.586 251.416 413.386 251.596 412.576C251.776 411.766 252.586 411.266 253.386 411.436C254.196 411.616 254.706 412.416 254.526 413.226C254.486 413.406 250.546 431.526 258.316 438.476C262.046 441.816 268.086 442.086 276.256 439.286C277.036 439.016 277.896 439.436 278.166 440.216C278.436 440.996 278.016 441.856 277.236 442.126C273.196 443.516 269.586 444.206 266.406 444.206Z" fill="black"/>
<path d="M313.826 457.416C305.256 457.416 297.896 450.816 295.596 448.516C290.636 450.386 286.406 450.246 282.986 448.096C275.906 443.646 275.276 432.206 275.246 431.726C275.206 430.896 275.846 430.196 276.666 430.156C277.516 430.116 278.196 430.756 278.236 431.576C278.236 431.676 278.826 441.946 284.586 445.556C287.346 447.286 290.976 447.226 295.386 445.366L296.366 444.956L297.076 445.746C297.166 445.846 305.926 455.396 315.336 454.326C320.216 453.766 324.536 450.386 328.166 444.286L315.716 434.916C315.056 434.416 314.926 433.476 315.416 432.816C315.916 432.156 316.856 432.026 317.516 432.516L332.066 443.476L331.436 444.616C327.166 452.326 321.866 456.596 315.656 457.306C315.036 457.376 314.416 457.416 313.806 457.416H313.826Z" fill="black"/>
<path d="M81.566 568.716C74.566 568.716 69.336 566.846 65.916 563.116C54.266 550.386 68.326 521.236 68.936 519.996C69.306 519.246 70.206 518.946 70.946 519.306C71.686 519.666 71.996 520.566 71.636 521.316C71.496 521.596 57.856 549.866 68.136 561.096C74.486 568.036 88.826 567.276 110.746 558.836C183.946 530.686 213.116 505.016 213.406 504.756C214.026 504.196 214.976 504.256 215.526 504.876C216.076 505.496 216.026 506.436 215.406 506.996C215.116 507.256 185.616 533.256 111.826 561.636C99.556 566.356 89.446 568.716 81.576 568.716H81.566Z" fill="black"/>
<path d="M183.496 493.296C171.276 493.296 160.516 490.576 151.326 485.146C134.696 475.326 128.376 459.706 126.616 454.266C117.206 458.976 97.7558 457.486 96.8758 457.416C96.0458 457.346 95.4358 456.626 95.4958 455.796C95.5658 454.966 96.3058 454.366 97.1158 454.416C97.3358 454.436 119.076 456.106 126.656 450.766L128.456 449.496L128.976 451.636C129.026 451.836 134.026 471.456 152.896 482.576C167.876 491.406 187.356 492.656 210.806 486.306C211.606 486.086 212.426 486.566 212.646 487.356C212.866 488.156 212.396 488.976 211.596 489.196C201.536 491.926 192.156 493.286 183.516 493.286L183.496 493.296Z" fill="black"/>
<path d="M256.496 505.106C252.116 505.106 247.326 504.746 242.106 504.026C227.126 501.956 218.296 497.236 215.876 489.986C212.376 479.506 223.696 468.106 224.186 467.626C224.776 467.046 225.726 467.046 226.306 467.626C226.886 468.216 226.886 469.166 226.306 469.746C226.196 469.846 215.816 480.326 218.736 489.036C220.766 495.106 228.776 499.146 242.526 501.046C264.886 504.136 275.266 499.726 280.026 495.496C285.076 491.006 285.026 485.866 285.026 485.646C285.006 484.816 285.666 484.136 286.486 484.116C286.496 484.116 286.516 484.116 286.526 484.116C287.336 484.116 287.996 484.756 288.026 485.566C288.026 485.836 288.166 492.226 282.106 497.676C276.606 502.626 268.026 505.116 256.516 505.116L256.496 505.106Z" fill="black"/>
<path d="M295.856 513.256C281.626 513.256 271.566 505.196 271.026 504.756C270.386 504.236 270.286 503.286 270.816 502.646C271.346 502.006 272.286 501.906 272.926 502.436C273.086 502.566 288.756 515.046 307.866 508.116C308.646 507.836 309.506 508.236 309.786 509.016C310.066 509.796 309.666 510.656 308.886 510.936C304.286 512.606 299.906 513.256 295.856 513.256Z" fill="black"/>
<path d="M326.306 336.496C325.586 336.496 324.886 336.106 324.526 335.416C324.096 334.596 314.076 315.126 311.366 289.426C307.766 255.186 319.216 226.546 344.476 206.606C351.946 200.706 359.826 196.466 367.886 193.996C385.636 188.546 404.566 191.406 424.126 202.476C438.146 210.416 449.766 221.166 457.056 228.786C463.986 236.046 467.946 241.416 468.116 241.646C468.766 242.536 468.576 243.786 467.686 244.446C466.796 245.096 465.546 244.906 464.886 244.016C464.846 243.966 460.896 238.606 454.166 231.556C447.066 224.136 435.746 213.666 422.156 205.966C403.586 195.456 385.716 192.716 369.056 197.826C361.466 200.156 354.036 204.166 346.946 209.756C322.476 229.076 311.836 255.746 315.336 289.016C317.956 313.966 327.956 333.386 328.056 333.576C328.566 334.556 328.186 335.766 327.206 336.276C326.906 336.426 326.596 336.506 326.286 336.506L326.306 336.496Z" fill="black"/>
<path d="M596.366 298.316C596.156 298.316 595.946 298.286 595.736 298.216C594.686 297.866 594.116 296.736 594.466 295.686C598.736 282.746 601.046 257.006 596.006 231.076C588.666 193.296 570.636 178.516 556.806 172.766C550.816 170.266 544.156 168.846 536.996 168.536C509.936 167.376 488.376 177.416 472.896 198.356C461.266 214.096 457.616 230.436 457.576 230.596C457.346 231.676 456.276 232.356 455.196 232.126C454.116 231.896 453.436 230.826 453.666 229.746C453.816 229.046 457.496 212.516 469.586 196.096C480.806 180.866 501.626 163.026 537.166 164.546C544.796 164.876 551.926 166.396 558.336 169.076C605.986 188.886 607.916 267.686 598.256 296.946C597.976 297.786 597.196 298.316 596.356 298.316H596.366Z" fill="black"/>
<path d="M560.936 480.456C560.276 480.456 559.626 480.126 559.246 479.536C558.656 478.606 558.926 477.366 559.856 476.776C594.846 454.446 601.076 404.116 601.136 403.606L601.216 402.946L601.676 402.466C612.796 390.756 615.196 371.706 615.256 357.796C615.316 342.546 612.646 330.006 612.626 329.886C612.586 329.766 606.636 307.986 594.636 298.496C589.576 294.486 584.116 293.286 578.406 294.916C573.496 296.316 570.776 298.356 570.316 300.976C569.226 307.166 579.876 316.716 585.666 320.906C586.556 321.556 586.756 322.806 586.116 323.696C585.466 324.586 584.216 324.796 583.326 324.146C582.136 323.286 577.956 320.166 574.016 316.086C568.166 310.036 565.596 304.716 566.386 300.286C567.136 296.036 570.816 292.936 577.326 291.076C584.346 289.076 591.016 290.516 597.136 295.366C610.176 305.686 616.276 328.006 616.526 328.956C617.006 331.156 627.336 380.476 605.046 404.746C604.196 411.156 596.836 457.956 562.026 480.156C561.696 480.366 561.316 480.466 560.956 480.466L560.936 480.456Z" fill="black"/>
<path d="M572.616 336.496C572.236 336.496 571.866 336.386 571.536 336.176C571.016 335.866 567.056 333.466 563.546 329.626C560.666 326.476 558.886 323.236 558.256 319.996C557.776 317.526 558.926 316.186 559.656 315.606C561.096 314.456 564.196 313.296 574.406 316.556C579.086 318.046 583.526 319.916 584.906 320.506H586.486V322.166C586.606 322.756 586.446 323.396 586.016 323.876C585.576 324.356 584.966 324.576 584.356 324.526H583.696L583.356 324.196C574.476 320.336 563.686 317.166 562.146 318.736C562.146 318.736 562.116 318.886 562.186 319.236C562.666 321.746 564.126 324.336 566.496 326.926C569.576 330.296 573.106 332.456 573.546 332.716L573.726 332.806L573.956 333.016C574.776 333.756 574.836 335.026 574.086 335.846C573.696 336.276 573.146 336.496 572.606 336.496H572.616Z" fill="black"/>
<path d="M566.316 358.406C565.666 358.406 565.046 358.096 564.666 357.506C564.586 357.376 564.496 357.226 564.406 357.046L564.356 356.946C562.216 352.666 555.136 330.696 554.656 325.346C554.486 323.466 555.566 322.656 556.036 322.386C557.616 321.496 559.876 321.916 566.226 326.686C570.166 329.646 573.896 332.966 573.936 332.996C574.756 333.736 574.826 334.996 574.086 335.816C573.346 336.636 572.086 336.706 571.266 335.966C571.236 335.936 567.636 332.736 563.826 329.876C561.416 328.066 559.866 327.106 558.896 326.596C560.266 333.466 566.196 351.686 567.916 355.106L567.956 355.186C567.986 355.246 568.016 355.296 568.036 355.346C568.596 356.286 568.316 357.516 567.386 358.096C567.056 358.306 566.676 358.406 566.316 358.406Z" fill="black"/>
<path d="M513.306 438.226L512.296 438.066C465.966 430.766 422.396 400.286 421.966 399.986C421.066 399.346 420.846 398.106 421.486 397.196C422.126 396.296 423.366 396.076 424.276 396.716C424.696 397.016 466.886 426.516 511.906 433.946C516.646 429.006 544.216 399.336 564.206 357.346C564.686 356.346 565.876 355.926 566.876 356.396C567.876 356.866 568.296 358.066 567.826 359.066C545.686 405.566 514.346 437.186 514.036 437.506L513.316 438.226H513.306Z" fill="black"/>
<path d="M316.776 642.916C307.586 642.916 297.926 642.686 287.766 642.176H287.646C284.516 641.816 210.826 633.386 184.596 617.806L163.416 608.606C157.006 611.306 116.776 627.346 97.9757 613.946C97.0757 613.306 96.8657 612.056 97.5057 611.156C98.1457 610.256 99.3957 610.046 100.296 610.686C118.476 623.646 162.176 604.786 162.616 604.596L163.416 604.246L186.536 614.306C211.616 629.306 285.506 637.896 288.036 638.186C298.146 638.686 307.776 638.926 316.946 638.926C438.256 638.926 478.466 597.936 478.886 597.486L479.186 597.226C518.766 569.326 545.506 529.166 558.656 477.876C572.786 422.766 566.696 372.546 564.486 358.466C564.326 357.516 564.206 356.806 564.136 356.366C564.086 356.046 564.056 355.886 564.046 355.856C563.826 354.776 564.516 353.726 565.596 353.496C566.676 353.266 567.736 353.956 567.966 355.036C567.966 355.036 568.016 355.256 568.086 355.706C568.166 356.126 568.286 356.856 568.446 357.836C570.686 372.126 576.856 423.026 562.536 478.876C549.156 531.056 521.936 571.936 481.646 600.396C480.146 601.916 468.206 613.406 439.766 624.146C416.056 633.096 376.406 642.926 316.776 642.926V642.916Z" fill="black"/>
<path d="M110.446 618.366C110.196 618.366 109.956 618.366 109.706 618.336C108.606 618.246 107.786 617.286 107.866 616.186C107.956 615.086 108.916 614.266 110.016 614.346C116.426 614.866 128.516 604.646 132.626 600.676C133.416 599.906 134.686 599.926 135.456 600.716C136.226 601.506 136.206 602.776 135.416 603.546C133.816 605.096 119.846 618.366 110.446 618.366Z" fill="black"/>
<path d="M368.166 196.626C367.816 196.626 367.466 196.536 367.136 196.346C366.706 196.086 356.716 189.986 360.256 182.016C362.866 176.136 369.006 175.366 371.946 175.006C372.296 174.966 372.706 174.916 372.926 174.866C373.686 174.456 374.636 174.566 375.286 175.196C376.076 175.966 376.086 177.236 375.306 178.026C374.906 178.426 374.446 178.596 374.136 178.686C373.686 178.816 373.136 178.886 372.446 178.966C369.886 179.286 365.616 179.816 363.916 183.636C361.816 188.376 369.126 192.866 369.196 192.906C370.136 193.476 370.446 194.706 369.876 195.646C369.496 196.266 368.836 196.616 368.166 196.616V196.626Z" fill="black"/>
<path d="M426.106 205.686C425.366 205.686 424.656 205.276 424.306 204.566C423.906 203.746 424.116 202.796 424.756 202.216C425.606 200.936 429.066 193.006 430.596 186.436C431.666 181.866 434.516 177.166 436.656 174.106C431.576 173.056 427.526 169.426 423.256 165.606C418.196 161.066 412.966 156.386 405.516 155.616C392.766 154.296 376.966 175.516 375.206 177.946C374.976 178.266 374.846 178.446 374.836 178.466C374.216 179.386 372.976 179.626 372.066 179.006C371.146 178.396 370.906 177.156 371.516 176.236C371.516 176.236 371.676 176.006 371.976 175.596C373.296 173.786 378.076 167.416 384.206 161.796C392.256 154.406 399.566 150.986 405.926 151.646C414.666 152.546 420.646 157.906 425.926 162.636C430.186 166.456 433.876 169.756 438.246 170.326L445.686 169.286L442.306 173.286C442.246 173.356 436.036 180.756 434.496 187.346C433.356 192.226 429.116 204.456 426.986 205.486C426.706 205.626 426.406 205.686 426.116 205.686H426.106Z" fill="black"/>
<path d="M418.626 195.876L392.546 182.896C382.816 184.496 372.116 181.436 371.656 181.306C370.596 180.996 369.986 179.886 370.296 178.826C370.606 177.766 371.716 177.156 372.776 177.466C372.886 177.496 383.546 180.526 392.476 178.856L393.136 178.736L417.366 190.796L428.416 175.476C429.066 174.586 430.316 174.376 431.206 175.026C432.106 175.676 432.306 176.926 431.656 177.816L418.626 195.896V195.876Z" fill="black"/>
<path d="M280.566 122.916C294.636 123.156 302.496 144.376 300.596 155.816C298.696 167.256 288.436 180.616 274.606 180.136C260.776 179.656 253.146 162.016 256.966 144.606C260.786 127.196 280.566 122.906 280.566 122.906V122.916Z" fill="#2D2B37"/>
<path d="M278.906 146.306C282.595 146.306 285.586 143.315 285.586 139.626C285.586 135.937 282.595 132.946 278.906 132.946C275.217 132.946 272.226 135.937 272.226 139.626C272.226 143.315 275.217 146.306 278.906 146.306Z" fill="white"/>
<path d="M466.896 98.5056C477.876 93.7356 491.436 107.396 493.986 116.936C496.536 126.476 493.306 140.426 482.426 144.916C471.546 149.406 459.426 138.436 456.256 123.616C453.086 108.796 466.896 98.5056 466.896 98.5056Z" fill="#2D2B37"/>
<path d="M471.486 117.706C474.623 117.706 477.166 115.163 477.166 112.026C477.166 108.889 474.623 106.346 471.486 106.346C468.349 106.346 465.806 108.889 465.806 112.026C465.806 115.163 468.349 117.706 471.486 117.706Z" fill="white"/>
<path d="M287.211 243.59C246.411 264.79 230.752 235.519 234.211 211.59C237.039 192.025 257.511 182.89 276.711 184.09C300.711 185.59 338.211 217.09 287.211 243.59Z" fill="#FF8F5F"/>
<path d="M250.539 102.471C235.739 112.471 245.372 97.3044 252.039 88.4711C252.872 86.9711 255.839 83.7711 261.039 82.9711C267.539 81.9711 269.039 89.9711 250.539 102.471Z" fill="white"/>
<path d="M268.539 95.971C262.539 96.371 269.372 87.4711 273.539 82.9711C274.881 81.4713 282.039 81.471 281.039 84.471C280.039 87.471 276.039 95.471 268.539 95.971Z" fill="white"/>
<path d="M294.039 88.4711C293.039 93.9711 290.039 95.971 287.039 95.971C284.039 95.971 287.039 88.4711 288.539 85.9712C290.039 83.4713 295.039 82.9711 294.039 88.4711Z" fill="white"/>
</svg>
