<svg width="620" height="695" viewBox="0 0 620 695" fill="none" xmlns="http://www.w3.org/2000/svg">
<ellipse cx="347.078" cy="662.486" rx="258" ry="32.5" fill="#363737"/>
<path d="M254.098 647.161C252.849 646.666 249.573 644.473 246.462 639.665L245.896 635.705L272.343 633.445L280.19 645.961C319.434 651.976 325.019 665.152 324.877 672.412C324.877 672.412 251.928 660.266 231.328 661.018C236.089 655.456 247.31 644.897 254.098 647.161Z" fill="#3FC17B"/>
<path fill-rule="evenodd" clip-rule="evenodd" d="M243.617 633.893L273.388 631.348L281.4 644.126C300.625 647.166 311.971 651.97 318.541 657.149C325.313 662.487 326.959 668.19 326.876 672.451L326.831 674.765L324.548 674.385L324.876 672.412C324.548 674.385 324.548 674.385 324.548 674.385L324.34 674.35C324.202 674.328 323.996 674.294 323.727 674.249C323.189 674.161 322.397 674.031 321.381 673.866C319.349 673.536 316.422 673.065 312.845 672.502C305.691 671.376 295.94 669.883 285.547 668.413C264.666 665.461 241.482 662.649 231.4 663.017L226.841 663.183L229.808 659.717C232.261 656.852 236.372 652.701 240.786 649.531C242.991 647.947 245.345 646.554 247.661 645.71C247.937 645.609 248.216 645.515 248.497 645.429C247.293 644.205 246.016 642.659 244.782 640.751L244.544 640.383L243.617 633.893ZM322.684 670.025C322.169 667.248 320.498 663.785 316.065 660.291C310.17 655.644 299.354 650.922 279.887 647.939L278.982 647.8L271.296 635.542L248.175 637.518L248.378 638.94C251.247 643.234 254.088 645.006 254.834 645.302L253.465 649.058C252.369 648.693 250.897 648.788 249.031 649.468C247.185 650.141 245.163 651.312 243.119 652.779C240.51 654.654 237.984 656.926 235.898 659.026C247.76 659.374 268.016 661.895 286.107 664.453C296.526 665.926 306.3 667.422 313.467 668.55C317.051 669.114 319.985 669.586 322.022 669.918C322.255 669.955 322.475 669.991 322.684 670.025Z" fill="black"/>
<path d="M372.451 644.088C371.267 643.729 368.091 641.969 364.865 637.794L364.042 634.202L388.145 630.093L396.312 640.98C432.8 643.483 438.94 655.149 439.368 661.824C439.368 661.824 371.468 656.285 352.614 658.56C356.558 653.087 366.046 642.532 372.451 644.088Z" fill="#3FC17B"/>
<path fill-rule="evenodd" clip-rule="evenodd" d="M361.62 632.587L389.013 627.918L397.364 639.051C415.217 640.368 426.012 643.906 432.465 648.17C439.133 652.576 441.109 657.729 441.364 661.697L441.512 664.007L439.205 663.819L439.368 661.825C439.205 663.819 439.206 663.819 439.205 663.819L439.202 663.818L439.012 663.803C438.883 663.793 438.692 663.777 438.442 663.757C437.941 663.717 437.204 663.659 436.259 663.586C434.368 663.439 431.645 663.232 428.319 662.99C421.666 662.507 412.6 661.886 402.947 661.337C383.547 660.232 362.064 659.435 352.854 660.546L348.325 661.093L350.992 657.391C353.029 654.565 356.492 650.428 360.312 647.168C362.22 645.539 364.286 644.07 366.365 643.109C366.535 643.03 366.707 642.954 366.881 642.881C365.728 641.868 364.499 640.592 363.283 639.017L363.014 638.67L361.62 632.587ZM436.958 659.628C436.238 657.196 434.441 654.27 430.26 651.507C424.523 647.716 414.262 644.217 396.175 642.976L395.262 642.914L387.278 632.271L366.464 635.819L366.715 636.912C369.655 640.594 372.363 641.972 373.031 642.174L371.98 646.032C370.994 645.793 369.689 645.979 368.044 646.739C366.419 647.491 364.665 648.711 362.908 650.211C360.764 652.04 358.716 654.198 357.013 656.204C367.994 655.646 386.563 656.397 403.175 657.343C412.854 657.894 421.942 658.516 428.609 659.001C431.943 659.243 434.672 659.45 436.568 659.598C436.702 659.608 436.832 659.618 436.958 659.628Z" fill="black"/>
<path d="M584.818 322.506C583.478 321.536 553.718 299.966 578.188 292.976C585.238 290.966 591.238 292.976 596.208 296.916C608.878 306.946 614.908 329.456 614.908 329.456C614.908 329.456 625.868 380.236 603.458 403.836C603.458 403.836 597.498 455.336 561.268 478.456L560.938 478.366C575.368 422.086 568.718 370.346 566.808 358.146C566.648 357.176 566.528 356.456 566.448 356.006C564.408 351.936 557.428 330.196 556.968 325.156C556.718 322.416 561.108 325.096 565.348 328.276C568.688 331.926 572.538 334.256 572.918 334.476C572.528 334.126 568.998 331.016 565.348 328.276C563.158 325.886 561.188 322.926 560.548 319.616C558.918 311.206 583.588 321.966 584.818 322.506Z" fill="#61EDA2"/>
<mask id="mask0_920_352" style="mask-type:luminance" maskUnits="userSpaceOnUse" x="556" y="292" width="62" height="187">
<path d="M584.818 322.506C583.478 321.536 553.718 299.966 578.188 292.976C585.238 290.966 591.238 292.976 596.208 296.916C608.878 306.946 614.908 329.456 614.908 329.456C614.908 329.456 625.868 380.236 603.458 403.836C603.458 403.836 597.498 455.336 561.268 478.456L560.938 478.366C575.368 422.086 568.718 370.346 566.808 358.146C566.648 357.176 566.528 356.456 566.448 356.006C564.408 351.936 557.428 330.196 556.968 325.156C556.718 322.416 561.108 325.096 565.348 328.276C568.688 331.926 572.538 334.256 572.918 334.476C572.528 334.126 568.998 331.016 565.348 328.276C563.158 325.886 561.188 322.926 560.548 319.616C558.918 311.206 583.588 321.966 584.818 322.506Z" fill="white"/>
</mask>
<g mask="url(#mask0_920_352)">
<path d="M566.348 358.216C566.348 358.216 576.608 409.386 643.838 373.626L625.238 471.896L556.948 536.566L524.538 468.686L566.338 358.216" fill="#3FC17B"/>
</g>
<path d="M557.908 170.916C604.878 190.446 605.718 268.996 596.698 296.316L596.208 296.916C591.238 292.976 585.238 290.966 578.188 292.976C553.718 299.966 583.478 321.536 584.818 322.506C583.588 321.966 558.918 311.206 560.548 319.616C561.188 322.926 563.158 325.886 565.348 328.276C561.108 325.096 556.718 322.416 556.968 325.156C557.428 330.196 564.408 351.936 566.448 356.006C566.528 356.456 566.648 357.176 566.808 358.146L566.348 358.216C544.098 404.946 512.948 436.096 512.948 436.096C466.538 428.786 423.458 398.356 423.458 398.356L422.738 397.796C440.868 374.566 451.408 349.646 449.208 347.806C445.038 344.336 430.938 355.746 430.168 356.366C430.688 355.856 438.628 347.886 436.098 343.276C433.538 338.636 415.328 346.906 414.428 347.316C415.348 346.606 436.718 330.066 432.518 325.636C428.228 321.106 401.768 339.466 366.718 340.656C354.348 341.076 340.008 338.286 326.638 334.506C326.638 334.506 285.658 255.866 346.058 208.176C353.688 202.156 361.318 198.206 368.818 195.906C388.638 189.826 407.608 195.226 423.488 204.216C437.008 211.876 448.288 222.146 455.958 230.166C455.958 230.166 470.348 163.676 537.418 166.536C545.058 166.866 551.868 168.396 557.908 170.916Z" fill="#FC7F75"/>
<mask id="mask1_920_352" style="mask-type:luminance" maskUnits="userSpaceOnUse" x="313" y="166" width="289" height="271">
<path d="M557.908 170.916C604.878 190.446 605.718 268.996 596.698 296.316L596.208 296.916C591.238 292.976 585.238 290.966 578.188 292.976C553.718 299.966 583.478 321.536 584.818 322.506C583.588 321.966 558.918 311.206 560.548 319.616C561.188 322.926 563.158 325.886 565.348 328.276C561.108 325.096 556.718 322.416 556.968 325.156C557.428 330.196 564.408 351.936 566.448 356.006C566.528 356.456 566.648 357.176 566.808 358.146L566.348 358.216C544.098 404.946 512.948 436.096 512.948 436.096C466.538 428.786 423.458 398.356 423.458 398.356L422.738 397.796C440.868 374.566 451.408 349.646 449.208 347.806C445.038 344.336 430.938 355.746 430.168 356.366C430.688 355.856 438.628 347.886 436.098 343.276C433.538 338.636 415.328 346.906 414.428 347.316C415.348 346.606 436.718 330.066 432.518 325.636C428.228 321.106 401.768 339.466 366.718 340.656C354.348 341.076 340.008 338.286 326.638 334.506C326.638 334.506 285.658 255.866 346.058 208.176C353.688 202.156 361.318 198.206 368.818 195.906C388.638 189.826 407.608 195.226 423.488 204.216C437.008 211.876 448.288 222.146 455.958 230.166C455.958 230.166 470.348 163.676 537.418 166.536C545.058 166.866 551.868 168.396 557.908 170.916Z" fill="white"/>
</mask>
<g mask="url(#mask1_920_352)">
<path d="M670.098 292.833C553.142 320.084 508.05 227.738 500.124 178.159L566.661 134.65L659.374 188.727C711.68 212.074 787.054 265.582 670.098 292.833Z" fill="#FDAB93"/>
<path d="M346.058 208.176C346.058 208.176 352.268 376.376 572.918 442.706C793.568 509.036 441.108 499.536 441.108 499.536L201.968 478.606L243.668 278.266L299.128 219.936L346.048 208.176" fill="#FA7166"/>
</g>
<path d="M572.919 334.476C572.539 334.256 568.689 331.926 565.349 328.276C568.999 331.016 572.529 334.126 572.919 334.476Z" fill="#C7D1D8"/>
<path d="M561.458 360.706C563.368 372.906 570.018 424.646 555.589 480.926C544.659 523.546 521.648 568.766 475.328 601.416C475.328 601.416 429.398 650.046 282.858 642.736C282.858 642.736 206.558 634.156 180.498 618.576L158.408 608.986C158.408 608.986 113.458 628.656 94.1285 614.876L93.9585 614.516C117.538 603.106 142.628 589.366 149.418 583.136V582.166C187.068 581.946 250.748 573.276 297.688 523.966H297.698C297.698 523.966 356.368 505.576 374.008 438.346L373.418 436.876C390.368 430.086 405.508 415.586 417.388 400.356L418.108 400.916C418.108 400.916 461.189 431.346 507.599 438.656C507.599 438.656 538.748 407.506 560.998 360.776L561.458 360.706Z" fill="#F8F1E8"/>
<mask id="mask2_920_352" style="mask-type:luminance" maskUnits="userSpaceOnUse" x="93" y="360" width="472" height="284">
<path d="M561.458 360.706C563.368 372.906 570.018 424.646 555.589 480.926C544.659 523.546 521.648 568.766 475.328 601.416C475.328 601.416 429.398 650.046 282.858 642.736C282.858 642.736 206.558 634.156 180.498 618.576L158.408 608.986C158.408 608.986 113.458 628.656 94.1285 614.876L93.9585 614.516C117.538 603.106 142.628 589.366 149.418 583.136V582.166C187.068 581.946 250.748 573.276 297.688 523.966H297.698C297.698 523.966 356.368 505.576 374.008 438.346L373.418 436.876C390.368 430.086 405.508 415.586 417.388 400.356L418.108 400.916C418.108 400.916 461.189 431.346 507.599 438.656C507.599 438.656 538.748 407.506 560.998 360.776L561.458 360.706Z" fill="white"/>
</mask>
<g mask="url(#mask2_920_352)">
<path d="M234.969 539.126C234.969 539.126 287.919 642.276 549.509 593.146L509.749 812.946L57.7987 839.646L-43.3613 604.456L234.969 539.116V539.126Z" fill="#C3FEDF"/>
</g>
<path d="M122.408 576.096C109.768 581.506 96.8383 586.486 84.4483 590.586C67.4183 596.226 51.4283 600.216 38.6683 601.396C28.3583 602.346 21.4883 601.916 17.2583 600.366C1.65831 594.626 21.8283 573.516 37.0783 549.266C56.4683 518.436 78.7183 463.196 78.7183 463.196C110.188 313.006 175.988 256.976 175.988 256.976C174.558 236.476 193.398 187.116 193.398 187.116L193.488 185.406C186.578 184.666 194.948 175.316 194.948 175.316L194.558 173.486C193.258 173.776 191.838 173.956 190.298 174.006C179.208 174.366 197.928 159.706 197.928 159.706C186.958 116.316 225.578 59.5761 225.578 59.5761L219.538 62.7461C219.538 62.7461 218.588 41.6161 244.658 44.4761C244.658 44.4761 237.658 21.2661 256.888 23.8061C256.888 23.8061 251.648 35.2561 252.918 37.4761C252.918 37.4761 322.138 -5.99392 378.168 3.30608C434.188 12.6061 502.848 64.1061 511.438 127.046C511.438 127.046 523.358 128.946 528.128 134.666L522.638 137.296C522.638 137.296 551.808 144.106 557.908 170.916C551.868 168.396 545.058 166.866 537.418 166.536C470.348 163.676 455.958 230.166 455.958 230.166C448.288 222.146 437.008 211.876 423.488 204.216L426.438 203.686C427.158 203.336 431.208 194.036 432.878 186.886C434.548 179.726 441.108 171.986 441.108 171.986L438.598 172.336C427.518 171.146 421.078 155.176 406.058 153.626C392.388 152.216 376.658 173.006 373.928 176.766C372.258 177.246 365.058 176.906 362.428 182.826C359.568 189.266 368.508 194.626 368.508 194.626L368.818 195.906C361.318 198.206 353.688 202.156 346.058 208.176C285.658 255.866 326.638 334.496 326.638 334.496C340.008 338.286 354.348 341.076 366.718 340.656C401.768 339.466 428.228 321.106 432.518 325.636C436.718 330.066 415.348 346.606 414.428 347.316C415.328 346.906 433.538 338.636 436.098 343.276C438.628 347.886 430.688 355.856 430.168 356.366C430.938 355.746 445.038 344.336 449.208 347.806C451.408 349.646 440.868 374.566 422.738 397.796C410.858 413.026 395.718 427.526 378.768 434.316L379.358 435.786C361.718 503.016 303.048 521.416 303.048 521.416H303.038C256.098 570.716 192.418 579.386 154.758 579.606C135.528 579.726 123.068 577.636 123.068 577.636L122.408 576.096Z" fill="#61EDA2"/>
<mask id="mask3_920_352" style="mask-type:luminance" maskUnits="userSpaceOnUse" x="12" y="1" width="547" height="601">
<path d="M122.859 576.08C110.219 581.49 97.289 586.47 84.899 590.57C67.869 596.21 51.879 600.2 39.119 601.38C28.809 602.33 21.939 601.9 17.709 600.35C2.10899 594.61 22.279 573.5 37.529 549.25C56.919 518.42 79.169 463.18 79.169 463.18C110.639 312.99 176.439 256.96 176.439 256.96C175.009 236.46 193.849 187.1 193.849 187.1L193.939 185.39C187.029 184.65 195.399 175.3 195.399 175.3L195.009 173.47C193.709 173.76 192.289 173.94 190.749 173.99C179.659 174.35 198.379 159.69 198.379 159.69C187.409 116.3 226.029 59.5605 226.029 59.5605L219.989 62.7305C219.989 62.7305 219.039 41.6005 245.109 44.4605C245.109 44.4605 238.109 21.2505 257.339 23.7905C257.339 23.7905 252.099 35.2405 253.369 37.4605C253.369 37.4605 322.589 -6.00955 378.619 3.29045C434.639 12.5905 503.299 64.0905 511.889 127.03C511.889 127.03 523.809 128.93 528.579 134.65L523.089 137.28C523.089 137.28 552.259 144.09 558.359 170.9C552.319 168.38 545.509 166.85 537.869 166.52C470.799 163.66 456.409 230.15 456.409 230.15C448.739 222.13 437.459 211.86 423.939 204.2L426.889 203.67C427.609 203.32 431.659 194.02 433.329 186.87C434.999 179.71 441.559 171.97 441.559 171.97L439.049 172.32C427.969 171.13 421.529 155.16 406.509 153.61C392.839 152.2 377.109 172.99 374.379 176.75C372.709 177.23 365.509 176.89 362.879 182.81C360.019 189.25 368.959 194.61 368.959 194.61L369.269 195.89C361.769 198.19 354.139 202.14 346.509 208.16C286.109 255.85 327.089 334.48 327.089 334.48C340.459 338.27 354.799 341.06 367.169 340.64C402.219 339.45 428.679 321.09 432.969 325.62C437.169 330.05 415.799 346.59 414.879 347.3C415.779 346.89 433.989 338.62 436.549 343.26C439.079 347.87 431.139 355.84 430.619 356.35C431.389 355.73 445.489 344.32 449.659 347.79C451.859 349.63 441.319 374.55 423.189 397.78C411.309 413.01 396.169 427.51 379.219 434.3L379.809 435.77C362.169 503 303.499 521.4 303.499 521.4H303.489C256.549 570.7 192.869 579.37 155.209 579.59C135.979 579.71 123.519 577.62 123.519 577.62L122.859 576.08Z" fill="white"/>
</mask>
<g mask="url(#mask3_920_352)">
<path d="M333.078 436.486C333.078 436.486 376.078 439.986 393.078 436.486C396.245 440.986 397.378 450.286 376.578 451.486C355.778 452.686 338.911 441.986 333.078 436.486Z" fill="#3FC17B"/>
<path d="M369.578 9.48584C420.578 6.48584 478.078 62.4858 502.578 101.986L556.078 118.986L565.078 97.4858L573.578 14.4856C557.245 0.652359 522.878 -27.2142 516.078 -28.0142C507.578 -29.0142 282.078 -59.0142 276.078 -59.0142C270.078 -59.0142 126.578 21.9858 120.578 26.9858C115.778 30.9858 127.245 99.3192 133.578 132.986C150.745 146.653 189.278 162.986 206.078 118.986C227.078 63.9858 245.016 51.553 271.078 36.4858C281.078 30.7046 314.165 12.7454 369.578 9.48584Z" fill="white"/>
<path d="M510.543 201.59C469.743 222.79 454.084 193.519 457.543 169.59C460.371 150.025 480.843 140.89 500.043 142.09C524.043 143.59 561.543 175.09 510.543 201.59Z" fill="#F89E78"/>
<path d="M52.1181 427.796C52.1181 427.796 78.4481 471.126 126.938 454.256C126.938 454.256 145.268 507.666 216.218 489.976C216.218 489.976 242.018 512.176 271.148 502.646C271.148 502.646 295.428 523.836 308.708 509.526L302.468 576.096L154.768 696.906L-51.1019 676.876L-60.9219 580.576L52.1181 427.796Z" fill="#3FC17B"/>
</g>
<path d="M373.929 176.766C376.659 173.006 392.389 152.216 406.059 153.626C421.079 155.176 427.519 171.146 438.599 172.336L441.109 171.986C441.109 171.986 434.549 179.726 432.879 186.886C431.209 194.036 427.159 203.336 426.439 203.686L423.489 204.216C407.609 195.226 388.639 189.826 368.819 195.906L368.509 194.626C368.509 194.626 359.569 189.266 362.429 182.826C365.059 176.906 372.259 177.246 373.929 176.766Z" fill="#FCA986"/>
<path d="M154.758 579.606V580.576C147.979 586.806 122.888 600.546 99.3085 611.956C82.3085 620.196 66.0885 627.226 58.0985 629.376C39.0285 634.496 47.4885 619.716 47.4885 619.716L47.0185 618.926C57.6085 612.686 70.0185 603.576 84.4485 590.596C96.8385 586.486 109.769 581.506 122.409 576.096L123.069 577.636C123.069 577.636 135.529 579.726 154.758 579.606Z" fill="#33313C"/>
<path d="M84.4485 590.585C70.0185 603.575 57.6085 612.685 47.0185 618.925C27.3685 630.505 13.9685 632.235 5.60852 630.485C-7.26148 627.785 16.7385 601.895 16.7385 601.895L17.2585 600.365C21.4885 601.915 28.3585 602.345 38.6685 601.395C51.4285 600.215 67.4185 596.225 84.4485 590.585Z" fill="#3FC17B"/>
<path d="M189.928 176.016C187.258 176.016 185.608 175.166 184.998 173.486C183.628 169.726 189.818 163.646 195.688 158.936C187.518 123.516 210.258 80.8056 219.898 64.8256L217.688 65.9856L217.548 62.8456C217.528 62.4757 217.218 53.8056 223.668 47.7556C227.978 43.7156 234.168 41.8756 242.088 42.2757C241.278 38.1157 240.478 30.2857 244.538 25.5157C247.248 22.3257 251.498 21.0857 257.158 21.8457L259.838 22.1957L258.708 24.6557C257.188 27.9757 255.908 31.3856 255.228 33.7656C269.938 25.1256 328.748 -6.90435 378.498 1.34565C436.268 10.9356 503.788 62.9257 513.218 125.356C516.708 126.086 525.478 128.366 529.668 133.396L531.318 135.366L528.078 136.916C536.988 140.216 555.068 149.386 559.868 170.476C559.928 170.706 559.988 170.986 560.048 171.266C560.268 172.346 559.568 173.406 558.488 173.626C557.398 173.846 556.348 173.146 556.128 172.066C556.088 171.846 556.028 171.626 555.978 171.406C550.228 146.126 522.468 139.316 522.188 139.256L516.668 137.956L524.638 134.136C519.658 130.436 511.228 129.046 511.138 129.026L509.678 128.796L509.478 127.326C505.588 98.8456 488.478 70.1656 461.298 46.5856C436.448 25.0256 406.038 9.96565 377.858 5.29565C349.388 0.57565 317.278 10.0057 295.358 18.7557C271.478 28.2857 254.168 39.0856 253.998 39.1956L252.238 40.3056L251.198 38.4956C250.148 36.6656 251.068 32.3456 253.918 25.6457C251.078 25.6857 248.958 26.5156 247.598 28.1157C244.098 32.2257 245.688 40.9256 246.598 43.9256L247.468 46.8256L244.458 46.4956C236.428 45.6156 230.368 47.0156 226.448 50.6656C223.578 53.3356 222.388 56.7757 221.898 59.2856L231.748 54.1157L227.248 60.7257C226.868 61.2857 189.268 117.236 199.888 159.236L200.208 160.496L199.188 161.296C194.028 165.346 189.438 170.096 188.868 171.936C189.118 171.986 189.548 172.046 190.258 172.016C191.638 171.976 192.938 171.816 194.148 171.546C201.258 170.026 204.418 165.466 204.548 165.276C205.168 164.366 206.408 164.126 207.318 164.736C208.228 165.346 208.488 166.576 207.878 167.496C207.708 167.746 203.758 173.586 194.998 175.456C193.568 175.776 192.008 175.966 190.388 176.016C190.238 176.016 190.098 176.016 189.958 176.016H189.928Z" fill="black"/>
<path d="M194.459 187.456C194.029 187.456 193.619 187.436 193.239 187.386C190.539 187.096 189.459 185.716 189.029 184.606C187.609 180.906 192.049 175.536 193.449 173.976C194.189 173.156 195.449 173.086 196.269 173.816C197.089 174.556 197.159 175.816 196.429 176.636C194.019 179.336 192.459 182.406 192.759 183.166C192.759 183.166 192.919 183.326 193.689 183.406C194.299 183.476 195.069 183.456 195.999 183.336C206.239 182.066 212.089 167.786 212.149 167.646C212.559 166.626 213.729 166.126 214.749 166.536C215.769 166.946 216.269 168.106 215.859 169.136C215.589 169.816 209.079 185.746 196.489 187.306C195.749 187.396 195.069 187.446 194.449 187.446L194.459 187.456Z" fill="black"/>
<path d="M28.9185 603.396C23.7185 603.396 19.6985 602.856 16.7385 601.776C13.4485 600.566 11.3685 598.616 10.5285 595.986C8.23847 588.716 15.8385 577.746 25.4785 563.856C28.9085 558.906 32.4585 553.786 35.8085 548.466C54.4685 518.796 76.0885 465.676 77.2785 462.756C93.5785 385.026 119.228 332.966 137.878 302.966C156.298 273.346 171.338 259.116 174.448 256.326C173.488 235.346 191.228 188.576 191.998 186.576C192.288 185.806 193.158 185.416 193.938 185.706C194.708 185.996 195.098 186.866 194.808 187.646C194.618 188.136 176.098 236.936 177.498 256.866L177.548 257.616L176.968 258.106C176.808 258.246 160.378 272.436 140.338 304.696C121.838 334.486 96.3785 386.216 80.1885 463.486L80.1085 463.736C79.8885 464.286 57.5885 519.456 38.3485 550.046C34.9685 555.416 31.3985 560.566 27.9485 565.546C19.5185 577.716 11.5485 589.206 13.3985 595.066C13.9385 596.786 15.3785 598.056 17.7785 598.946C21.9085 600.456 28.8985 600.776 38.5285 599.886C50.5185 598.776 65.8085 595.166 83.9785 589.146C95.9385 585.186 108.668 580.326 121.818 574.706C158.558 558.976 190.908 540.566 202.338 528.896C202.918 528.306 203.868 528.296 204.458 528.876C205.048 529.456 205.058 530.406 204.478 530.996C192.808 542.926 160.058 561.606 122.998 577.466C109.768 583.126 96.9585 588.016 84.9185 591.996C66.5385 598.086 51.0185 601.746 38.8085 602.876C35.1385 603.216 31.8485 603.386 28.9285 603.386L28.9185 603.396Z" fill="black"/>
<path d="M11.5483 632.566C9.12831 632.566 7.05831 632.326 5.29831 631.956C2.21831 631.306 1.04831 629.526 0.608309 628.146C-1.94169 620.146 13.8283 602.826 15.6383 600.876C16.1983 600.266 17.1483 600.236 17.7583 600.796C18.3683 601.356 18.3983 602.306 17.8383 602.916C11.4783 609.786 1.94831 622.456 3.46831 627.236C3.65831 627.816 4.10831 628.636 5.91831 629.016C12.9983 630.496 25.7383 629.726 46.2583 617.636C57.5883 610.966 70.0983 601.486 83.4483 589.486C84.0683 588.926 85.0183 588.986 85.5683 589.596C86.1183 590.216 86.0683 591.156 85.4583 591.716C71.9583 603.856 59.2883 613.446 47.7883 620.226C31.3783 629.896 19.5883 632.576 11.5583 632.576L11.5483 632.566Z" fill="black"/>
<path d="M51.3183 631.956C48.4683 631.956 46.4683 631.176 45.2583 629.606C42.3783 625.876 45.7883 619.666 46.1883 618.976C46.5983 618.256 47.5183 618.016 48.2283 618.416C48.9483 618.826 49.1983 619.746 48.7883 620.456C48.0383 621.776 46.2183 625.936 47.6383 627.766C48.3183 628.646 50.5383 629.846 57.7083 627.916C65.0383 625.946 80.3483 619.466 98.6483 610.596C125.018 597.836 147.678 585.036 153.748 579.456C154.358 578.896 155.308 578.936 155.868 579.546C156.428 580.156 156.388 581.106 155.778 581.666C148.468 588.376 121.718 602.756 99.9583 613.286C81.4883 622.236 65.9883 628.786 58.4883 630.806C55.6783 631.556 53.2983 631.936 51.3183 631.936V631.956Z" fill="black"/>
<path d="M153.178 581.116C134.928 581.116 122.938 579.146 122.808 579.116C121.988 578.976 121.438 578.206 121.578 577.386C121.718 576.566 122.498 576.015 123.308 576.155C123.428 576.175 135.888 578.205 154.738 578.105C189.378 577.905 254.568 570.136 301.938 520.376C303.128 519.146 304.208 517.975 305.268 516.795C305.818 516.175 306.768 516.126 307.388 516.676C308.008 517.226 308.058 518.175 307.508 518.795C306.428 520.005 305.318 521.196 304.108 522.446C255.978 573.006 189.878 580.895 154.758 581.105C154.228 581.105 153.698 581.105 153.178 581.105V581.116Z" fill="black"/>
<path d="M303.048 522.916C302.408 522.916 301.818 522.506 301.618 521.866C301.368 521.076 301.808 520.236 302.598 519.986C302.738 519.936 317.288 515.276 333.768 502.546C348.938 490.826 368.918 469.666 377.908 435.406C378.118 434.606 378.938 434.126 379.738 434.336C380.538 434.546 381.018 435.366 380.808 436.166C371.588 471.306 351.078 492.996 335.508 504.996C318.618 518.016 304.108 522.656 303.498 522.846C303.348 522.896 303.198 522.916 303.048 522.916Z" fill="black"/>
<path d="M204.588 330.476C204.358 330.476 204.128 330.426 203.918 330.316C203.178 329.946 202.878 329.046 203.248 328.306C203.598 327.596 206.838 321.376 211.318 320.806C212.138 320.706 212.888 321.286 212.998 322.106C213.098 322.926 212.518 323.676 211.698 323.786C209.238 324.096 206.648 328.226 205.928 329.646C205.668 330.166 205.138 330.476 204.588 330.476Z" fill="black"/>
<path d="M286.838 316.406C286.538 316.406 286.238 316.316 285.978 316.136C271.268 305.746 255.568 302.566 239.328 306.676C227.148 309.756 219.198 316.016 219.118 316.076C218.478 316.596 217.528 316.486 217.008 315.836C216.488 315.186 216.598 314.246 217.248 313.726C217.578 313.456 250.748 287.576 287.708 313.676C288.388 314.156 288.548 315.086 288.068 315.766C287.778 316.176 287.308 316.396 286.838 316.396V316.406Z" fill="black"/>
<path d="M358.919 439.836C357.549 439.836 356.179 439.776 354.829 439.666C353.999 439.596 353.389 438.866 353.459 438.046C353.529 437.216 354.239 436.596 355.079 436.676C362.609 437.316 370.389 436.056 378.199 432.926C396.499 425.596 411.869 409.276 421.549 396.876C438.809 374.766 448.229 352.446 448.009 348.806C445.869 347.766 438.629 351.476 431.119 357.516C430.529 358.006 429.639 357.986 429.089 357.436C428.509 356.846 428.489 355.916 429.079 355.326L429.229 355.186C434.009 351.336 445.569 342.816 450.169 346.646C452.079 348.236 450.319 354.566 444.939 365.436C441.749 371.886 434.779 384.796 423.919 398.706C414.019 411.396 398.249 428.116 379.319 435.696C372.469 438.436 365.619 439.816 358.919 439.816V439.836Z" fill="black"/>
<path d="M430.169 357.866C429.779 357.866 429.388 357.716 429.098 357.416C428.518 356.826 428.529 355.876 429.119 355.296C432.099 352.366 436.278 346.716 434.788 343.996C433.878 342.336 425.769 343.816 415.139 348.646C414.549 348.976 413.778 348.876 413.288 348.346C412.728 347.736 412.779 346.786 413.389 346.226C413.489 346.136 413.638 346.036 413.758 345.976C419.928 343.166 434.488 337.256 437.408 342.556C440.458 348.126 432.169 356.506 431.219 357.436C430.929 357.726 430.549 357.866 430.169 357.866Z" fill="black"/>
<path d="M414.429 348.816C413.979 348.816 413.539 348.616 413.239 348.236C412.729 347.576 412.859 346.636 413.509 346.136C420.599 340.666 431.259 331.116 431.559 327.216C431.589 326.836 431.479 326.726 431.429 326.676C430.329 325.506 423.249 328.126 417.009 330.446C405.219 334.836 387.399 341.456 366.769 342.156C355.749 342.526 342.119 340.446 326.229 335.946C301.889 329.046 280.449 318.746 280.239 318.646C279.489 318.286 279.179 317.386 279.539 316.646C279.899 315.896 280.799 315.586 281.539 315.946C281.749 316.046 302.959 326.246 327.049 333.066C342.639 337.476 355.959 339.526 366.669 339.156C386.809 338.476 404.359 331.946 415.969 327.626C425.749 323.996 431.139 321.986 433.609 324.606C434.309 325.346 434.639 326.326 434.549 327.446C434.059 333.756 418.469 346.096 415.339 348.506C415.069 348.716 414.749 348.816 414.419 348.816H414.429Z" fill="black"/>
<path d="M231.618 415.666C231.508 415.666 231.388 415.656 231.268 415.626C228.248 414.916 226.018 413.246 224.628 410.666C220.818 403.596 224.948 392.046 225.118 391.556C225.398 390.776 226.258 390.376 227.038 390.656C227.818 390.936 228.218 391.796 227.938 392.576C227.898 392.686 224.088 403.356 227.268 409.236C228.248 411.046 229.778 412.176 231.958 412.696C232.768 412.886 233.258 413.696 233.068 414.506C232.908 415.196 232.288 415.656 231.608 415.656L231.618 415.666Z" fill="black"/>
<path d="M252.519 437.286C252.389 437.286 252.258 437.266 252.128 437.236C241.468 434.386 234.809 429.566 232.329 422.896C228.809 413.396 235.189 403.876 235.469 403.476C235.939 402.786 236.869 402.616 237.549 403.086C238.229 403.556 238.408 404.486 237.938 405.166C237.858 405.286 232.159 413.846 235.149 421.876C237.269 427.566 243.239 431.766 252.899 434.346C253.699 434.556 254.179 435.386 253.959 436.186C253.779 436.856 253.168 437.296 252.508 437.296L252.519 437.286Z" fill="black"/>
<path d="M266.738 444.206C262.618 444.206 259.248 443.036 256.648 440.716C247.568 432.586 251.748 413.386 251.928 412.576C252.108 411.766 252.919 411.266 253.719 411.436C254.529 411.616 255.038 412.416 254.858 413.226C254.818 413.406 250.878 431.526 258.648 438.476C262.378 441.816 268.418 442.086 276.588 439.286C277.368 439.016 278.229 439.436 278.499 440.216C278.769 440.996 278.348 441.856 277.568 442.126C273.528 443.516 269.918 444.206 266.738 444.206Z" fill="black"/>
<path d="M314.158 457.416C305.588 457.416 298.228 450.816 295.928 448.516C290.968 450.386 286.738 450.246 283.318 448.096C276.238 443.646 275.608 432.206 275.578 431.726C275.538 430.896 276.178 430.196 276.998 430.156C277.848 430.116 278.528 430.756 278.568 431.576C278.568 431.676 279.158 441.946 284.918 445.556C287.678 447.286 291.308 447.226 295.718 445.366L296.698 444.956L297.408 445.746C297.498 445.846 306.258 455.396 315.668 454.326C320.548 453.766 324.868 450.386 328.498 444.286L316.048 434.916C315.388 434.416 315.258 433.476 315.748 432.816C316.248 432.156 317.188 432.026 317.848 432.516L332.398 443.476L331.768 444.616C327.498 452.326 322.198 456.596 315.988 457.306C315.368 457.376 314.748 457.416 314.138 457.416H314.158Z" fill="black"/>
<path d="M81.8985 568.716C74.8985 568.716 69.6685 566.846 66.2485 563.116C54.5985 550.386 68.6585 521.236 69.2685 519.996C69.6385 519.246 70.5385 518.946 71.2785 519.306C72.0185 519.666 72.3285 520.566 71.9685 521.316C71.8285 521.596 58.1885 549.866 68.4685 561.096C74.8185 568.036 89.1585 567.276 111.079 558.836C184.279 530.686 213.449 505.016 213.739 504.756C214.359 504.196 215.309 504.256 215.859 504.876C216.409 505.496 216.359 506.436 215.739 506.996C215.449 507.256 185.949 533.256 112.159 561.636C99.8885 566.356 89.7785 568.716 81.9085 568.716H81.8985Z" fill="black"/>
<path d="M183.828 493.296C171.608 493.296 160.848 490.576 151.658 485.146C135.028 475.326 128.708 459.706 126.948 454.266C117.538 458.976 98.0883 457.486 97.2083 457.416C96.3783 457.346 95.7683 456.626 95.8283 455.796C95.8983 454.966 96.6383 454.366 97.4483 454.416C97.6683 454.436 119.408 456.106 126.988 450.766L128.788 449.496L129.308 451.636C129.358 451.836 134.358 471.456 153.228 482.576C168.208 491.406 187.688 492.656 211.138 486.306C211.938 486.086 212.758 486.566 212.978 487.356C213.198 488.156 212.728 488.976 211.928 489.196C201.868 491.926 192.488 493.286 183.848 493.286L183.828 493.296Z" fill="black"/>
<path d="M256.828 505.106C252.448 505.106 247.658 504.746 242.438 504.026C227.458 501.956 218.628 497.236 216.208 489.986C212.708 479.506 224.028 468.106 224.518 467.626C225.108 467.046 226.058 467.046 226.638 467.626C227.218 468.216 227.218 469.166 226.638 469.746C226.528 469.846 216.148 480.326 219.068 489.036C221.098 495.106 229.108 499.146 242.858 501.046C265.218 504.136 275.598 499.726 280.358 495.496C285.408 491.006 285.358 485.866 285.358 485.646C285.338 484.816 285.998 484.136 286.818 484.116C286.828 484.116 286.848 484.116 286.858 484.116C287.668 484.116 288.328 484.756 288.358 485.566C288.358 485.836 288.498 492.226 282.438 497.676C276.938 502.626 268.358 505.116 256.848 505.116L256.828 505.106Z" fill="black"/>
<path d="M296.188 513.256C281.958 513.256 271.898 505.196 271.358 504.756C270.718 504.236 270.618 503.286 271.148 502.646C271.678 502.006 272.618 501.906 273.258 502.436C273.418 502.566 289.088 515.046 308.198 508.116C308.978 507.836 309.838 508.236 310.118 509.016C310.398 509.796 309.998 510.656 309.218 510.936C304.618 512.606 300.238 513.256 296.188 513.256Z" fill="black"/>
<path d="M326.638 336.496C325.918 336.496 325.218 336.106 324.858 335.416C324.428 334.596 314.408 315.126 311.698 289.426C308.098 255.186 319.548 226.546 344.808 206.606C352.278 200.706 360.158 196.466 368.218 193.996C385.968 188.546 404.898 191.406 424.458 202.476C438.478 210.416 450.098 221.166 457.388 228.786C464.318 236.046 468.278 241.416 468.448 241.646C469.098 242.536 468.908 243.786 468.018 244.446C467.128 245.096 465.878 244.906 465.218 244.016C465.178 243.966 461.228 238.606 454.498 231.556C447.398 224.136 436.078 213.666 422.488 205.966C403.918 195.456 386.048 192.716 369.388 197.826C361.798 200.156 354.368 204.166 347.278 209.756C322.808 229.076 312.168 255.746 315.668 289.016C318.288 313.966 328.288 333.386 328.388 333.576C328.898 334.556 328.518 335.766 327.538 336.276C327.238 336.426 326.928 336.506 326.618 336.506L326.638 336.496Z" fill="black"/>
<path d="M596.698 298.316C596.488 298.316 596.278 298.286 596.068 298.216C595.018 297.866 594.448 296.736 594.798 295.686C599.068 282.746 601.378 257.006 596.338 231.076C588.998 193.296 570.968 178.516 557.138 172.766C551.148 170.266 544.488 168.846 537.328 168.536C510.268 167.376 488.708 177.416 473.228 198.356C461.598 214.096 457.948 230.436 457.908 230.596C457.678 231.676 456.608 232.356 455.528 232.126C454.448 231.896 453.768 230.826 453.998 229.746C454.148 229.046 457.828 212.516 469.918 196.096C481.138 180.866 501.958 163.026 537.498 164.546C545.128 164.876 552.258 166.396 558.668 169.076C606.318 188.886 608.248 267.686 598.588 296.946C598.308 297.786 597.528 298.316 596.688 298.316H596.698Z" fill="black"/>
<path d="M561.268 480.456C560.608 480.456 559.958 480.126 559.578 479.536C558.988 478.606 559.258 477.366 560.188 476.776C595.178 454.446 601.408 404.116 601.468 403.606L601.548 402.946L602.008 402.466C613.128 390.756 615.528 371.706 615.588 357.796C615.648 342.546 612.978 330.006 612.958 329.886C612.918 329.766 606.968 307.986 594.968 298.496C589.908 294.486 584.448 293.286 578.738 294.916C573.828 296.316 571.108 298.356 570.648 300.976C569.558 307.166 580.208 316.716 585.998 320.906C586.888 321.556 587.088 322.806 586.448 323.696C585.798 324.586 584.548 324.796 583.658 324.146C582.468 323.286 578.288 320.166 574.348 316.086C568.498 310.036 565.928 304.716 566.718 300.286C567.468 296.036 571.148 292.936 577.658 291.076C584.678 289.076 591.348 290.516 597.468 295.366C610.508 305.686 616.608 328.006 616.858 328.956C617.338 331.156 627.668 380.476 605.378 404.746C604.528 411.156 597.168 457.956 562.358 480.156C562.028 480.366 561.648 480.466 561.288 480.466L561.268 480.456Z" fill="black"/>
<path d="M572.948 336.496C572.568 336.496 572.198 336.386 571.868 336.176C571.348 335.866 567.388 333.466 563.878 329.626C560.998 326.476 559.218 323.236 558.588 319.996C558.108 317.526 559.258 316.186 559.988 315.606C561.428 314.456 564.528 313.296 574.738 316.556C579.418 318.046 583.858 319.916 585.238 320.506H586.818V322.166C586.938 322.756 586.778 323.396 586.348 323.876C585.908 324.356 585.298 324.576 584.688 324.526H584.028L583.688 324.196C574.808 320.336 564.018 317.166 562.478 318.736C562.478 318.736 562.448 318.886 562.518 319.236C562.998 321.746 564.458 324.336 566.828 326.926C569.908 330.296 573.438 332.456 573.878 332.716L574.058 332.806L574.288 333.016C575.108 333.756 575.168 335.026 574.418 335.846C574.028 336.276 573.478 336.496 572.938 336.496H572.948Z" fill="black"/>
<path d="M566.649 358.406C565.999 358.406 565.379 358.096 564.999 357.506C564.919 357.376 564.829 357.226 564.739 357.046L564.689 356.946C562.549 352.666 555.469 330.696 554.989 325.346C554.819 323.466 555.899 322.656 556.369 322.386C557.949 321.496 560.209 321.916 566.559 326.686C570.499 329.646 574.229 332.966 574.269 332.996C575.089 333.736 575.159 334.996 574.419 335.816C573.679 336.636 572.419 336.706 571.599 335.966C571.569 335.936 567.969 332.736 564.159 329.876C561.749 328.066 560.199 327.106 559.229 326.596C560.599 333.466 566.529 351.686 568.249 355.106L568.289 355.186C568.319 355.246 568.349 355.296 568.369 355.346C568.929 356.286 568.649 357.516 567.719 358.096C567.389 358.306 567.009 358.406 566.649 358.406Z" fill="black"/>
<path d="M513.638 438.226L512.628 438.066C466.298 430.766 422.728 400.286 422.298 399.986C421.398 399.346 421.178 398.106 421.818 397.196C422.458 396.296 423.698 396.076 424.608 396.716C425.028 397.016 467.218 426.516 512.238 433.946C516.978 429.006 544.548 399.336 564.538 357.346C565.018 356.346 566.208 355.926 567.208 356.396C568.208 356.866 568.628 358.066 568.158 359.066C546.018 405.566 514.678 437.186 514.368 437.506L513.648 438.226H513.638Z" fill="black"/>
<path d="M317.108 642.916C307.918 642.916 298.258 642.686 288.098 642.176H287.978C284.848 641.816 211.158 633.386 184.928 617.806L163.748 608.606C157.338 611.306 117.108 627.346 98.3082 613.946C97.4082 613.306 97.1982 612.056 97.8382 611.156C98.4782 610.256 99.7282 610.046 100.628 610.686C118.808 623.646 162.508 604.786 162.948 604.596L163.748 604.246L186.868 614.306C211.948 629.306 285.838 637.896 288.368 638.186C298.478 638.686 308.108 638.926 317.278 638.926C438.588 638.926 478.798 597.936 479.218 597.486L479.518 597.226C519.098 569.326 545.838 529.166 558.988 477.876C573.118 422.766 567.028 372.546 564.818 358.466C564.658 357.516 564.538 356.806 564.468 356.366C564.418 356.046 564.388 355.886 564.378 355.856C564.158 354.776 564.848 353.726 565.928 353.496C567.008 353.266 568.068 353.956 568.298 355.036C568.298 355.036 568.348 355.256 568.418 355.706C568.498 356.126 568.618 356.856 568.778 357.836C571.018 372.126 577.188 423.026 562.868 478.876C549.488 531.056 522.268 571.936 481.978 600.396C480.478 601.916 468.538 613.406 440.098 624.146C416.388 633.096 376.738 642.926 317.108 642.926V642.916Z" fill="black"/>
<path d="M110.778 618.366C110.528 618.366 110.288 618.366 110.038 618.336C108.938 618.246 108.118 617.286 108.198 616.186C108.288 615.086 109.248 614.266 110.348 614.346C116.758 614.866 128.848 604.646 132.958 600.676C133.748 599.906 135.018 599.926 135.788 600.716C136.558 601.506 136.538 602.776 135.748 603.546C134.148 605.096 120.178 618.366 110.778 618.366Z" fill="black"/>
<path d="M368.498 196.626C368.148 196.626 367.798 196.536 367.468 196.346C367.038 196.086 357.048 189.986 360.588 182.016C363.198 176.136 369.338 175.366 372.278 175.006C372.628 174.966 373.038 174.916 373.258 174.866C374.018 174.456 374.968 174.566 375.618 175.196C376.408 175.966 376.418 177.236 375.638 178.026C375.238 178.426 374.778 178.596 374.468 178.686C374.018 178.816 373.468 178.886 372.778 178.966C370.218 179.286 365.948 179.816 364.248 183.636C362.148 188.376 369.458 192.866 369.528 192.906C370.468 193.476 370.778 194.706 370.208 195.646C369.828 196.266 369.168 196.616 368.498 196.616V196.626Z" fill="black"/>
<path d="M426.438 205.686C425.698 205.686 424.988 205.276 424.638 204.566C424.238 203.746 424.448 202.796 425.088 202.216C425.938 200.936 429.398 193.006 430.928 186.436C431.998 181.866 434.848 177.166 436.988 174.106C431.908 173.056 427.858 169.426 423.588 165.606C418.528 161.066 413.298 156.386 405.848 155.616C393.098 154.296 377.298 175.516 375.538 177.946C375.308 178.266 375.178 178.446 375.168 178.466C374.548 179.386 373.308 179.626 372.398 179.006C371.478 178.396 371.238 177.156 371.848 176.236C371.848 176.236 372.008 176.006 372.308 175.596C373.628 173.786 378.408 167.416 384.538 161.796C392.588 154.406 399.898 150.986 406.258 151.646C414.998 152.546 420.978 157.906 426.258 162.636C430.518 166.456 434.208 169.756 438.578 170.326L446.018 169.286L442.638 173.286C442.578 173.356 436.368 180.756 434.828 187.346C433.688 192.226 429.448 204.456 427.318 205.486C427.038 205.626 426.738 205.686 426.448 205.686H426.438Z" fill="black"/>
<path d="M418.959 195.876L392.879 182.896C383.149 184.496 372.449 181.436 371.989 181.306C370.929 180.996 370.319 179.886 370.629 178.826C370.939 177.766 372.049 177.156 373.109 177.466C373.219 177.496 383.879 180.526 392.809 178.856L393.469 178.736L417.699 190.796L428.749 175.476C429.399 174.586 430.649 174.376 431.539 175.026C432.439 175.676 432.639 176.926 431.989 177.816L418.959 195.896V195.876Z" fill="black"/>
<path d="M280.898 122.916C294.968 123.156 302.828 144.376 300.928 155.816C299.028 167.256 288.768 180.616 274.938 180.136C261.108 179.656 253.478 162.016 257.298 144.606C261.118 127.196 280.898 122.906 280.898 122.906V122.916Z" fill="#2D2B37"/>
<path d="M279.238 146.306C282.927 146.306 285.918 143.315 285.918 139.626C285.918 135.937 282.927 132.946 279.238 132.946C275.549 132.946 272.558 135.937 272.558 139.626C272.558 143.315 275.549 146.306 279.238 146.306Z" fill="white"/>
<path d="M467.228 98.5056C478.208 93.7356 491.768 107.396 494.318 116.936C496.868 126.476 493.638 140.426 482.758 144.916C471.878 149.406 459.758 138.436 456.588 123.616C453.418 108.796 467.228 98.5056 467.228 98.5056Z" fill="#2D2B37"/>
<path d="M471.819 117.706C474.956 117.706 477.499 115.163 477.499 112.026C477.499 108.889 474.956 106.346 471.819 106.346C468.682 106.346 466.139 108.889 466.139 112.026C466.139 115.163 468.682 117.706 471.819 117.706Z" fill="white"/>
<path d="M287.543 243.59C246.743 264.79 231.084 235.519 234.543 211.59C237.371 192.025 257.843 182.89 277.043 184.09C301.043 185.59 338.543 217.09 287.543 243.59Z" fill="#F89E78"/>
<path d="M250.871 102.471C236.071 112.471 245.704 97.3044 252.371 88.4711C253.204 86.9711 256.171 83.7711 261.371 82.9711C267.871 81.9711 269.371 89.9711 250.871 102.471Z" fill="white"/>
<path d="M268.871 95.971C262.871 96.371 269.704 87.4711 273.871 82.9711C275.213 81.4713 282.371 81.471 281.371 84.471C280.371 87.471 276.371 95.471 268.871 95.971Z" fill="white"/>
<path d="M294.371 88.4711C293.371 93.9711 290.371 95.971 287.371 95.971C284.371 95.971 287.371 88.4711 288.871 85.9712C290.371 83.4713 295.371 82.9711 294.371 88.4711Z" fill="white"/>
</svg>
