<svg width="348" height="291" viewBox="0 0 348 291" fill="none" xmlns="http://www.w3.org/2000/svg">
<path d="M0.376909 103.93C0.301463 83.5059 6.22463 63.5236 17.3888 46.5393C28.5529 29.5549 44.4505 16.3408 63.0481 8.58702C81.6457 0.833236 102.098 -1.10767 121.789 3.01256C141.479 7.13278 159.513 17.1268 173.584 31.7164C187.547 17.0239 205.507 6.89773 225.167 2.63304C244.827 -1.63165 265.293 0.159042 283.947 7.77607C302.601 15.3931 318.595 28.4902 329.883 45.3921C341.172 62.294 347.242 82.2323 347.316 102.657C347.414 118.69 343.794 134.521 336.751 148.868C329.707 163.215 319.437 175.675 306.772 185.24L192.784 281.382C186.446 286.73 178.441 289.611 170.202 289.51C161.964 289.409 154.029 286.332 147.818 280.831L36.0859 181.851C24.9336 172.266 15.9642 160.333 9.79852 146.879C3.63285 133.425 0.418152 118.771 0.376909 103.93Z" fill="#5EDBD0"/>
<circle cx="136.5" cy="110.5" r="7.5" fill="black"/>
<circle cx="210.5" cy="110.5" r="7.5" fill="black"/>
<path d="M255 23C328 36 320 118 320 118C319.333 94 305.4 41.4 255 23Z" fill="white"/>
<circle cx="94.5" cy="141.5" r="14.5" fill="white" fill-opacity="0.6"/>
<circle cx="250.5" cy="140.5" r="14.5" fill="white" fill-opacity="0.6"/>
<rect x="165" y="136" width="12" height="19" rx="6" fill="black"/>
<path fill-rule="evenodd" clip-rule="evenodd" d="M177 147.22V149C177 152.314 174.314 155 171 155C167.686 155 165 152.314 165 149V147.33C168.285 144.754 172.753 143.327 177 147.22Z" fill="#BFF1EC"/>
</svg>
