<svg width="348" height="291" viewBox="0 0 348 291" fill="none" xmlns="http://www.w3.org/2000/svg">
<path d="M0.376909 103.93C0.301463 83.5057 6.22463 63.5233 17.3888 46.539C28.5529 29.5547 44.4505 16.3406 63.0481 8.58677C81.6457 0.832992 102.098 -1.10791 121.789 3.01231C141.479 7.13254 159.513 17.1266 173.584 31.7161C187.547 17.0237 205.507 6.89748 225.167 2.6328C244.827 -1.63189 265.293 0.158798 283.947 7.77582C302.601 15.3928 318.595 28.4899 329.883 45.3918C341.172 62.2937 347.242 82.232 347.316 102.656C347.414 118.69 343.794 134.521 336.751 148.868C329.707 163.215 319.437 175.675 306.772 185.24L192.784 281.382C186.446 286.73 178.441 289.611 170.202 289.51C161.964 289.409 154.029 286.332 147.818 280.83L36.0859 181.851C24.9336 172.266 15.9642 160.333 9.79852 146.879C3.63285 133.425 0.418152 118.77 0.376909 103.93Z" fill="#5EDBD0"/>
<circle cx="136.5" cy="110.5" r="7.5" fill="black"/>
<circle cx="210.5" cy="110.5" r="7.5" fill="black"/>
<path d="M255 23C328 36 320 118 320 118C319.333 94 305.4 41.4 255 23Z" fill="white"/>
<path d="M203.984 143C203.456 159.106 190.234 172 174 172C157.766 172 144.544 159.106 144.016 143H203.984Z" fill="black"/>
<path d="M203.984 143C203.456 159.106 190.234 172 174 172C157.766 172 144.544 159.106 144.016 143H203.984Z" fill="black"/>
<path d="M203.984 143C203.456 159.106 190.234 172 174 172C157.766 172 144.544 159.106 144.016 143H203.984Z" stroke="black" stroke-width="2"/>
<path fill-rule="evenodd" clip-rule="evenodd" d="M195.208 164.61C189.663 169.813 182.204 173 174 173C166.096 173 158.883 170.042 153.408 165.173C161.81 159.42 178.471 153.591 195.208 164.61Z" fill="#BFF1EC"/>
<circle cx="94.5" cy="141.5" r="14.5" fill="white" fill-opacity="0.6"/>
<circle cx="250.5" cy="140.5" r="14.5" fill="white" fill-opacity="0.6"/>
</svg>
